<ttFont>
    <TTGlyph name=".notdef" xMin="68" yMin="0" xMax="612" yMax="1365">
      <contour>
        <pt x="68" y="0" on="1"/>
        <pt x="68" y="1365" on="1"/>
        <pt x="612" y="1365" on="1"/>
        <pt x="612" y="0" on="1"/>
      </contour>
      <contour>
        <pt x="136" y="68" on="1"/>
        <pt x="544" y="68" on="1"/>
        <pt x="544" y="1297" on="1"/>
        <pt x="136" y="1297" on="1"/>
      </contour>
    </TTGlyph>
    <TTGlyph name="A" xMin="-138" yMin="-9" xMax="1272" yMax="1496">
      <contour>
        <pt x="-136" y="-9" on="1"/>
        <pt x="-137" y="-6" on="0"/>
        <pt x="-137" y="1" on="1"/>
        <pt x="-138" y="9" on="0"/>
        <pt x="-136" y="23" on="1"/>
        <pt x="-132" y="49" on="0"/>
        <pt x="-124" y="63" on="1"/>
        <pt x="-115" y="63" on="0"/>
        <pt x="-75" y="73" on="0"/>
        <pt x="-31" y="88" on="0"/>
        <pt x="11" y="111" on="0"/>
        <pt x="20" y="122" on="1"/>
        <pt x="78" y="193" on="0"/>
        <pt x="142" y="307" on="1"/>
        <pt x="786" y="1422" on="1"/>
        <pt x="800" y="1445" on="0"/>
        <pt x="864" y="1496" on="0"/>
        <pt x="879" y="1496" on="1"/>
        <pt x="895" y="1496" on="0"/>
        <pt x="904" y="1487" on="1"/>
        <pt x="1107" y="310" on="1"/>
        <pt x="1116" y="264" on="0"/>
        <pt x="1132" y="155" on="0"/>
        <pt x="1132" y="154" on="1"/>
        <pt x="1136" y="133" on="0"/>
        <pt x="1165" y="101" on="0"/>
        <pt x="1199" y="83" on="0"/>
        <pt x="1238" y="71" on="0"/>
        <pt x="1263" y="68" on="0"/>
        <pt x="1270" y="68" on="1"/>
        <pt x="1272" y="62" on="0"/>
        <pt x="1272" y="41" on="0"/>
        <pt x="1270" y="27" on="1"/>
        <pt x="1265" y="-1" on="0"/>
        <pt x="1259" y="-9" on="1"/>
        <pt x="1240" y="-8" on="0"/>
        <pt x="1060" y="7" on="0"/>
        <pt x="1006" y="7" on="1"/>
        <pt x="948" y="7" on="0"/>
        <pt x="730" y="-9" on="0"/>
        <pt x="723" y="-9" on="1"/>
        <pt x="716" y="-1" on="0"/>
        <pt x="729" y="64" on="0"/>
        <pt x="739" y="68" on="1"/>
        <pt x="768" y="68" on="0"/>
        <pt x="847" y="86" on="0"/>
        <pt x="866" y="102" on="1"/>
        <pt x="883" y="115" on="0"/>
        <pt x="886" y="136" on="1"/>
        <pt x="888" y="148" on="0"/>
        <pt x="879" y="239" on="0"/>
        <pt x="861" y="349" on="0"/>
        <pt x="843" y="457" on="0"/>
        <pt x="836" y="493" on="1"/>
        <pt x="829" y="529" on="1"/>
        <pt x="825" y="538" on="0"/>
        <pt x="818" y="538" on="1"/>
        <pt x="795" y="539" on="0"/>
        <pt x="734" y="540" on="0"/>
        <pt x="686" y="539" on="0"/>
        <pt x="627" y="538" on="0"/>
        <pt x="612" y="538" on="1"/>
        <pt x="477" y="538" on="0"/>
        <pt x="391" y="533" on="1"/>
        <pt x="388" y="533" on="0"/>
        <pt x="375" y="526" on="0"/>
        <pt x="375" y="524" on="1"/>
        <pt x="289" y="380" on="0"/>
        <pt x="244" y="294" on="1"/>
        <pt x="219" y="246" on="0"/>
        <pt x="180" y="154" on="0"/>
        <pt x="176" y="136" on="1"/>
        <pt x="172" y="116" on="0"/>
        <pt x="208" y="87" on="0"/>
        <pt x="263" y="74" on="0"/>
        <pt x="304" y="68" on="0"/>
        <pt x="314" y="68" on="1"/>
        <pt x="319" y="59" on="0"/>
        <pt x="310" y="0" on="0"/>
        <pt x="303" y="-9" on="1"/>
        <pt x="281" y="-7" on="0"/>
        <pt x="197" y="2" on="0"/>
        <pt x="132" y="7" on="0"/>
        <pt x="90" y="7" on="1"/>
        <pt x="47" y="7" on="0"/>
        <pt x="-22" y="2" on="0"/>
        <pt x="-109" y="-7" on="0"/>
      </contour>
      <contour>
        <pt x="445" y="655" on="1"/>
        <pt x="445" y="646" on="0"/>
        <pt x="450" y="646" on="1"/>
        <pt x="521" y="640" on="0"/>
        <pt x="626" y="640" on="1"/>
        <pt x="702" y="640" on="0"/>
        <pt x="800" y="646" on="1"/>
        <pt x="809" y="658" on="1"/>
        <pt x="725" y="1144" on="1"/>
      </contour>
    </TTGlyph>
    <TTGlyph name="AE" xMin="-142" yMin="-9" xMax="1779" yMax="1501">
      <contour>
        <pt x="-142" y="-5" on="0"/>
        <pt x="-142" y="54" on="0"/>
        <pt x="-133" y="63" on="1"/>
        <pt x="-110" y="63" on="0"/>
        <pt x="-3" y="101" on="0"/>
        <pt x="18" y="122" on="1"/>
        <pt x="86" y="193" on="0"/>
        <pt x="165" y="307" on="1"/>
        <pt x="875" y="1329" on="1"/>
        <pt x="879" y="1333" on="0"/>
        <pt x="890" y="1356" on="0"/>
        <pt x="890" y="1365" on="1"/>
        <pt x="890" y="1382" on="0"/>
        <pt x="851" y="1410" on="0"/>
        <pt x="827" y="1410" on="1"/>
        <pt x="822" y="1418" on="0"/>
        <pt x="828" y="1476" on="0"/>
        <pt x="834" y="1487" on="1"/>
        <pt x="879" y="1483" on="0"/>
        <pt x="1096" y="1483" on="1"/>
        <pt x="1163" y="1483" on="0"/>
        <pt x="1686" y="1501" on="0"/>
        <pt x="1779" y="1501" on="1"/>
        <pt x="1779" y="1462" on="0"/>
        <pt x="1778" y="1329" on="0"/>
        <pt x="1778" y="1226" on="0"/>
        <pt x="1779" y="1182" on="1"/>
        <pt x="1767" y="1171" on="0"/>
        <pt x="1736" y="1171" on="1"/>
        <pt x="1725" y="1171" on="0"/>
        <pt x="1706" y="1181" on="0"/>
        <pt x="1706" y="1189" on="1"/>
        <pt x="1678" y="1397" on="0"/>
        <pt x="1512" y="1397" on="1"/>
        <pt x="1358" y="1397" on="1"/>
        <pt x="1324" y="1397" on="0"/>
        <pt x="1289" y="1396" on="0"/>
        <pt x="1241" y="1391" on="0"/>
        <pt x="1215" y="1379" on="0"/>
        <pt x="1211" y="1370" on="1"/>
        <pt x="1208" y="1360" on="0"/>
        <pt x="1202" y="1339" on="0"/>
        <pt x="1198" y="1315" on="0"/>
        <pt x="1194" y="1293" on="0"/>
        <pt x="1190" y="1262" on="0"/>
        <pt x="1188" y="1240" on="0"/>
        <pt x="1183" y="1201" on="0"/>
        <pt x="1182" y="1189" on="1"/>
        <pt x="1146" y="798" on="1"/>
        <pt x="1146" y="780" on="0"/>
        <pt x="1225" y="780" on="1"/>
        <pt x="1318" y="780" on="1"/>
        <pt x="1361" y="780" on="0"/>
        <pt x="1410" y="782" on="0"/>
        <pt x="1458" y="796" on="0"/>
        <pt x="1481" y="812" on="0"/>
        <pt x="1510" y="855" on="0"/>
        <pt x="1529" y="896" on="0"/>
        <pt x="1546" y="938" on="1"/>
        <pt x="1552" y="954" on="0"/>
        <pt x="1575" y="954" on="1"/>
        <pt x="1605" y="954" on="0"/>
        <pt x="1611" y="945" on="1"/>
        <pt x="1599" y="896" on="0"/>
        <pt x="1564" y="581" on="0"/>
        <pt x="1559" y="511" on="1"/>
        <pt x="1550" y="502" on="0"/>
        <pt x="1526" y="502" on="1"/>
        <pt x="1496" y="502" on="0"/>
        <pt x="1496" y="518" on="1"/>
        <pt x="1493" y="559" on="0"/>
        <pt x="1482" y="615" on="0"/>
        <pt x="1466" y="643" on="0"/>
        <pt x="1456" y="654" on="0"/>
        <pt x="1446" y="660" on="1"/>
        <pt x="1420" y="676" on="0"/>
        <pt x="1257" y="676" on="1"/>
        <pt x="1135" y="676" on="0"/>
        <pt x="1132" y="649" on="1"/>
        <pt x="1101" y="334" on="1"/>
        <pt x="1101" y="333" on="0"/>
        <pt x="1092" y="241" on="0"/>
        <pt x="1087" y="164" on="0"/>
        <pt x="1089" y="140" on="1"/>
        <pt x="1096" y="97" on="0"/>
        <pt x="1225" y="97" on="1"/>
        <pt x="1311" y="97" on="1"/>
        <pt x="1457" y="97" on="0"/>
        <pt x="1539" y="154" on="1"/>
        <pt x="1606" y="205" on="0"/>
        <pt x="1686" y="375" on="1"/>
        <pt x="1693" y="389" on="0"/>
        <pt x="1718" y="389" on="1"/>
        <pt x="1733" y="389" on="0"/>
        <pt x="1769" y="380" on="0"/>
        <pt x="1772" y="375" on="1"/>
        <pt x="1654" y="131" on="0"/>
        <pt x="1614" y="-7" on="1"/>
        <pt x="1554" y="-7" on="0"/>
        <pt x="1066" y="0" on="0"/>
        <pt x="936" y="0" on="1"/>
        <pt x="887" y="0" on="0"/>
        <pt x="780" y="-2" on="0"/>
        <pt x="709" y="-5" on="0"/>
        <pt x="654" y="-7" on="0"/>
        <pt x="651" y="-7" on="1"/>
        <pt x="646" y="3" on="0"/>
        <pt x="654" y="66" on="0"/>
        <pt x="662" y="72" on="1"/>
        <pt x="692" y="72" on="0"/>
        <pt x="805" y="97" on="0"/>
        <pt x="814" y="113" on="1"/>
        <pt x="831" y="142" on="0"/>
        <pt x="851" y="258" on="0"/>
        <pt x="861" y="357" on="1"/>
        <pt x="863" y="379" on="0"/>
        <pt x="884" y="600" on="0"/>
        <pt x="886" y="622" on="1"/>
        <pt x="886" y="627" on="0"/>
        <pt x="880" y="635" on="0"/>
        <pt x="875" y="635" on="1"/>
        <pt x="841" y="637" on="0"/>
        <pt x="707" y="637" on="1"/>
        <pt x="601" y="637" on="0"/>
        <pt x="533" y="635" on="1"/>
        <pt x="527" y="635" on="0"/>
        <pt x="518" y="626" on="1"/>
        <pt x="314" y="332" on="0"/>
        <pt x="292" y="301" on="1"/>
        <pt x="201" y="168" on="0"/>
        <pt x="197" y="131" on="1"/>
        <pt x="193" y="115" on="0"/>
        <pt x="227" y="87" on="0"/>
        <pt x="276" y="72" on="0"/>
        <pt x="317" y="63" on="0"/>
        <pt x="325" y="63" on="1"/>
        <pt x="329" y="57" on="0"/>
        <pt x="325" y="-3" on="0"/>
        <pt x="319" y="-9" on="1"/>
        <pt x="301" y="-7" on="0"/>
        <pt x="228" y="0" on="0"/>
        <pt x="186" y="3" on="0"/>
        <pt x="118" y="7" on="0"/>
        <pt x="86" y="7" on="1"/>
        <pt x="42" y="7" on="0"/>
        <pt x="-25" y="2" on="0"/>
        <pt x="-111" y="-7" on="0"/>
        <pt x="-138" y="-9" on="1"/>
      </contour>
      <contour>
        <pt x="599" y="755" on="1"/>
        <pt x="599" y="746" on="0"/>
        <pt x="603" y="746" on="1"/>
        <pt x="644" y="741" on="0"/>
        <pt x="734" y="741" on="1"/>
        <pt x="834" y="741" on="0"/>
        <pt x="888" y="746" on="1"/>
        <pt x="889" y="746" on="0"/>
        <pt x="895" y="753" on="0"/>
        <pt x="897" y="756" on="1"/>
        <pt x="899" y="759" on="1"/>
        <pt x="951" y="1241" on="0"/>
        <pt x="951" y="1259" on="1"/>
      </contour>
    </TTGlyph>
    <TTGlyph name="Aacute" xMin="-139" yMin="-9" xMax="1275" yMax="1896">
      <contour>
        <pt x="-136" y="-9" on="1"/>
        <pt x="-139" y="-3" on="0"/>
        <pt x="-132" y="49" on="0"/>
        <pt x="-124" y="63" on="1"/>
        <pt x="-115" y="63" on="0"/>
        <pt x="-75" y="73" on="0"/>
        <pt x="-31" y="88" on="0"/>
        <pt x="11" y="111" on="0"/>
        <pt x="20" y="122" on="1"/>
        <pt x="78" y="193" on="0"/>
        <pt x="142" y="307" on="1"/>
        <pt x="786" y="1422" on="1"/>
        <pt x="800" y="1445" on="0"/>
        <pt x="864" y="1496" on="0"/>
        <pt x="879" y="1496" on="1"/>
        <pt x="895" y="1496" on="0"/>
        <pt x="904" y="1487" on="1"/>
        <pt x="1107" y="310" on="1"/>
        <pt x="1116" y="264" on="0"/>
        <pt x="1132" y="155" on="0"/>
        <pt x="1132" y="154" on="1"/>
        <pt x="1136" y="133" on="0"/>
        <pt x="1165" y="101" on="0"/>
        <pt x="1199" y="83" on="0"/>
        <pt x="1238" y="71" on="0"/>
        <pt x="1263" y="68" on="0"/>
        <pt x="1270" y="68" on="1"/>
        <pt x="1275" y="55" on="0"/>
        <pt x="1265" y="-1" on="0"/>
        <pt x="1259" y="-9" on="1"/>
        <pt x="1240" y="-8" on="0"/>
        <pt x="1060" y="7" on="0"/>
        <pt x="1006" y="7" on="1"/>
        <pt x="948" y="7" on="0"/>
        <pt x="730" y="-9" on="0"/>
        <pt x="723" y="-9" on="1"/>
        <pt x="716" y="-1" on="0"/>
        <pt x="729" y="64" on="0"/>
        <pt x="739" y="68" on="1"/>
        <pt x="768" y="68" on="0"/>
        <pt x="847" y="86" on="0"/>
        <pt x="866" y="102" on="1"/>
        <pt x="883" y="115" on="0"/>
        <pt x="886" y="136" on="1"/>
        <pt x="888" y="148" on="0"/>
        <pt x="879" y="239" on="0"/>
        <pt x="861" y="349" on="0"/>
        <pt x="843" y="457" on="0"/>
        <pt x="836" y="493" on="1"/>
        <pt x="829" y="529" on="1"/>
        <pt x="825" y="538" on="0"/>
        <pt x="818" y="538" on="1"/>
        <pt x="795" y="539" on="0"/>
        <pt x="734" y="540" on="0"/>
        <pt x="686" y="539" on="0"/>
        <pt x="627" y="538" on="0"/>
        <pt x="612" y="538" on="1"/>
        <pt x="477" y="538" on="0"/>
        <pt x="391" y="533" on="1"/>
        <pt x="388" y="533" on="0"/>
        <pt x="375" y="526" on="0"/>
        <pt x="375" y="524" on="1"/>
        <pt x="289" y="380" on="0"/>
        <pt x="244" y="294" on="1"/>
        <pt x="219" y="246" on="0"/>
        <pt x="180" y="154" on="0"/>
        <pt x="176" y="136" on="1"/>
        <pt x="172" y="116" on="0"/>
        <pt x="208" y="87" on="0"/>
        <pt x="263" y="74" on="0"/>
        <pt x="304" y="68" on="0"/>
        <pt x="314" y="68" on="1"/>
        <pt x="319" y="59" on="0"/>
        <pt x="310" y="0" on="0"/>
        <pt x="303" y="-9" on="1"/>
        <pt x="281" y="-7" on="0"/>
        <pt x="197" y="2" on="0"/>
        <pt x="132" y="7" on="0"/>
        <pt x="90" y="7" on="1"/>
        <pt x="47" y="7" on="0"/>
        <pt x="-22" y="2" on="0"/>
        <pt x="-109" y="-7" on="0"/>
      </contour>
      <contour>
        <pt x="445" y="655" on="1"/>
        <pt x="445" y="646" on="0"/>
        <pt x="450" y="646" on="1"/>
        <pt x="521" y="640" on="0"/>
        <pt x="626" y="640" on="1"/>
        <pt x="702" y="640" on="0"/>
        <pt x="800" y="646" on="1"/>
        <pt x="809" y="658" on="1"/>
        <pt x="725" y="1144" on="1"/>
      </contour>
      <contour>
        <pt x="793" y="1668" on="1"/>
        <pt x="797" y="1683" on="0"/>
        <pt x="980" y="1851" on="0"/>
        <pt x="1033" y="1883" on="1"/>
        <pt x="1042" y="1889" on="0"/>
        <pt x="1094" y="1896" on="0"/>
        <pt x="1114" y="1896" on="1"/>
        <pt x="1145" y="1896" on="0"/>
        <pt x="1197" y="1883" on="0"/>
        <pt x="1232" y="1855" on="0"/>
        <pt x="1232" y="1835" on="1"/>
        <pt x="1232" y="1810" on="0"/>
        <pt x="1111" y="1740" on="0"/>
        <pt x="957" y="1683" on="0"/>
        <pt x="826" y="1642" on="0"/>
        <pt x="811" y="1641" on="1"/>
        <pt x="793" y="1659" on="0"/>
      </contour>
    </TTGlyph>
    <TTGlyph name="Acircumflex" xMin="-139" yMin="-9" xMax="1275" yMax="1944">
      <contour>
        <pt x="-136" y="-9" on="1"/>
        <pt x="-139" y="-3" on="0"/>
        <pt x="-132" y="49" on="0"/>
        <pt x="-124" y="63" on="1"/>
        <pt x="-115" y="63" on="0"/>
        <pt x="-75" y="73" on="0"/>
        <pt x="-31" y="88" on="0"/>
        <pt x="11" y="111" on="0"/>
        <pt x="20" y="122" on="1"/>
        <pt x="78" y="193" on="0"/>
        <pt x="142" y="307" on="1"/>
        <pt x="786" y="1422" on="1"/>
        <pt x="800" y="1445" on="0"/>
        <pt x="864" y="1496" on="0"/>
        <pt x="879" y="1496" on="1"/>
        <pt x="895" y="1496" on="0"/>
        <pt x="904" y="1487" on="1"/>
        <pt x="1107" y="310" on="1"/>
        <pt x="1116" y="264" on="0"/>
        <pt x="1132" y="155" on="0"/>
        <pt x="1132" y="154" on="1"/>
        <pt x="1136" y="133" on="0"/>
        <pt x="1165" y="101" on="0"/>
        <pt x="1199" y="83" on="0"/>
        <pt x="1238" y="71" on="0"/>
        <pt x="1263" y="68" on="0"/>
        <pt x="1270" y="68" on="1"/>
        <pt x="1275" y="55" on="0"/>
        <pt x="1265" y="-1" on="0"/>
        <pt x="1259" y="-9" on="1"/>
        <pt x="1240" y="-8" on="0"/>
        <pt x="1060" y="7" on="0"/>
        <pt x="1006" y="7" on="1"/>
        <pt x="948" y="7" on="0"/>
        <pt x="730" y="-9" on="0"/>
        <pt x="723" y="-9" on="1"/>
        <pt x="716" y="-1" on="0"/>
        <pt x="729" y="64" on="0"/>
        <pt x="739" y="68" on="1"/>
        <pt x="768" y="68" on="0"/>
        <pt x="847" y="86" on="0"/>
        <pt x="866" y="102" on="1"/>
        <pt x="883" y="115" on="0"/>
        <pt x="886" y="136" on="1"/>
        <pt x="888" y="148" on="0"/>
        <pt x="879" y="239" on="0"/>
        <pt x="861" y="349" on="0"/>
        <pt x="843" y="457" on="0"/>
        <pt x="836" y="493" on="1"/>
        <pt x="829" y="529" on="1"/>
        <pt x="825" y="538" on="0"/>
        <pt x="818" y="538" on="1"/>
        <pt x="795" y="539" on="0"/>
        <pt x="734" y="540" on="0"/>
        <pt x="686" y="539" on="0"/>
        <pt x="627" y="538" on="0"/>
        <pt x="612" y="538" on="1"/>
        <pt x="477" y="538" on="0"/>
        <pt x="391" y="533" on="1"/>
        <pt x="388" y="533" on="0"/>
        <pt x="375" y="526" on="0"/>
        <pt x="375" y="524" on="1"/>
        <pt x="289" y="380" on="0"/>
        <pt x="244" y="294" on="1"/>
        <pt x="219" y="246" on="0"/>
        <pt x="180" y="154" on="0"/>
        <pt x="176" y="136" on="1"/>
        <pt x="172" y="116" on="0"/>
        <pt x="208" y="87" on="0"/>
        <pt x="263" y="74" on="0"/>
        <pt x="304" y="68" on="0"/>
        <pt x="314" y="68" on="1"/>
        <pt x="319" y="59" on="0"/>
        <pt x="310" y="0" on="0"/>
        <pt x="303" y="-9" on="1"/>
        <pt x="281" y="-7" on="0"/>
        <pt x="197" y="2" on="0"/>
        <pt x="132" y="7" on="0"/>
        <pt x="90" y="7" on="1"/>
        <pt x="47" y="7" on="0"/>
        <pt x="-22" y="2" on="0"/>
        <pt x="-109" y="-7" on="0"/>
      </contour>
      <contour>
        <pt x="445" y="655" on="1"/>
        <pt x="445" y="646" on="0"/>
        <pt x="450" y="646" on="1"/>
        <pt x="521" y="640" on="0"/>
        <pt x="626" y="640" on="1"/>
        <pt x="702" y="640" on="0"/>
        <pt x="800" y="646" on="1"/>
        <pt x="809" y="658" on="1"/>
        <pt x="725" y="1144" on="1"/>
      </contour>
      <contour>
        <pt x="612" y="1672" on="1"/>
        <pt x="820" y="1834" on="0"/>
        <pt x="918" y="1926" on="1"/>
        <pt x="939" y="1944" on="0"/>
        <pt x="949" y="1944" on="1"/>
        <pt x="963" y="1944" on="0"/>
        <pt x="974" y="1926" on="1"/>
        <pt x="1040" y="1823" on="0"/>
        <pt x="1168" y="1672" on="1"/>
        <pt x="1165" y="1650" on="0"/>
        <pt x="1139" y="1645" on="1"/>
        <pt x="937" y="1763" on="0"/>
        <pt x="915" y="1779" on="1"/>
        <pt x="898" y="1769" on="0"/>
        <pt x="796" y="1720" on="0"/>
        <pt x="645" y="1651" on="0"/>
        <pt x="633" y="1645" on="1"/>
        <pt x="624" y="1647" on="0"/>
        <pt x="611" y="1663" on="0"/>
      </contour>
    </TTGlyph>
    <TTGlyph name="Adieresis" xMin="-139" yMin="-9" xMax="1283" yMax="1910">
      <contour>
        <pt x="-136" y="-9" on="1"/>
        <pt x="-139" y="-3" on="0"/>
        <pt x="-132" y="49" on="0"/>
        <pt x="-124" y="63" on="1"/>
        <pt x="-115" y="63" on="0"/>
        <pt x="-75" y="73" on="0"/>
        <pt x="-31" y="88" on="0"/>
        <pt x="11" y="111" on="0"/>
        <pt x="20" y="122" on="1"/>
        <pt x="78" y="193" on="0"/>
        <pt x="142" y="307" on="1"/>
        <pt x="786" y="1422" on="1"/>
        <pt x="800" y="1445" on="0"/>
        <pt x="864" y="1496" on="0"/>
        <pt x="879" y="1496" on="1"/>
        <pt x="895" y="1496" on="0"/>
        <pt x="904" y="1487" on="1"/>
        <pt x="1107" y="310" on="1"/>
        <pt x="1116" y="264" on="0"/>
        <pt x="1132" y="155" on="0"/>
        <pt x="1132" y="154" on="1"/>
        <pt x="1136" y="133" on="0"/>
        <pt x="1165" y="101" on="0"/>
        <pt x="1199" y="83" on="0"/>
        <pt x="1238" y="71" on="0"/>
        <pt x="1263" y="68" on="0"/>
        <pt x="1270" y="68" on="1"/>
        <pt x="1275" y="55" on="0"/>
        <pt x="1265" y="-1" on="0"/>
        <pt x="1259" y="-9" on="1"/>
        <pt x="1240" y="-8" on="0"/>
        <pt x="1060" y="7" on="0"/>
        <pt x="1006" y="7" on="1"/>
        <pt x="948" y="7" on="0"/>
        <pt x="730" y="-9" on="0"/>
        <pt x="723" y="-9" on="1"/>
        <pt x="716" y="-1" on="0"/>
        <pt x="729" y="64" on="0"/>
        <pt x="739" y="68" on="1"/>
        <pt x="768" y="68" on="0"/>
        <pt x="847" y="86" on="0"/>
        <pt x="866" y="102" on="1"/>
        <pt x="883" y="115" on="0"/>
        <pt x="886" y="136" on="1"/>
        <pt x="888" y="148" on="0"/>
        <pt x="879" y="239" on="0"/>
        <pt x="861" y="349" on="0"/>
        <pt x="843" y="457" on="0"/>
        <pt x="836" y="493" on="1"/>
        <pt x="829" y="529" on="1"/>
        <pt x="825" y="538" on="0"/>
        <pt x="818" y="538" on="1"/>
        <pt x="795" y="539" on="0"/>
        <pt x="734" y="540" on="0"/>
        <pt x="686" y="539" on="0"/>
        <pt x="627" y="538" on="0"/>
        <pt x="612" y="538" on="1"/>
        <pt x="477" y="538" on="0"/>
        <pt x="391" y="533" on="1"/>
        <pt x="388" y="533" on="0"/>
        <pt x="375" y="526" on="0"/>
        <pt x="375" y="524" on="1"/>
        <pt x="289" y="380" on="0"/>
        <pt x="244" y="294" on="1"/>
        <pt x="219" y="246" on="0"/>
        <pt x="180" y="154" on="0"/>
        <pt x="176" y="136" on="1"/>
        <pt x="172" y="116" on="0"/>
        <pt x="208" y="87" on="0"/>
        <pt x="263" y="74" on="0"/>
        <pt x="304" y="68" on="0"/>
        <pt x="314" y="68" on="1"/>
        <pt x="319" y="59" on="0"/>
        <pt x="310" y="0" on="0"/>
        <pt x="303" y="-9" on="1"/>
        <pt x="281" y="-7" on="0"/>
        <pt x="197" y="2" on="0"/>
        <pt x="132" y="7" on="0"/>
        <pt x="90" y="7" on="1"/>
        <pt x="47" y="7" on="0"/>
        <pt x="-22" y="2" on="0"/>
        <pt x="-109" y="-7" on="0"/>
      </contour>
      <contour>
        <pt x="445" y="655" on="1"/>
        <pt x="445" y="646" on="0"/>
        <pt x="450" y="646" on="1"/>
        <pt x="521" y="640" on="0"/>
        <pt x="626" y="640" on="1"/>
        <pt x="702" y="640" on="0"/>
        <pt x="800" y="646" on="1"/>
        <pt x="809" y="658" on="1"/>
        <pt x="725" y="1144" on="1"/>
      </contour>
      <contour>
        <pt x="592" y="1779" on="1"/>
        <pt x="602" y="1833" on="0"/>
        <pt x="690" y="1910" on="0"/>
        <pt x="792" y="1910" on="0"/>
        <pt x="851" y="1833" on="0"/>
        <pt x="841" y="1779" on="1"/>
        <pt x="830" y="1724" on="0"/>
        <pt x="742" y="1641" on="0"/>
        <pt x="692" y="1641" on="1"/>
        <pt x="657" y="1641" on="0"/>
        <pt x="607" y="1679" on="0"/>
        <pt x="585" y="1743" on="0"/>
      </contour>
      <contour>
        <pt x="1024" y="1779" on="1"/>
        <pt x="1034" y="1833" on="0"/>
        <pt x="1122" y="1910" on="0"/>
        <pt x="1224" y="1910" on="0"/>
        <pt x="1283" y="1833" on="0"/>
        <pt x="1272" y="1779" on="1"/>
        <pt x="1262" y="1724" on="0"/>
        <pt x="1174" y="1641" on="0"/>
        <pt x="1123" y="1641" on="1"/>
        <pt x="1089" y="1641" on="0"/>
        <pt x="1038" y="1679" on="0"/>
        <pt x="1017" y="1743" on="0"/>
      </contour>
    </TTGlyph>
    <TTGlyph name="Agrave" xMin="-139" yMin="-9" xMax="1275" yMax="1896">
      <contour>
        <pt x="-136" y="-9" on="1"/>
        <pt x="-139" y="-3" on="0"/>
        <pt x="-132" y="49" on="0"/>
        <pt x="-124" y="63" on="1"/>
        <pt x="-115" y="63" on="0"/>
        <pt x="-75" y="73" on="0"/>
        <pt x="-31" y="88" on="0"/>
        <pt x="11" y="111" on="0"/>
        <pt x="20" y="122" on="1"/>
        <pt x="78" y="193" on="0"/>
        <pt x="142" y="307" on="1"/>
        <pt x="786" y="1422" on="1"/>
        <pt x="800" y="1445" on="0"/>
        <pt x="864" y="1496" on="0"/>
        <pt x="879" y="1496" on="1"/>
        <pt x="895" y="1496" on="0"/>
        <pt x="904" y="1487" on="1"/>
        <pt x="1107" y="310" on="1"/>
        <pt x="1116" y="264" on="0"/>
        <pt x="1132" y="155" on="0"/>
        <pt x="1132" y="154" on="1"/>
        <pt x="1136" y="133" on="0"/>
        <pt x="1165" y="101" on="0"/>
        <pt x="1199" y="83" on="0"/>
        <pt x="1238" y="71" on="0"/>
        <pt x="1263" y="68" on="0"/>
        <pt x="1270" y="68" on="1"/>
        <pt x="1275" y="55" on="0"/>
        <pt x="1265" y="-1" on="0"/>
        <pt x="1259" y="-9" on="1"/>
        <pt x="1240" y="-8" on="0"/>
        <pt x="1060" y="7" on="0"/>
        <pt x="1006" y="7" on="1"/>
        <pt x="948" y="7" on="0"/>
        <pt x="730" y="-9" on="0"/>
        <pt x="723" y="-9" on="1"/>
        <pt x="716" y="-1" on="0"/>
        <pt x="729" y="64" on="0"/>
        <pt x="739" y="68" on="1"/>
        <pt x="768" y="68" on="0"/>
        <pt x="847" y="86" on="0"/>
        <pt x="866" y="102" on="1"/>
        <pt x="883" y="115" on="0"/>
        <pt x="886" y="136" on="1"/>
        <pt x="888" y="148" on="0"/>
        <pt x="879" y="239" on="0"/>
        <pt x="861" y="349" on="0"/>
        <pt x="843" y="457" on="0"/>
        <pt x="836" y="493" on="1"/>
        <pt x="829" y="529" on="1"/>
        <pt x="825" y="538" on="0"/>
        <pt x="818" y="538" on="1"/>
        <pt x="795" y="539" on="0"/>
        <pt x="734" y="540" on="0"/>
        <pt x="686" y="539" on="0"/>
        <pt x="627" y="538" on="0"/>
        <pt x="612" y="538" on="1"/>
        <pt x="477" y="538" on="0"/>
        <pt x="391" y="533" on="1"/>
        <pt x="388" y="533" on="0"/>
        <pt x="375" y="526" on="0"/>
        <pt x="375" y="524" on="1"/>
        <pt x="289" y="380" on="0"/>
        <pt x="244" y="294" on="1"/>
        <pt x="219" y="246" on="0"/>
        <pt x="180" y="154" on="0"/>
        <pt x="176" y="136" on="1"/>
        <pt x="172" y="116" on="0"/>
        <pt x="208" y="87" on="0"/>
        <pt x="263" y="74" on="0"/>
        <pt x="304" y="68" on="0"/>
        <pt x="314" y="68" on="1"/>
        <pt x="319" y="59" on="0"/>
        <pt x="310" y="0" on="0"/>
        <pt x="303" y="-9" on="1"/>
        <pt x="281" y="-7" on="0"/>
        <pt x="197" y="2" on="0"/>
        <pt x="132" y="7" on="0"/>
        <pt x="90" y="7" on="1"/>
        <pt x="47" y="7" on="0"/>
        <pt x="-22" y="2" on="0"/>
        <pt x="-109" y="-7" on="0"/>
      </contour>
      <contour>
        <pt x="445" y="655" on="1"/>
        <pt x="445" y="646" on="0"/>
        <pt x="450" y="646" on="1"/>
        <pt x="521" y="640" on="0"/>
        <pt x="626" y="640" on="1"/>
        <pt x="702" y="640" on="0"/>
        <pt x="800" y="646" on="1"/>
        <pt x="809" y="658" on="1"/>
        <pt x="725" y="1144" on="1"/>
      </contour>
      <contour>
        <pt x="549" y="1835" on="1"/>
        <pt x="549" y="1864" on="0"/>
        <pt x="619" y="1896" on="0"/>
        <pt x="667" y="1896" on="1"/>
        <pt x="687" y="1896" on="0"/>
        <pt x="739" y="1889" on="0"/>
        <pt x="748" y="1883" on="1"/>
        <pt x="784" y="1862" on="0"/>
        <pt x="899" y="1763" on="0"/>
        <pt x="985" y="1677" on="0"/>
        <pt x="988" y="1668" on="1"/>
        <pt x="988" y="1657" on="0"/>
        <pt x="972" y="1641" on="1"/>
        <pt x="961" y="1641" on="0"/>
        <pt x="869" y="1668" on="0"/>
        <pt x="747" y="1711" on="0"/>
        <pt x="630" y="1760" on="0"/>
        <pt x="549" y="1815" on="0"/>
      </contour>
    </TTGlyph>
    <TTGlyph name="Aring" xMin="-139" yMin="-9" xMax="1275" yMax="1916">
      <contour>
        <pt x="-136" y="-9" on="1"/>
        <pt x="-139" y="-3" on="0"/>
        <pt x="-132" y="49" on="0"/>
        <pt x="-124" y="63" on="1"/>
        <pt x="-115" y="63" on="0"/>
        <pt x="-75" y="73" on="0"/>
        <pt x="-31" y="88" on="0"/>
        <pt x="11" y="111" on="0"/>
        <pt x="20" y="122" on="1"/>
        <pt x="78" y="193" on="0"/>
        <pt x="142" y="307" on="1"/>
        <pt x="786" y="1422" on="1"/>
        <pt x="800" y="1445" on="0"/>
        <pt x="864" y="1496" on="0"/>
        <pt x="879" y="1496" on="1"/>
        <pt x="895" y="1496" on="0"/>
        <pt x="904" y="1487" on="1"/>
        <pt x="1107" y="310" on="1"/>
        <pt x="1116" y="264" on="0"/>
        <pt x="1132" y="155" on="0"/>
        <pt x="1132" y="154" on="1"/>
        <pt x="1136" y="133" on="0"/>
        <pt x="1165" y="101" on="0"/>
        <pt x="1199" y="83" on="0"/>
        <pt x="1238" y="71" on="0"/>
        <pt x="1263" y="68" on="0"/>
        <pt x="1270" y="68" on="1"/>
        <pt x="1275" y="55" on="0"/>
        <pt x="1265" y="-1" on="0"/>
        <pt x="1259" y="-9" on="1"/>
        <pt x="1240" y="-8" on="0"/>
        <pt x="1060" y="7" on="0"/>
        <pt x="1006" y="7" on="1"/>
        <pt x="948" y="7" on="0"/>
        <pt x="730" y="-9" on="0"/>
        <pt x="723" y="-9" on="1"/>
        <pt x="716" y="-1" on="0"/>
        <pt x="729" y="64" on="0"/>
        <pt x="739" y="68" on="1"/>
        <pt x="768" y="68" on="0"/>
        <pt x="847" y="86" on="0"/>
        <pt x="866" y="102" on="1"/>
        <pt x="883" y="115" on="0"/>
        <pt x="886" y="136" on="1"/>
        <pt x="888" y="148" on="0"/>
        <pt x="879" y="239" on="0"/>
        <pt x="861" y="349" on="0"/>
        <pt x="843" y="457" on="0"/>
        <pt x="836" y="493" on="1"/>
        <pt x="829" y="529" on="1"/>
        <pt x="825" y="538" on="0"/>
        <pt x="818" y="538" on="1"/>
        <pt x="795" y="539" on="0"/>
        <pt x="734" y="540" on="0"/>
        <pt x="686" y="539" on="0"/>
        <pt x="627" y="538" on="0"/>
        <pt x="612" y="538" on="1"/>
        <pt x="477" y="538" on="0"/>
        <pt x="391" y="533" on="1"/>
        <pt x="388" y="533" on="0"/>
        <pt x="375" y="526" on="0"/>
        <pt x="375" y="524" on="1"/>
        <pt x="289" y="380" on="0"/>
        <pt x="244" y="294" on="1"/>
        <pt x="219" y="246" on="0"/>
        <pt x="180" y="154" on="0"/>
        <pt x="176" y="136" on="1"/>
        <pt x="172" y="116" on="0"/>
        <pt x="208" y="87" on="0"/>
        <pt x="263" y="74" on="0"/>
        <pt x="304" y="68" on="0"/>
        <pt x="314" y="68" on="1"/>
        <pt x="319" y="59" on="0"/>
        <pt x="310" y="0" on="0"/>
        <pt x="303" y="-9" on="1"/>
        <pt x="281" y="-7" on="0"/>
        <pt x="197" y="2" on="0"/>
        <pt x="132" y="7" on="0"/>
        <pt x="90" y="7" on="1"/>
        <pt x="47" y="7" on="0"/>
        <pt x="-22" y="2" on="0"/>
        <pt x="-109" y="-7" on="0"/>
      </contour>
      <contour>
        <pt x="445" y="655" on="1"/>
        <pt x="445" y="646" on="0"/>
        <pt x="450" y="646" on="1"/>
        <pt x="521" y="640" on="0"/>
        <pt x="626" y="640" on="1"/>
        <pt x="702" y="640" on="0"/>
        <pt x="800" y="646" on="1"/>
        <pt x="809" y="658" on="1"/>
        <pt x="725" y="1144" on="1"/>
      </contour>
      <contour>
        <pt x="725" y="1706" on="1"/>
        <pt x="742" y="1794" on="0"/>
        <pt x="883" y="1916" on="0"/>
        <pt x="965" y="1916" on="1"/>
        <pt x="1046" y="1916" on="0"/>
        <pt x="1136" y="1794" on="0"/>
        <pt x="1119" y="1706" on="1"/>
        <pt x="1102" y="1618" on="0"/>
        <pt x="963" y="1492" on="0"/>
        <pt x="800" y="1492" on="0"/>
        <pt x="708" y="1618" on="0"/>
      </contour>
      <contour>
        <pt x="819" y="1757" on="0"/>
        <pt x="799" y="1655" on="0"/>
        <pt x="852" y="1582" on="0"/>
        <pt x="899" y="1582" on="1"/>
        <pt x="946" y="1582" on="0"/>
        <pt x="1025" y="1655" on="0"/>
        <pt x="1035" y="1706" on="1"/>
        <pt x="1041" y="1732" on="0"/>
        <pt x="1031" y="1776" on="0"/>
        <pt x="1008" y="1809" on="0"/>
        <pt x="970" y="1828" on="0"/>
        <pt x="947" y="1828" on="1"/>
        <pt x="900" y="1828" on="0"/>
      </contour>
    </TTGlyph>
    <TTGlyph name="Atilde" xMin="-139" yMin="-9" xMax="1277" yMax="1835">
      <contour>
        <pt x="-136" y="-9" on="1"/>
        <pt x="-139" y="-3" on="0"/>
        <pt x="-132" y="49" on="0"/>
        <pt x="-124" y="63" on="1"/>
        <pt x="-115" y="63" on="0"/>
        <pt x="-75" y="73" on="0"/>
        <pt x="-31" y="88" on="0"/>
        <pt x="11" y="111" on="0"/>
        <pt x="20" y="122" on="1"/>
        <pt x="78" y="193" on="0"/>
        <pt x="142" y="307" on="1"/>
        <pt x="786" y="1422" on="1"/>
        <pt x="800" y="1445" on="0"/>
        <pt x="864" y="1496" on="0"/>
        <pt x="879" y="1496" on="1"/>
        <pt x="895" y="1496" on="0"/>
        <pt x="904" y="1487" on="1"/>
        <pt x="1107" y="310" on="1"/>
        <pt x="1116" y="264" on="0"/>
        <pt x="1132" y="155" on="0"/>
        <pt x="1132" y="154" on="1"/>
        <pt x="1136" y="133" on="0"/>
        <pt x="1165" y="101" on="0"/>
        <pt x="1199" y="83" on="0"/>
        <pt x="1238" y="71" on="0"/>
        <pt x="1263" y="68" on="0"/>
        <pt x="1270" y="68" on="1"/>
        <pt x="1275" y="55" on="0"/>
        <pt x="1265" y="-1" on="0"/>
        <pt x="1259" y="-9" on="1"/>
        <pt x="1240" y="-8" on="0"/>
        <pt x="1060" y="7" on="0"/>
        <pt x="1006" y="7" on="1"/>
        <pt x="948" y="7" on="0"/>
        <pt x="730" y="-9" on="0"/>
        <pt x="723" y="-9" on="1"/>
        <pt x="716" y="-1" on="0"/>
        <pt x="729" y="64" on="0"/>
        <pt x="739" y="68" on="1"/>
        <pt x="768" y="68" on="0"/>
        <pt x="847" y="86" on="0"/>
        <pt x="866" y="102" on="1"/>
        <pt x="883" y="115" on="0"/>
        <pt x="886" y="136" on="1"/>
        <pt x="888" y="148" on="0"/>
        <pt x="879" y="239" on="0"/>
        <pt x="861" y="349" on="0"/>
        <pt x="843" y="457" on="0"/>
        <pt x="836" y="493" on="1"/>
        <pt x="829" y="529" on="1"/>
        <pt x="825" y="538" on="0"/>
        <pt x="818" y="538" on="1"/>
        <pt x="795" y="539" on="0"/>
        <pt x="734" y="540" on="0"/>
        <pt x="686" y="539" on="0"/>
        <pt x="627" y="538" on="0"/>
        <pt x="612" y="538" on="1"/>
        <pt x="477" y="538" on="0"/>
        <pt x="391" y="533" on="1"/>
        <pt x="388" y="533" on="0"/>
        <pt x="375" y="526" on="0"/>
        <pt x="375" y="524" on="1"/>
        <pt x="289" y="380" on="0"/>
        <pt x="244" y="294" on="1"/>
        <pt x="219" y="246" on="0"/>
        <pt x="180" y="154" on="0"/>
        <pt x="176" y="136" on="1"/>
        <pt x="172" y="116" on="0"/>
        <pt x="208" y="87" on="0"/>
        <pt x="263" y="74" on="0"/>
        <pt x="304" y="68" on="0"/>
        <pt x="314" y="68" on="1"/>
        <pt x="319" y="59" on="0"/>
        <pt x="310" y="0" on="0"/>
        <pt x="303" y="-9" on="1"/>
        <pt x="281" y="-7" on="0"/>
        <pt x="197" y="2" on="0"/>
        <pt x="132" y="7" on="0"/>
        <pt x="90" y="7" on="1"/>
        <pt x="47" y="7" on="0"/>
        <pt x="-22" y="2" on="0"/>
        <pt x="-109" y="-7" on="0"/>
      </contour>
      <contour>
        <pt x="445" y="655" on="1"/>
        <pt x="445" y="646" on="0"/>
        <pt x="450" y="646" on="1"/>
        <pt x="521" y="640" on="0"/>
        <pt x="626" y="640" on="1"/>
        <pt x="702" y="640" on="0"/>
        <pt x="800" y="646" on="1"/>
        <pt x="809" y="658" on="1"/>
        <pt x="725" y="1144" on="1"/>
      </contour>
      <contour>
        <pt x="581" y="1668" on="1"/>
        <pt x="581" y="1711" on="0"/>
        <pt x="624" y="1758" on="1"/>
        <pt x="666" y="1801" on="0"/>
        <pt x="749" y="1835" on="0"/>
        <pt x="802" y="1835" on="1"/>
        <pt x="832" y="1835" on="0"/>
        <pt x="873" y="1831" on="0"/>
        <pt x="918" y="1817" on="0"/>
        <pt x="942" y="1803" on="1"/>
        <pt x="949" y="1800" on="0"/>
        <pt x="977" y="1784" on="0"/>
        <pt x="993" y="1776" on="0"/>
        <pt x="1019" y="1763" on="0"/>
        <pt x="1040" y="1756" on="0"/>
        <pt x="1067" y="1748" on="0"/>
        <pt x="1095" y="1745" on="0"/>
        <pt x="1110" y="1745" on="1"/>
        <pt x="1136" y="1745" on="0"/>
        <pt x="1189" y="1767" on="0"/>
        <pt x="1229" y="1801" on="0"/>
        <pt x="1251" y="1824" on="0"/>
        <pt x="1259" y="1835" on="1"/>
        <pt x="1277" y="1829" on="0"/>
        <pt x="1277" y="1808" on="1"/>
        <pt x="1277" y="1770" on="0"/>
        <pt x="1234" y="1722" on="1"/>
        <pt x="1190" y="1678" on="0"/>
        <pt x="1107" y="1641" on="0"/>
        <pt x="1055" y="1641" on="1"/>
        <pt x="1015" y="1641" on="0"/>
        <pt x="952" y="1657" on="0"/>
        <pt x="915" y="1677" on="1"/>
        <pt x="878" y="1697" on="0"/>
        <pt x="848" y="1712" on="0"/>
        <pt x="782" y="1731" on="0"/>
        <pt x="748" y="1731" on="1"/>
        <pt x="726" y="1731" on="0"/>
        <pt x="682" y="1715" on="0"/>
        <pt x="650" y="1694" on="0"/>
        <pt x="620" y="1666" on="0"/>
        <pt x="605" y="1649" on="0"/>
        <pt x="599" y="1641" on="1"/>
        <pt x="581" y="1647" on="0"/>
      </contour>
    </TTGlyph>
    <TTGlyph name="B" xMin="-18" yMin="-7" xMax="1222" yMax="1494">
      <contour>
        <pt x="-16" y="-7" on="1"/>
        <pt x="-18" y="-2" on="0"/>
        <pt x="-18" y="6" on="1"/>
        <pt x="-18" y="16" on="0"/>
        <pt x="-15" y="30" on="1"/>
        <pt x="-9" y="57" on="0"/>
        <pt x="0" y="68" on="1"/>
        <pt x="34" y="68" on="0"/>
        <pt x="138" y="86" on="0"/>
        <pt x="147" y="104" on="1"/>
        <pt x="151" y="111" on="0"/>
        <pt x="159" y="131" on="0"/>
        <pt x="165" y="147" on="0"/>
        <pt x="172" y="175" on="0"/>
        <pt x="176" y="191" on="0"/>
        <pt x="184" y="227" on="0"/>
        <pt x="187" y="243" on="0"/>
        <pt x="195" y="286" on="0"/>
        <pt x="197" y="294" on="1"/>
        <pt x="371" y="1193" on="1"/>
        <pt x="373" y="1204" on="0"/>
        <pt x="380" y="1241" on="0"/>
        <pt x="384" y="1262" on="0"/>
        <pt x="390" y="1294" on="0"/>
        <pt x="393" y="1314" on="0"/>
        <pt x="396" y="1339" on="0"/>
        <pt x="397" y="1357" on="0"/>
        <pt x="397" y="1376" on="0"/>
        <pt x="396" y="1383" on="1"/>
        <pt x="393" y="1401" on="0"/>
        <pt x="296" y="1419" on="0"/>
        <pt x="262" y="1419" on="1"/>
        <pt x="257" y="1429" on="0"/>
        <pt x="266" y="1484" on="0"/>
        <pt x="276" y="1494" on="1"/>
        <pt x="457" y="1485" on="0"/>
        <pt x="549" y="1485" on="1"/>
        <pt x="588" y="1485" on="0"/>
        <pt x="793" y="1492" on="0"/>
        <pt x="859" y="1492" on="1"/>
        <pt x="909" y="1492" on="0"/>
        <pt x="1003" y="1476" on="0"/>
        <pt x="1094" y="1442" on="0"/>
        <pt x="1163" y="1388" on="0"/>
        <pt x="1214" y="1311" on="0"/>
        <pt x="1220" y="1260" on="1"/>
        <pt x="1222" y="1241" on="0"/>
        <pt x="1222" y="1220" on="1"/>
        <pt x="1222" y="1185" on="0"/>
        <pt x="1216" y="1144" on="1"/>
        <pt x="1206" y="1093" on="0"/>
        <pt x="1153" y="999" on="0"/>
        <pt x="1091" y="931" on="0"/>
        <pt x="1017" y="874" on="0"/>
        <pt x="959" y="841" on="0"/>
        <pt x="936" y="832" on="1"/>
        <pt x="930" y="830" on="0"/>
        <pt x="924" y="824" on="0"/>
        <pt x="925" y="819" on="0"/>
        <pt x="927" y="818" on="1"/>
        <pt x="958" y="815" on="0"/>
        <pt x="1034" y="780" on="0"/>
        <pt x="1110" y="717" on="0"/>
        <pt x="1138" y="672" on="1"/>
        <pt x="1166" y="628" on="0"/>
        <pt x="1178" y="570" on="1"/>
        <pt x="1184" y="543" on="0"/>
        <pt x="1184" y="513" on="1"/>
        <pt x="1184" y="480" on="0"/>
        <pt x="1177" y="443" on="1"/>
        <pt x="1157" y="340" on="0"/>
        <pt x="1012" y="145" on="0"/>
        <pt x="915" y="86" on="1"/>
        <pt x="853" y="47" on="0"/>
        <pt x="696" y="5" on="0"/>
        <pt x="562" y="-7" on="0"/>
        <pt x="470" y="-7" on="1"/>
      </contour>
      <contour>
        <pt x="414" y="156" on="1"/>
        <pt x="413" y="146" on="0"/>
        <pt x="414" y="138" on="1"/>
        <pt x="414" y="119" on="0"/>
        <pt x="418" y="113" on="1"/>
        <pt x="430" y="92" on="0"/>
        <pt x="500" y="79" on="0"/>
        <pt x="560" y="79" on="1"/>
        <pt x="601" y="79" on="0"/>
        <pt x="678" y="96" on="0"/>
        <pt x="762" y="141" on="0"/>
        <pt x="829" y="211" on="0"/>
        <pt x="885" y="325" on="0"/>
        <pt x="899" y="398" on="1"/>
        <pt x="910" y="452" on="0"/>
        <pt x="911" y="500" on="1"/>
        <pt x="911" y="503" on="0"/>
        <pt x="911" y="507" on="1"/>
        <pt x="910" y="552" on="0"/>
        <pt x="898" y="596" on="1"/>
        <pt x="884" y="644" on="0"/>
        <pt x="827" y="711" on="0"/>
        <pt x="718" y="753" on="0"/>
        <pt x="642" y="753" on="1"/>
        <pt x="524" y="753" on="1"/>
        <pt x="427" y="258" on="1"/>
        <pt x="424" y="241" on="0"/>
        <pt x="416" y="190" on="0"/>
      </contour>
      <contour>
        <pt x="542" y="838" on="1"/>
        <pt x="703" y="838" on="1"/>
        <pt x="796" y="838" on="0"/>
        <pt x="933" y="986" on="0"/>
        <pt x="956" y="1101" on="1"/>
        <pt x="967" y="1156" on="0"/>
        <pt x="967" y="1202" on="1"/>
        <pt x="967" y="1281" on="0"/>
        <pt x="934" y="1329" on="1"/>
        <pt x="882" y="1406" on="0"/>
        <pt x="766" y="1406" on="1"/>
        <pt x="670" y="1406" on="0"/>
        <pt x="655" y="1381" on="1"/>
        <pt x="651" y="1373" on="0"/>
        <pt x="643" y="1351" on="0"/>
        <pt x="635" y="1316" on="0"/>
        <pt x="630" y="1292" on="0"/>
        <pt x="619" y="1239" on="0"/>
        <pt x="617" y="1227" on="1"/>
      </contour>
    </TTGlyph>
    <TTGlyph name="C" xMin="124" yMin="-18" xMax="1428" yMax="1507">
      <contour>
        <pt x="124" y="610" on="1"/>
        <pt x="124" y="748" on="0"/>
        <pt x="198" y="999" on="0"/>
        <pt x="326" y="1194" on="0"/>
        <pt x="499" y="1352" on="0"/>
        <pt x="700" y="1455" on="0"/>
        <pt x="808" y="1482" on="1"/>
        <pt x="909" y="1507" on="0"/>
        <pt x="1011" y="1507" on="1"/>
        <pt x="1019" y="1507" on="0"/>
        <pt x="1026" y="1507" on="1"/>
        <pt x="1170" y="1505" on="0"/>
        <pt x="1428" y="1444" on="1"/>
        <pt x="1425" y="1368" on="0"/>
        <pt x="1401" y="1116" on="1"/>
        <pt x="1400" y="1109" on="0"/>
        <pt x="1389" y="1097" on="0"/>
        <pt x="1373" y="1092" on="0"/>
        <pt x="1365" y="1092" on="1"/>
        <pt x="1338" y="1092" on="0"/>
        <pt x="1329" y="1105" on="1"/>
        <pt x="1329" y="1108" on="0"/>
        <pt x="1329" y="1111" on="1"/>
        <pt x="1330" y="1150" on="0"/>
        <pt x="1318" y="1190" on="1"/>
        <pt x="1306" y="1233" on="0"/>
        <pt x="1250" y="1315" on="0"/>
        <pt x="1172" y="1380" on="0"/>
        <pt x="1058" y="1419" on="0"/>
        <pt x="992" y="1419" on="1"/>
        <pt x="871" y="1419" on="0"/>
        <pt x="653" y="1305" on="0"/>
        <pt x="491" y="1100" on="0"/>
        <pt x="396" y="799" on="0"/>
        <pt x="396" y="622" on="1"/>
        <pt x="396" y="559" on="0"/>
        <pt x="414" y="436" on="0"/>
        <pt x="453" y="310" on="0"/>
        <pt x="521" y="204" on="0"/>
        <pt x="611" y="120" on="0"/>
        <pt x="739" y="72" on="0"/>
        <pt x="816" y="72" on="1"/>
        <pt x="900" y="72" on="0"/>
        <pt x="1050" y="130" on="0"/>
        <pt x="1107" y="179" on="1"/>
        <pt x="1149" y="213" on="0"/>
        <pt x="1232" y="320" on="0"/>
        <pt x="1277" y="396" on="0"/>
        <pt x="1290" y="425" on="1"/>
        <pt x="1312" y="425" on="0"/>
        <pt x="1350" y="410" on="0"/>
        <pt x="1356" y="402" on="1"/>
        <pt x="1350" y="370" on="0"/>
        <pt x="1219" y="92" on="0"/>
        <pt x="1198" y="77" on="1"/>
        <pt x="1104" y="26" on="0"/>
        <pt x="898" y="-18" on="0"/>
        <pt x="753" y="-18" on="1"/>
        <pt x="635" y="-18" on="0"/>
        <pt x="431" y="51" on="0"/>
        <pt x="283" y="172" on="0"/>
        <pt x="177" y="331" on="0"/>
        <pt x="124" y="514" on="0"/>
      </contour>
    </TTGlyph>
    <TTGlyph name="Ccedilla" xMin="124" yMin="-346" xMax="1428" yMax="1509">
      <contour>
        <pt x="124" y="610" on="1"/>
        <pt x="124" y="748" on="0"/>
        <pt x="198" y="999" on="0"/>
        <pt x="326" y="1194" on="0"/>
        <pt x="499" y="1352" on="0"/>
        <pt x="700" y="1455" on="0"/>
        <pt x="917" y="1509" on="0"/>
        <pt x="1026" y="1507" on="1"/>
        <pt x="1170" y="1505" on="0"/>
        <pt x="1428" y="1444" on="1"/>
        <pt x="1425" y="1368" on="0"/>
        <pt x="1401" y="1116" on="1"/>
        <pt x="1400" y="1109" on="0"/>
        <pt x="1389" y="1097" on="0"/>
        <pt x="1373" y="1092" on="0"/>
        <pt x="1365" y="1092" on="1"/>
        <pt x="1338" y="1092" on="0"/>
        <pt x="1329" y="1105" on="1"/>
        <pt x="1330" y="1147" on="0"/>
        <pt x="1305" y="1233" on="0"/>
        <pt x="1250" y="1315" on="0"/>
        <pt x="1172" y="1380" on="0"/>
        <pt x="1058" y="1419" on="0"/>
        <pt x="992" y="1419" on="1"/>
        <pt x="871" y="1419" on="0"/>
        <pt x="653" y="1305" on="0"/>
        <pt x="491" y="1100" on="0"/>
        <pt x="396" y="799" on="0"/>
        <pt x="396" y="622" on="1"/>
        <pt x="396" y="559" on="0"/>
        <pt x="414" y="436" on="0"/>
        <pt x="453" y="310" on="0"/>
        <pt x="521" y="204" on="0"/>
        <pt x="611" y="120" on="0"/>
        <pt x="739" y="72" on="0"/>
        <pt x="816" y="72" on="1"/>
        <pt x="900" y="72" on="0"/>
        <pt x="1050" y="130" on="0"/>
        <pt x="1107" y="179" on="1"/>
        <pt x="1149" y="213" on="0"/>
        <pt x="1232" y="320" on="0"/>
        <pt x="1277" y="396" on="0"/>
        <pt x="1290" y="425" on="1"/>
        <pt x="1312" y="425" on="0"/>
        <pt x="1350" y="410" on="0"/>
        <pt x="1356" y="402" on="1"/>
        <pt x="1350" y="370" on="0"/>
        <pt x="1219" y="92" on="0"/>
        <pt x="1198" y="77" on="1"/>
        <pt x="1104" y="26" on="0"/>
        <pt x="898" y="-18" on="0"/>
        <pt x="753" y="-18" on="1"/>
        <pt x="635" y="-18" on="0"/>
        <pt x="431" y="51" on="0"/>
        <pt x="283" y="172" on="0"/>
        <pt x="177" y="331" on="0"/>
        <pt x="124" y="514" on="0"/>
      </contour>
      <contour>
        <pt x="540" y="-303" on="1"/>
        <pt x="540" y="-278" on="0"/>
        <pt x="566" y="-251" on="0"/>
        <pt x="579" y="-251" on="1"/>
        <pt x="594" y="-251" on="0"/>
        <pt x="649" y="-292" on="0"/>
        <pt x="676" y="-292" on="1"/>
        <pt x="720" y="-292" on="0"/>
        <pt x="780" y="-241" on="0"/>
        <pt x="780" y="-201" on="1"/>
        <pt x="780" y="-168" on="0"/>
        <pt x="742" y="-131" on="0"/>
        <pt x="719" y="-131" on="1"/>
        <pt x="697" y="-131" on="0"/>
        <pt x="658" y="-147" on="1"/>
        <pt x="654" y="-147" on="0"/>
        <pt x="633" y="-128" on="0"/>
        <pt x="633" y="-122" on="1"/>
        <pt x="633" y="-118" on="0"/>
        <pt x="655" y="-91" on="0"/>
        <pt x="707" y="-30" on="0"/>
        <pt x="730" y="2" on="1"/>
        <pt x="784" y="2" on="1"/>
        <pt x="737" y="-52" on="1"/>
        <pt x="780" y="-52" on="1"/>
        <pt x="820" y="-52" on="0"/>
        <pt x="879" y="-107" on="0"/>
        <pt x="879" y="-147" on="1"/>
        <pt x="879" y="-224" on="0"/>
        <pt x="731" y="-346" on="0"/>
        <pt x="626" y="-346" on="1"/>
        <pt x="607" y="-346" on="0"/>
        <pt x="556" y="-331" on="0"/>
        <pt x="545" y="-323" on="1"/>
        <pt x="540" y="-314" on="0"/>
      </contour>
    </TTGlyph>
    <TTGlyph name="D" xMin="-18" yMin="-7" xMax="1521" yMax="1494">
      <contour>
        <pt x="-16" y="-7" on="1"/>
        <pt x="-18" y="-2" on="0"/>
        <pt x="-18" y="6" on="1"/>
        <pt x="-18" y="16" on="0"/>
        <pt x="-15" y="30" on="1"/>
        <pt x="-9" y="57" on="0"/>
        <pt x="0" y="68" on="1"/>
        <pt x="34" y="68" on="0"/>
        <pt x="138" y="86" on="0"/>
        <pt x="147" y="104" on="1"/>
        <pt x="151" y="111" on="0"/>
        <pt x="159" y="131" on="0"/>
        <pt x="165" y="147" on="0"/>
        <pt x="172" y="175" on="0"/>
        <pt x="176" y="191" on="0"/>
        <pt x="184" y="227" on="0"/>
        <pt x="187" y="243" on="0"/>
        <pt x="195" y="286" on="0"/>
        <pt x="197" y="294" on="1"/>
        <pt x="371" y="1193" on="1"/>
        <pt x="373" y="1204" on="0"/>
        <pt x="380" y="1241" on="0"/>
        <pt x="384" y="1262" on="0"/>
        <pt x="390" y="1294" on="0"/>
        <pt x="393" y="1314" on="0"/>
        <pt x="396" y="1339" on="0"/>
        <pt x="397" y="1357" on="0"/>
        <pt x="397" y="1376" on="0"/>
        <pt x="396" y="1383" on="1"/>
        <pt x="393" y="1401" on="0"/>
        <pt x="296" y="1419" on="0"/>
        <pt x="262" y="1419" on="1"/>
        <pt x="257" y="1429" on="0"/>
        <pt x="266" y="1484" on="0"/>
        <pt x="276" y="1494" on="1"/>
        <pt x="457" y="1485" on="0"/>
        <pt x="549" y="1485" on="1"/>
        <pt x="589" y="1485" on="0"/>
        <pt x="806" y="1489" on="0"/>
        <pt x="863" y="1489" on="1"/>
        <pt x="983" y="1489" on="0"/>
        <pt x="1187" y="1439" on="0"/>
        <pt x="1341" y="1345" on="0"/>
        <pt x="1454" y="1211" on="0"/>
        <pt x="1512" y="1044" on="0"/>
        <pt x="1519" y="946" on="1"/>
        <pt x="1521" y="923" on="0"/>
        <pt x="1520" y="899" on="1"/>
        <pt x="1520" y="821" on="0"/>
        <pt x="1503" y="737" on="1"/>
        <pt x="1470" y="565" on="0"/>
        <pt x="1313" y="291" on="0"/>
        <pt x="1076" y="97" on="0"/>
        <pt x="749" y="-7" on="0"/>
        <pt x="551" y="-7" on="1"/>
      </contour>
      <contour>
        <pt x="418" y="122" on="1"/>
        <pt x="425" y="103" on="0"/>
        <pt x="509" y="79" on="0"/>
        <pt x="560" y="79" on="1"/>
        <pt x="688" y="79" on="0"/>
        <pt x="900" y="153" on="0"/>
        <pt x="1073" y="304" on="0"/>
        <pt x="1195" y="547" on="0"/>
        <pt x="1227" y="710" on="1"/>
        <pt x="1249" y="830" on="0"/>
        <pt x="1249" y="929" on="1"/>
        <pt x="1249" y="978" on="0"/>
        <pt x="1244" y="1020" on="1"/>
        <pt x="1228" y="1152" on="0"/>
        <pt x="1105" y="1322" on="0"/>
        <pt x="914" y="1406" on="0"/>
        <pt x="789" y="1406" on="1"/>
        <pt x="749" y="1406" on="0"/>
        <pt x="667" y="1393" on="0"/>
        <pt x="658" y="1379" on="1"/>
        <pt x="654" y="1372" on="0"/>
        <pt x="647" y="1356" on="0"/>
        <pt x="641" y="1335" on="0"/>
        <pt x="636" y="1318" on="0"/>
        <pt x="630" y="1290" on="0"/>
        <pt x="626" y="1272" on="0"/>
        <pt x="619" y="1236" on="0"/>
        <pt x="617" y="1227" on="1"/>
        <pt x="436" y="294" on="1"/>
        <pt x="415" y="191" on="0"/>
        <pt x="415" y="146" on="1"/>
        <pt x="415" y="130" on="0"/>
      </contour>
    </TTGlyph>
    <TTGlyph name="E" xMin="-17" yMin="-7" xMax="1234" yMax="1501">
      <contour>
        <pt x="-14" y="30" on="1"/>
        <pt x="-10" y="58" on="0"/>
        <pt x="0" y="68" on="1"/>
        <pt x="35" y="68" on="0"/>
        <pt x="140" y="86" on="0"/>
        <pt x="149" y="104" on="1"/>
        <pt x="153" y="111" on="0"/>
        <pt x="160" y="126" on="0"/>
        <pt x="166" y="145" on="0"/>
        <pt x="171" y="161" on="0"/>
        <pt x="177" y="186" on="0"/>
        <pt x="181" y="202" on="0"/>
        <pt x="187" y="233" on="0"/>
        <pt x="190" y="250" on="0"/>
        <pt x="197" y="285" on="0"/>
        <pt x="199" y="294" on="1"/>
        <pt x="373" y="1193" on="1"/>
        <pt x="379" y="1223" on="0"/>
        <pt x="383" y="1245" on="0"/>
        <pt x="391" y="1293" on="0"/>
        <pt x="394" y="1316" on="0"/>
        <pt x="398" y="1350" on="0"/>
        <pt x="397" y="1373" on="0"/>
        <pt x="396" y="1383" on="1"/>
        <pt x="393" y="1401" on="0"/>
        <pt x="296" y="1419" on="0"/>
        <pt x="262" y="1419" on="1"/>
        <pt x="257" y="1430" on="0"/>
        <pt x="268" y="1484" on="0"/>
        <pt x="278" y="1494" on="1"/>
        <pt x="504" y="1483" on="0"/>
        <pt x="551" y="1483" on="1"/>
        <pt x="618" y="1483" on="0"/>
        <pt x="1142" y="1501" on="0"/>
        <pt x="1234" y="1501" on="1"/>
        <pt x="1231" y="1450" on="0"/>
        <pt x="1231" y="1341" on="0"/>
        <pt x="1234" y="1213" on="0"/>
        <pt x="1234" y="1180" on="1"/>
        <pt x="1223" y="1168" on="0"/>
        <pt x="1186" y="1168" on="1"/>
        <pt x="1159" y="1168" on="0"/>
        <pt x="1159" y="1184" on="1"/>
        <pt x="1148" y="1299" on="0"/>
        <pt x="1055" y="1401" on="0"/>
        <pt x="965" y="1401" on="1"/>
        <pt x="786" y="1401" on="1"/>
        <pt x="673" y="1401" on="0"/>
        <pt x="658" y="1376" on="1"/>
        <pt x="651" y="1365" on="0"/>
        <pt x="640" y="1329" on="0"/>
        <pt x="634" y="1300" on="0"/>
        <pt x="623" y="1242" on="0"/>
        <pt x="619" y="1227" on="1"/>
        <pt x="538" y="818" on="1"/>
        <pt x="536" y="809" on="0"/>
        <pt x="589" y="798" on="0"/>
        <pt x="626" y="798" on="1"/>
        <pt x="737" y="798" on="1"/>
        <pt x="769" y="798" on="0"/>
        <pt x="813" y="799" on="0"/>
        <pt x="855" y="808" on="0"/>
        <pt x="880" y="815" on="0"/>
        <pt x="908" y="837" on="0"/>
        <pt x="924" y="854" on="0"/>
        <pt x="947" y="894" on="0"/>
        <pt x="962" y="927" on="0"/>
        <pt x="976" y="958" on="1"/>
        <pt x="984" y="976" on="0"/>
        <pt x="1008" y="976" on="1"/>
        <pt x="1033" y="976" on="0"/>
        <pt x="1042" y="963" on="1"/>
        <pt x="960" y="533" on="1"/>
        <pt x="951" y="524" on="0"/>
        <pt x="922" y="524" on="1"/>
        <pt x="895" y="524" on="0"/>
        <pt x="895" y="542" on="1"/>
        <pt x="893" y="598" on="0"/>
        <pt x="880" y="661" on="0"/>
        <pt x="868" y="680" on="0"/>
        <pt x="857" y="687" on="1"/>
        <pt x="830" y="703" on="0"/>
        <pt x="669" y="703" on="1"/>
        <pt x="516" y="703" on="0"/>
        <pt x="511" y="678" on="1"/>
        <pt x="436" y="289" on="1"/>
        <pt x="415" y="187" on="0"/>
        <pt x="415" y="145" on="1"/>
        <pt x="415" y="130" on="0"/>
        <pt x="418" y="122" on="1"/>
        <pt x="428" y="103" on="0"/>
        <pt x="493" y="90" on="0"/>
        <pt x="554" y="90" on="1"/>
        <pt x="673" y="90" on="1"/>
        <pt x="737" y="90" on="0"/>
        <pt x="873" y="123" on="0"/>
        <pt x="918" y="154" on="1"/>
        <pt x="1000" y="214" on="0"/>
        <pt x="1083" y="375" on="1"/>
        <pt x="1089" y="389" on="0"/>
        <pt x="1116" y="389" on="1"/>
        <pt x="1132" y="389" on="0"/>
        <pt x="1167" y="380" on="0"/>
        <pt x="1171" y="375" on="1"/>
        <pt x="1158" y="350" on="0"/>
        <pt x="1085" y="212" on="0"/>
        <pt x="1044" y="133" on="0"/>
        <pt x="995" y="28" on="0"/>
        <pt x="983" y="-7" on="1"/>
        <pt x="929" y="-7" on="0"/>
        <pt x="416" y="-2" on="0"/>
        <pt x="258" y="-2" on="1"/>
        <pt x="205" y="-2" on="0"/>
        <pt x="93" y="-5" on="0"/>
        <pt x="7" y="-7" on="0"/>
        <pt x="-14" y="-7" on="1"/>
        <pt x="-17" y="-2" on="0"/>
        <pt x="-17" y="8" on="1"/>
        <pt x="-16" y="17" on="0"/>
      </contour>
    </TTGlyph>
    <TTGlyph name="Eacute" xMin="-19" yMin="-7" xMax="1234" yMax="1896">
      <contour>
        <pt x="-19" y="3" on="0"/>
        <pt x="-10" y="58" on="0"/>
        <pt x="0" y="68" on="1"/>
        <pt x="35" y="68" on="0"/>
        <pt x="140" y="86" on="0"/>
        <pt x="149" y="104" on="1"/>
        <pt x="153" y="111" on="0"/>
        <pt x="160" y="126" on="0"/>
        <pt x="166" y="145" on="0"/>
        <pt x="171" y="161" on="0"/>
        <pt x="177" y="186" on="0"/>
        <pt x="181" y="202" on="0"/>
        <pt x="187" y="233" on="0"/>
        <pt x="190" y="250" on="0"/>
        <pt x="197" y="285" on="0"/>
        <pt x="199" y="294" on="1"/>
        <pt x="373" y="1193" on="1"/>
        <pt x="379" y="1223" on="0"/>
        <pt x="383" y="1245" on="0"/>
        <pt x="391" y="1293" on="0"/>
        <pt x="394" y="1316" on="0"/>
        <pt x="398" y="1350" on="0"/>
        <pt x="397" y="1373" on="0"/>
        <pt x="396" y="1383" on="1"/>
        <pt x="393" y="1401" on="0"/>
        <pt x="296" y="1419" on="0"/>
        <pt x="262" y="1419" on="1"/>
        <pt x="257" y="1430" on="0"/>
        <pt x="268" y="1484" on="0"/>
        <pt x="278" y="1494" on="1"/>
        <pt x="504" y="1483" on="0"/>
        <pt x="551" y="1483" on="1"/>
        <pt x="618" y="1483" on="0"/>
        <pt x="1142" y="1501" on="0"/>
        <pt x="1234" y="1501" on="1"/>
        <pt x="1231" y="1450" on="0"/>
        <pt x="1231" y="1341" on="0"/>
        <pt x="1234" y="1213" on="0"/>
        <pt x="1234" y="1180" on="1"/>
        <pt x="1223" y="1168" on="0"/>
        <pt x="1186" y="1168" on="1"/>
        <pt x="1159" y="1168" on="0"/>
        <pt x="1159" y="1184" on="1"/>
        <pt x="1148" y="1299" on="0"/>
        <pt x="1055" y="1401" on="0"/>
        <pt x="965" y="1401" on="1"/>
        <pt x="786" y="1401" on="1"/>
        <pt x="673" y="1401" on="0"/>
        <pt x="658" y="1376" on="1"/>
        <pt x="651" y="1365" on="0"/>
        <pt x="640" y="1329" on="0"/>
        <pt x="634" y="1300" on="0"/>
        <pt x="623" y="1242" on="0"/>
        <pt x="619" y="1227" on="1"/>
        <pt x="538" y="818" on="1"/>
        <pt x="536" y="809" on="0"/>
        <pt x="589" y="798" on="0"/>
        <pt x="626" y="798" on="1"/>
        <pt x="737" y="798" on="1"/>
        <pt x="769" y="798" on="0"/>
        <pt x="813" y="799" on="0"/>
        <pt x="855" y="808" on="0"/>
        <pt x="880" y="815" on="0"/>
        <pt x="908" y="837" on="0"/>
        <pt x="924" y="854" on="0"/>
        <pt x="947" y="894" on="0"/>
        <pt x="962" y="927" on="0"/>
        <pt x="976" y="958" on="1"/>
        <pt x="984" y="976" on="0"/>
        <pt x="1008" y="976" on="1"/>
        <pt x="1033" y="976" on="0"/>
        <pt x="1042" y="963" on="1"/>
        <pt x="960" y="533" on="1"/>
        <pt x="951" y="524" on="0"/>
        <pt x="922" y="524" on="1"/>
        <pt x="895" y="524" on="0"/>
        <pt x="895" y="542" on="1"/>
        <pt x="893" y="598" on="0"/>
        <pt x="880" y="661" on="0"/>
        <pt x="868" y="680" on="0"/>
        <pt x="857" y="687" on="1"/>
        <pt x="830" y="703" on="0"/>
        <pt x="669" y="703" on="1"/>
        <pt x="516" y="703" on="0"/>
        <pt x="511" y="678" on="1"/>
        <pt x="436" y="289" on="1"/>
        <pt x="408" y="151" on="0"/>
        <pt x="418" y="122" on="1"/>
        <pt x="428" y="103" on="0"/>
        <pt x="493" y="90" on="0"/>
        <pt x="554" y="90" on="1"/>
        <pt x="673" y="90" on="1"/>
        <pt x="737" y="90" on="0"/>
        <pt x="873" y="123" on="0"/>
        <pt x="918" y="154" on="1"/>
        <pt x="1000" y="214" on="0"/>
        <pt x="1083" y="375" on="1"/>
        <pt x="1089" y="389" on="0"/>
        <pt x="1116" y="389" on="1"/>
        <pt x="1132" y="389" on="0"/>
        <pt x="1167" y="380" on="0"/>
        <pt x="1171" y="375" on="1"/>
        <pt x="1158" y="350" on="0"/>
        <pt x="1085" y="212" on="0"/>
        <pt x="1044" y="133" on="0"/>
        <pt x="995" y="28" on="0"/>
        <pt x="983" y="-7" on="1"/>
        <pt x="929" y="-7" on="0"/>
        <pt x="416" y="-2" on="0"/>
        <pt x="258" y="-2" on="1"/>
        <pt x="205" y="-2" on="0"/>
        <pt x="93" y="-5" on="0"/>
        <pt x="7" y="-7" on="0"/>
        <pt x="-14" y="-7" on="1"/>
      </contour>
      <contour>
        <pt x="653" y="1668" on="1"/>
        <pt x="657" y="1683" on="0"/>
        <pt x="839" y="1851" on="0"/>
        <pt x="893" y="1883" on="1"/>
        <pt x="902" y="1889" on="0"/>
        <pt x="954" y="1896" on="0"/>
        <pt x="974" y="1896" on="1"/>
        <pt x="1005" y="1896" on="0"/>
        <pt x="1057" y="1883" on="0"/>
        <pt x="1092" y="1855" on="0"/>
        <pt x="1092" y="1835" on="1"/>
        <pt x="1092" y="1810" on="0"/>
        <pt x="970" y="1740" on="0"/>
        <pt x="817" y="1683" on="0"/>
        <pt x="686" y="1642" on="0"/>
        <pt x="671" y="1641" on="1"/>
        <pt x="653" y="1659" on="0"/>
      </contour>
    </TTGlyph>
    <TTGlyph name="Ecircumflex" xMin="-19" yMin="-7" xMax="1234" yMax="1944">
      <contour>
        <pt x="-19" y="3" on="0"/>
        <pt x="-10" y="58" on="0"/>
        <pt x="0" y="68" on="1"/>
        <pt x="35" y="68" on="0"/>
        <pt x="140" y="86" on="0"/>
        <pt x="149" y="104" on="1"/>
        <pt x="153" y="111" on="0"/>
        <pt x="160" y="126" on="0"/>
        <pt x="166" y="145" on="0"/>
        <pt x="171" y="161" on="0"/>
        <pt x="177" y="186" on="0"/>
        <pt x="181" y="202" on="0"/>
        <pt x="187" y="233" on="0"/>
        <pt x="190" y="250" on="0"/>
        <pt x="197" y="285" on="0"/>
        <pt x="199" y="294" on="1"/>
        <pt x="373" y="1193" on="1"/>
        <pt x="379" y="1223" on="0"/>
        <pt x="383" y="1245" on="0"/>
        <pt x="391" y="1293" on="0"/>
        <pt x="394" y="1316" on="0"/>
        <pt x="398" y="1350" on="0"/>
        <pt x="397" y="1373" on="0"/>
        <pt x="396" y="1383" on="1"/>
        <pt x="393" y="1401" on="0"/>
        <pt x="296" y="1419" on="0"/>
        <pt x="262" y="1419" on="1"/>
        <pt x="257" y="1430" on="0"/>
        <pt x="268" y="1484" on="0"/>
        <pt x="278" y="1494" on="1"/>
        <pt x="504" y="1483" on="0"/>
        <pt x="551" y="1483" on="1"/>
        <pt x="618" y="1483" on="0"/>
        <pt x="1142" y="1501" on="0"/>
        <pt x="1234" y="1501" on="1"/>
        <pt x="1231" y="1450" on="0"/>
        <pt x="1231" y="1341" on="0"/>
        <pt x="1234" y="1213" on="0"/>
        <pt x="1234" y="1180" on="1"/>
        <pt x="1223" y="1168" on="0"/>
        <pt x="1186" y="1168" on="1"/>
        <pt x="1159" y="1168" on="0"/>
        <pt x="1159" y="1184" on="1"/>
        <pt x="1148" y="1299" on="0"/>
        <pt x="1055" y="1401" on="0"/>
        <pt x="965" y="1401" on="1"/>
        <pt x="786" y="1401" on="1"/>
        <pt x="673" y="1401" on="0"/>
        <pt x="658" y="1376" on="1"/>
        <pt x="651" y="1365" on="0"/>
        <pt x="640" y="1329" on="0"/>
        <pt x="634" y="1300" on="0"/>
        <pt x="623" y="1242" on="0"/>
        <pt x="619" y="1227" on="1"/>
        <pt x="538" y="818" on="1"/>
        <pt x="536" y="809" on="0"/>
        <pt x="589" y="798" on="0"/>
        <pt x="626" y="798" on="1"/>
        <pt x="737" y="798" on="1"/>
        <pt x="769" y="798" on="0"/>
        <pt x="813" y="799" on="0"/>
        <pt x="855" y="808" on="0"/>
        <pt x="880" y="815" on="0"/>
        <pt x="908" y="837" on="0"/>
        <pt x="924" y="854" on="0"/>
        <pt x="947" y="894" on="0"/>
        <pt x="962" y="927" on="0"/>
        <pt x="976" y="958" on="1"/>
        <pt x="984" y="976" on="0"/>
        <pt x="1008" y="976" on="1"/>
        <pt x="1033" y="976" on="0"/>
        <pt x="1042" y="963" on="1"/>
        <pt x="960" y="533" on="1"/>
        <pt x="951" y="524" on="0"/>
        <pt x="922" y="524" on="1"/>
        <pt x="895" y="524" on="0"/>
        <pt x="895" y="542" on="1"/>
        <pt x="893" y="598" on="0"/>
        <pt x="880" y="661" on="0"/>
        <pt x="868" y="680" on="0"/>
        <pt x="857" y="687" on="1"/>
        <pt x="830" y="703" on="0"/>
        <pt x="669" y="703" on="1"/>
        <pt x="516" y="703" on="0"/>
        <pt x="511" y="678" on="1"/>
        <pt x="436" y="289" on="1"/>
        <pt x="408" y="151" on="0"/>
        <pt x="418" y="122" on="1"/>
        <pt x="428" y="103" on="0"/>
        <pt x="493" y="90" on="0"/>
        <pt x="554" y="90" on="1"/>
        <pt x="673" y="90" on="1"/>
        <pt x="737" y="90" on="0"/>
        <pt x="873" y="123" on="0"/>
        <pt x="918" y="154" on="1"/>
        <pt x="1000" y="214" on="0"/>
        <pt x="1083" y="375" on="1"/>
        <pt x="1089" y="389" on="0"/>
        <pt x="1116" y="389" on="1"/>
        <pt x="1132" y="389" on="0"/>
        <pt x="1167" y="380" on="0"/>
        <pt x="1171" y="375" on="1"/>
        <pt x="1158" y="350" on="0"/>
        <pt x="1085" y="212" on="0"/>
        <pt x="1044" y="133" on="0"/>
        <pt x="995" y="28" on="0"/>
        <pt x="983" y="-7" on="1"/>
        <pt x="929" y="-7" on="0"/>
        <pt x="416" y="-2" on="0"/>
        <pt x="258" y="-2" on="1"/>
        <pt x="205" y="-2" on="0"/>
        <pt x="93" y="-5" on="0"/>
        <pt x="7" y="-7" on="0"/>
        <pt x="-14" y="-7" on="1"/>
      </contour>
      <contour>
        <pt x="531" y="1672" on="1"/>
        <pt x="738" y="1834" on="0"/>
        <pt x="836" y="1926" on="1"/>
        <pt x="858" y="1944" on="0"/>
        <pt x="868" y="1944" on="1"/>
        <pt x="882" y="1944" on="0"/>
        <pt x="893" y="1926" on="1"/>
        <pt x="959" y="1823" on="0"/>
        <pt x="1087" y="1672" on="1"/>
        <pt x="1084" y="1650" on="0"/>
        <pt x="1058" y="1645" on="1"/>
        <pt x="856" y="1763" on="0"/>
        <pt x="834" y="1779" on="1"/>
        <pt x="817" y="1769" on="0"/>
        <pt x="715" y="1720" on="0"/>
        <pt x="564" y="1651" on="0"/>
        <pt x="551" y="1645" on="1"/>
        <pt x="542" y="1647" on="0"/>
        <pt x="529" y="1663" on="0"/>
      </contour>
    </TTGlyph>
    <TTGlyph name="Edieresis" xMin="-19" yMin="-7" xMax="1234" yMax="1910">
      <contour>
        <pt x="-19" y="3" on="0"/>
        <pt x="-10" y="58" on="0"/>
        <pt x="0" y="68" on="1"/>
        <pt x="35" y="68" on="0"/>
        <pt x="140" y="86" on="0"/>
        <pt x="149" y="104" on="1"/>
        <pt x="153" y="111" on="0"/>
        <pt x="160" y="126" on="0"/>
        <pt x="166" y="145" on="0"/>
        <pt x="171" y="161" on="0"/>
        <pt x="177" y="186" on="0"/>
        <pt x="181" y="202" on="0"/>
        <pt x="187" y="233" on="0"/>
        <pt x="190" y="250" on="0"/>
        <pt x="197" y="285" on="0"/>
        <pt x="199" y="294" on="1"/>
        <pt x="373" y="1193" on="1"/>
        <pt x="379" y="1223" on="0"/>
        <pt x="383" y="1245" on="0"/>
        <pt x="391" y="1293" on="0"/>
        <pt x="394" y="1316" on="0"/>
        <pt x="398" y="1350" on="0"/>
        <pt x="397" y="1373" on="0"/>
        <pt x="396" y="1383" on="1"/>
        <pt x="393" y="1401" on="0"/>
        <pt x="296" y="1419" on="0"/>
        <pt x="262" y="1419" on="1"/>
        <pt x="257" y="1430" on="0"/>
        <pt x="268" y="1484" on="0"/>
        <pt x="278" y="1494" on="1"/>
        <pt x="504" y="1483" on="0"/>
        <pt x="551" y="1483" on="1"/>
        <pt x="618" y="1483" on="0"/>
        <pt x="1142" y="1501" on="0"/>
        <pt x="1234" y="1501" on="1"/>
        <pt x="1231" y="1450" on="0"/>
        <pt x="1231" y="1341" on="0"/>
        <pt x="1234" y="1213" on="0"/>
        <pt x="1234" y="1180" on="1"/>
        <pt x="1223" y="1168" on="0"/>
        <pt x="1186" y="1168" on="1"/>
        <pt x="1159" y="1168" on="0"/>
        <pt x="1159" y="1184" on="1"/>
        <pt x="1148" y="1299" on="0"/>
        <pt x="1055" y="1401" on="0"/>
        <pt x="965" y="1401" on="1"/>
        <pt x="786" y="1401" on="1"/>
        <pt x="673" y="1401" on="0"/>
        <pt x="658" y="1376" on="1"/>
        <pt x="651" y="1365" on="0"/>
        <pt x="640" y="1329" on="0"/>
        <pt x="634" y="1300" on="0"/>
        <pt x="623" y="1242" on="0"/>
        <pt x="619" y="1227" on="1"/>
        <pt x="538" y="818" on="1"/>
        <pt x="536" y="809" on="0"/>
        <pt x="589" y="798" on="0"/>
        <pt x="626" y="798" on="1"/>
        <pt x="737" y="798" on="1"/>
        <pt x="769" y="798" on="0"/>
        <pt x="813" y="799" on="0"/>
        <pt x="855" y="808" on="0"/>
        <pt x="880" y="815" on="0"/>
        <pt x="908" y="837" on="0"/>
        <pt x="924" y="854" on="0"/>
        <pt x="947" y="894" on="0"/>
        <pt x="962" y="927" on="0"/>
        <pt x="976" y="958" on="1"/>
        <pt x="984" y="976" on="0"/>
        <pt x="1008" y="976" on="1"/>
        <pt x="1033" y="976" on="0"/>
        <pt x="1042" y="963" on="1"/>
        <pt x="960" y="533" on="1"/>
        <pt x="951" y="524" on="0"/>
        <pt x="922" y="524" on="1"/>
        <pt x="895" y="524" on="0"/>
        <pt x="895" y="542" on="1"/>
        <pt x="893" y="598" on="0"/>
        <pt x="880" y="661" on="0"/>
        <pt x="868" y="680" on="0"/>
        <pt x="857" y="687" on="1"/>
        <pt x="830" y="703" on="0"/>
        <pt x="669" y="703" on="1"/>
        <pt x="516" y="703" on="0"/>
        <pt x="511" y="678" on="1"/>
        <pt x="436" y="289" on="1"/>
        <pt x="408" y="151" on="0"/>
        <pt x="418" y="122" on="1"/>
        <pt x="428" y="103" on="0"/>
        <pt x="493" y="90" on="0"/>
        <pt x="554" y="90" on="1"/>
        <pt x="673" y="90" on="1"/>
        <pt x="737" y="90" on="0"/>
        <pt x="873" y="123" on="0"/>
        <pt x="918" y="154" on="1"/>
        <pt x="1000" y="214" on="0"/>
        <pt x="1083" y="375" on="1"/>
        <pt x="1089" y="389" on="0"/>
        <pt x="1116" y="389" on="1"/>
        <pt x="1132" y="389" on="0"/>
        <pt x="1167" y="380" on="0"/>
        <pt x="1171" y="375" on="1"/>
        <pt x="1158" y="350" on="0"/>
        <pt x="1085" y="212" on="0"/>
        <pt x="1044" y="133" on="0"/>
        <pt x="995" y="28" on="0"/>
        <pt x="983" y="-7" on="1"/>
        <pt x="929" y="-7" on="0"/>
        <pt x="416" y="-2" on="0"/>
        <pt x="258" y="-2" on="1"/>
        <pt x="205" y="-2" on="0"/>
        <pt x="93" y="-5" on="0"/>
        <pt x="7" y="-7" on="0"/>
        <pt x="-14" y="-7" on="1"/>
      </contour>
      <contour>
        <pt x="472" y="1779" on="1"/>
        <pt x="482" y="1833" on="0"/>
        <pt x="570" y="1910" on="0"/>
        <pt x="672" y="1910" on="0"/>
        <pt x="731" y="1833" on="0"/>
        <pt x="721" y="1779" on="1"/>
        <pt x="717" y="1757" on="0"/>
        <pt x="697" y="1716" on="0"/>
        <pt x="667" y="1682" on="0"/>
        <pt x="632" y="1655" on="0"/>
        <pt x="592" y="1641" on="0"/>
        <pt x="572" y="1641" on="1"/>
        <pt x="520" y="1641" on="0"/>
        <pt x="462" y="1724" on="0"/>
      </contour>
      <contour>
        <pt x="904" y="1779" on="1"/>
        <pt x="914" y="1833" on="0"/>
        <pt x="1002" y="1910" on="0"/>
        <pt x="1104" y="1910" on="0"/>
        <pt x="1163" y="1833" on="0"/>
        <pt x="1153" y="1779" on="1"/>
        <pt x="1142" y="1724" on="0"/>
        <pt x="1054" y="1641" on="0"/>
        <pt x="1003" y="1641" on="1"/>
        <pt x="952" y="1641" on="0"/>
        <pt x="894" y="1724" on="0"/>
      </contour>
    </TTGlyph>
    <TTGlyph name="Egrave" xMin="-19" yMin="-7" xMax="1234" yMax="1896">
      <contour>
        <pt x="-19" y="3" on="0"/>
        <pt x="-10" y="58" on="0"/>
        <pt x="0" y="68" on="1"/>
        <pt x="35" y="68" on="0"/>
        <pt x="140" y="86" on="0"/>
        <pt x="149" y="104" on="1"/>
        <pt x="153" y="111" on="0"/>
        <pt x="160" y="126" on="0"/>
        <pt x="166" y="145" on="0"/>
        <pt x="171" y="161" on="0"/>
        <pt x="177" y="186" on="0"/>
        <pt x="181" y="202" on="0"/>
        <pt x="187" y="233" on="0"/>
        <pt x="190" y="250" on="0"/>
        <pt x="197" y="285" on="0"/>
        <pt x="199" y="294" on="1"/>
        <pt x="373" y="1193" on="1"/>
        <pt x="379" y="1223" on="0"/>
        <pt x="383" y="1245" on="0"/>
        <pt x="391" y="1293" on="0"/>
        <pt x="394" y="1316" on="0"/>
        <pt x="398" y="1350" on="0"/>
        <pt x="397" y="1373" on="0"/>
        <pt x="396" y="1383" on="1"/>
        <pt x="393" y="1401" on="0"/>
        <pt x="296" y="1419" on="0"/>
        <pt x="262" y="1419" on="1"/>
        <pt x="257" y="1430" on="0"/>
        <pt x="268" y="1484" on="0"/>
        <pt x="278" y="1494" on="1"/>
        <pt x="504" y="1483" on="0"/>
        <pt x="551" y="1483" on="1"/>
        <pt x="618" y="1483" on="0"/>
        <pt x="1142" y="1501" on="0"/>
        <pt x="1234" y="1501" on="1"/>
        <pt x="1231" y="1450" on="0"/>
        <pt x="1231" y="1341" on="0"/>
        <pt x="1234" y="1213" on="0"/>
        <pt x="1234" y="1180" on="1"/>
        <pt x="1223" y="1168" on="0"/>
        <pt x="1186" y="1168" on="1"/>
        <pt x="1159" y="1168" on="0"/>
        <pt x="1159" y="1184" on="1"/>
        <pt x="1148" y="1299" on="0"/>
        <pt x="1055" y="1401" on="0"/>
        <pt x="965" y="1401" on="1"/>
        <pt x="786" y="1401" on="1"/>
        <pt x="673" y="1401" on="0"/>
        <pt x="658" y="1376" on="1"/>
        <pt x="651" y="1365" on="0"/>
        <pt x="640" y="1329" on="0"/>
        <pt x="634" y="1300" on="0"/>
        <pt x="623" y="1242" on="0"/>
        <pt x="619" y="1227" on="1"/>
        <pt x="538" y="818" on="1"/>
        <pt x="536" y="809" on="0"/>
        <pt x="589" y="798" on="0"/>
        <pt x="626" y="798" on="1"/>
        <pt x="737" y="798" on="1"/>
        <pt x="769" y="798" on="0"/>
        <pt x="813" y="799" on="0"/>
        <pt x="855" y="808" on="0"/>
        <pt x="880" y="815" on="0"/>
        <pt x="908" y="837" on="0"/>
        <pt x="924" y="854" on="0"/>
        <pt x="947" y="894" on="0"/>
        <pt x="962" y="927" on="0"/>
        <pt x="976" y="958" on="1"/>
        <pt x="984" y="976" on="0"/>
        <pt x="1008" y="976" on="1"/>
        <pt x="1033" y="976" on="0"/>
        <pt x="1042" y="963" on="1"/>
        <pt x="960" y="533" on="1"/>
        <pt x="951" y="524" on="0"/>
        <pt x="922" y="524" on="1"/>
        <pt x="895" y="524" on="0"/>
        <pt x="895" y="542" on="1"/>
        <pt x="893" y="598" on="0"/>
        <pt x="880" y="661" on="0"/>
        <pt x="868" y="680" on="0"/>
        <pt x="857" y="687" on="1"/>
        <pt x="830" y="703" on="0"/>
        <pt x="669" y="703" on="1"/>
        <pt x="516" y="703" on="0"/>
        <pt x="511" y="678" on="1"/>
        <pt x="436" y="289" on="1"/>
        <pt x="408" y="151" on="0"/>
        <pt x="418" y="122" on="1"/>
        <pt x="428" y="103" on="0"/>
        <pt x="493" y="90" on="0"/>
        <pt x="554" y="90" on="1"/>
        <pt x="673" y="90" on="1"/>
        <pt x="737" y="90" on="0"/>
        <pt x="873" y="123" on="0"/>
        <pt x="918" y="154" on="1"/>
        <pt x="1000" y="214" on="0"/>
        <pt x="1083" y="375" on="1"/>
        <pt x="1089" y="389" on="0"/>
        <pt x="1116" y="389" on="1"/>
        <pt x="1132" y="389" on="0"/>
        <pt x="1167" y="380" on="0"/>
        <pt x="1171" y="375" on="1"/>
        <pt x="1158" y="350" on="0"/>
        <pt x="1085" y="212" on="0"/>
        <pt x="1044" y="133" on="0"/>
        <pt x="995" y="28" on="0"/>
        <pt x="983" y="-7" on="1"/>
        <pt x="929" y="-7" on="0"/>
        <pt x="416" y="-2" on="0"/>
        <pt x="258" y="-2" on="1"/>
        <pt x="205" y="-2" on="0"/>
        <pt x="93" y="-5" on="0"/>
        <pt x="7" y="-7" on="0"/>
        <pt x="-14" y="-7" on="1"/>
      </contour>
      <contour>
        <pt x="536" y="1835" on="1"/>
        <pt x="536" y="1864" on="0"/>
        <pt x="605" y="1896" on="0"/>
        <pt x="653" y="1896" on="1"/>
        <pt x="673" y="1896" on="0"/>
        <pt x="725" y="1889" on="0"/>
        <pt x="734" y="1883" on="1"/>
        <pt x="762" y="1867" on="0"/>
        <pt x="845" y="1799" on="0"/>
        <pt x="918" y="1731" on="0"/>
        <pt x="972" y="1675" on="0"/>
        <pt x="974" y="1668" on="1"/>
        <pt x="974" y="1657" on="0"/>
        <pt x="958" y="1641" on="1"/>
        <pt x="943" y="1642" on="0"/>
        <pt x="812" y="1683" on="0"/>
        <pt x="657" y="1740" on="0"/>
        <pt x="536" y="1810" on="0"/>
      </contour>
    </TTGlyph>
    <TTGlyph name="Eth" xMin="-21" yMin="-7" xMax="1526" yMax="1494">
      <contour>
        <pt x="-16" y="-7" on="1"/>
        <pt x="-21" y="3" on="0"/>
        <pt x="-9" y="57" on="0"/>
        <pt x="0" y="68" on="1"/>
        <pt x="34" y="68" on="0"/>
        <pt x="138" y="86" on="0"/>
        <pt x="147" y="104" on="1"/>
        <pt x="151" y="111" on="0"/>
        <pt x="159" y="131" on="0"/>
        <pt x="165" y="147" on="0"/>
        <pt x="172" y="175" on="0"/>
        <pt x="176" y="191" on="0"/>
        <pt x="184" y="227" on="0"/>
        <pt x="187" y="243" on="0"/>
        <pt x="195" y="286" on="0"/>
        <pt x="197" y="294" on="1"/>
        <pt x="371" y="1193" on="1"/>
        <pt x="373" y="1204" on="0"/>
        <pt x="380" y="1241" on="0"/>
        <pt x="384" y="1262" on="0"/>
        <pt x="390" y="1294" on="0"/>
        <pt x="393" y="1314" on="0"/>
        <pt x="396" y="1339" on="0"/>
        <pt x="397" y="1357" on="0"/>
        <pt x="397" y="1376" on="0"/>
        <pt x="396" y="1383" on="1"/>
        <pt x="393" y="1401" on="0"/>
        <pt x="296" y="1419" on="0"/>
        <pt x="262" y="1419" on="1"/>
        <pt x="257" y="1429" on="0"/>
        <pt x="266" y="1484" on="0"/>
        <pt x="276" y="1494" on="1"/>
        <pt x="457" y="1485" on="0"/>
        <pt x="549" y="1485" on="1"/>
        <pt x="589" y="1485" on="0"/>
        <pt x="806" y="1489" on="0"/>
        <pt x="863" y="1489" on="1"/>
        <pt x="983" y="1489" on="0"/>
        <pt x="1187" y="1439" on="0"/>
        <pt x="1341" y="1345" on="0"/>
        <pt x="1454" y="1211" on="0"/>
        <pt x="1512" y="1044" on="0"/>
        <pt x="1526" y="847" on="0"/>
        <pt x="1503" y="737" on="1"/>
        <pt x="1470" y="565" on="0"/>
        <pt x="1313" y="291" on="0"/>
        <pt x="1076" y="97" on="0"/>
        <pt x="749" y="-7" on="0"/>
        <pt x="551" y="-7" on="1"/>
      </contour>
      <contour>
        <pt x="136" y="696" on="0"/>
        <pt x="133" y="716" on="0"/>
        <pt x="136" y="723" on="1"/>
        <pt x="136" y="723" on="0"/>
        <pt x="139" y="745" on="0"/>
        <pt x="142" y="758" on="0"/>
        <pt x="150" y="776" on="0"/>
        <pt x="156" y="782" on="1"/>
        <pt x="902" y="782" on="1"/>
        <pt x="908" y="782" on="0"/>
        <pt x="915" y="771" on="0"/>
        <pt x="913" y="764" on="1"/>
        <pt x="903" y="714" on="0"/>
        <pt x="890" y="696" on="1"/>
        <pt x="142" y="696" on="1"/>
      </contour>
      <contour>
        <pt x="418" y="122" on="1"/>
        <pt x="425" y="103" on="0"/>
        <pt x="509" y="79" on="0"/>
        <pt x="560" y="79" on="1"/>
        <pt x="688" y="79" on="0"/>
        <pt x="900" y="153" on="0"/>
        <pt x="1073" y="304" on="0"/>
        <pt x="1195" y="547" on="0"/>
        <pt x="1227" y="710" on="1"/>
        <pt x="1260" y="888" on="0"/>
        <pt x="1228" y="1151" on="0"/>
        <pt x="1105" y="1322" on="0"/>
        <pt x="914" y="1406" on="0"/>
        <pt x="789" y="1406" on="1"/>
        <pt x="749" y="1406" on="0"/>
        <pt x="667" y="1393" on="0"/>
        <pt x="658" y="1379" on="1"/>
        <pt x="654" y="1372" on="0"/>
        <pt x="647" y="1356" on="0"/>
        <pt x="641" y="1335" on="0"/>
        <pt x="636" y="1318" on="0"/>
        <pt x="630" y="1290" on="0"/>
        <pt x="626" y="1272" on="0"/>
        <pt x="619" y="1236" on="0"/>
        <pt x="617" y="1227" on="1"/>
        <pt x="436" y="294" on="1"/>
        <pt x="408" y="154" on="0"/>
      </contour>
    </TTGlyph>
    <TTGlyph name="Euro" xMin="72" yMin="-18" xMax="1417" yMax="1471">
      <contour>
        <pt x="72" y="574" on="1"/>
        <pt x="72" y="580" on="0"/>
        <pt x="77" y="601" on="0"/>
        <pt x="85" y="623" on="0"/>
        <pt x="96" y="644" on="0"/>
        <pt x="102" y="649" on="1"/>
        <pt x="190" y="649" on="1"/>
        <pt x="194" y="725" on="0"/>
        <pt x="206" y="782" on="1"/>
        <pt x="115" y="782" on="1"/>
        <pt x="106" y="782" on="0"/>
        <pt x="106" y="800" on="1"/>
        <pt x="106" y="814" on="0"/>
        <pt x="125" y="865" on="0"/>
        <pt x="136" y="875" on="1"/>
        <pt x="231" y="875" on="1"/>
        <pt x="275" y="1013" on="0"/>
        <pt x="450" y="1244" on="0"/>
        <pt x="668" y="1391" on="0"/>
        <pt x="912" y="1471" on="0"/>
        <pt x="1031" y="1469" on="1"/>
        <pt x="1184" y="1466" on="0"/>
        <pt x="1417" y="1408" on="1"/>
        <pt x="1413" y="1324" on="0"/>
        <pt x="1390" y="1089" on="1"/>
        <pt x="1388" y="1079" on="0"/>
        <pt x="1368" y="1064" on="0"/>
        <pt x="1356" y="1064" on="1"/>
        <pt x="1327" y="1064" on="0"/>
        <pt x="1318" y="1078" on="1"/>
        <pt x="1318" y="1111" on="0"/>
        <pt x="1301" y="1181" on="0"/>
        <pt x="1268" y="1250" on="0"/>
        <pt x="1214" y="1310" on="0"/>
        <pt x="1146" y="1356" on="0"/>
        <pt x="1055" y="1383" on="0"/>
        <pt x="1003" y="1383" on="1"/>
        <pt x="888" y="1383" on="0"/>
        <pt x="680" y="1261" on="0"/>
        <pt x="521" y="1029" on="0"/>
        <pt x="484" y="875" on="1"/>
        <pt x="899" y="875" on="1"/>
        <pt x="906" y="875" on="0"/>
        <pt x="906" y="854" on="1"/>
        <pt x="906" y="847" on="0"/>
        <pt x="902" y="823" on="0"/>
        <pt x="888" y="791" on="0"/>
        <pt x="879" y="782" on="1"/>
        <pt x="466" y="782" on="1"/>
        <pt x="455" y="718" on="0"/>
        <pt x="452" y="649" on="1"/>
        <pt x="866" y="649" on="1"/>
        <pt x="872" y="649" on="0"/>
        <pt x="872" y="631" on="1"/>
        <pt x="872" y="617" on="0"/>
        <pt x="859" y="569" on="0"/>
        <pt x="845" y="556" on="1"/>
        <pt x="454" y="556" on="1"/>
        <pt x="458" y="486" on="0"/>
        <pt x="490" y="352" on="0"/>
        <pt x="552" y="224" on="0"/>
        <pt x="638" y="129" on="0"/>
        <pt x="762" y="70" on="0"/>
        <pt x="836" y="70" on="1"/>
        <pt x="987" y="70" on="0"/>
        <pt x="1110" y="176" on="1"/>
        <pt x="1166" y="225" on="0"/>
        <pt x="1257" y="367" on="0"/>
        <pt x="1279" y="416" on="1"/>
        <pt x="1293" y="416" on="0"/>
        <pt x="1321" y="408" on="0"/>
        <pt x="1339" y="398" on="0"/>
        <pt x="1342" y="393" on="1"/>
        <pt x="1339" y="375" on="0"/>
        <pt x="1279" y="230" on="0"/>
        <pt x="1208" y="85" on="0"/>
        <pt x="1193" y="75" on="1"/>
        <pt x="1105" y="25" on="0"/>
        <pt x="911" y="-18" on="0"/>
        <pt x="777" y="-18" on="1"/>
        <pt x="677" y="-18" on="0"/>
        <pt x="496" y="44" on="0"/>
        <pt x="358" y="153" on="0"/>
        <pt x="254" y="298" on="0"/>
        <pt x="195" y="467" on="0"/>
        <pt x="190" y="556" on="1"/>
        <pt x="81" y="556" on="1"/>
        <pt x="72" y="556" on="0"/>
      </contour>
    </TTGlyph>
    <TTGlyph name="F" xMin="-18" yMin="-9" xMax="1232" yMax="1501">
      <contour>
        <pt x="-16" y="-9" on="1"/>
        <pt x="-18" y="-4" on="0"/>
        <pt x="-18" y="4" on="1"/>
        <pt x="-18" y="14" on="0"/>
        <pt x="-15" y="28" on="1"/>
        <pt x="-9" y="55" on="0"/>
        <pt x="0" y="66" on="1"/>
        <pt x="33" y="66" on="0"/>
        <pt x="138" y="86" on="0"/>
        <pt x="147" y="104" on="1"/>
        <pt x="151" y="111" on="0"/>
        <pt x="159" y="131" on="0"/>
        <pt x="165" y="147" on="0"/>
        <pt x="172" y="175" on="0"/>
        <pt x="176" y="191" on="0"/>
        <pt x="184" y="227" on="0"/>
        <pt x="187" y="243" on="0"/>
        <pt x="195" y="286" on="0"/>
        <pt x="197" y="294" on="1"/>
        <pt x="373" y="1193" on="1"/>
        <pt x="379" y="1223" on="0"/>
        <pt x="383" y="1245" on="0"/>
        <pt x="391" y="1293" on="0"/>
        <pt x="394" y="1316" on="0"/>
        <pt x="398" y="1350" on="0"/>
        <pt x="397" y="1373" on="0"/>
        <pt x="396" y="1383" on="1"/>
        <pt x="393" y="1401" on="0"/>
        <pt x="296" y="1419" on="0"/>
        <pt x="262" y="1419" on="1"/>
        <pt x="257" y="1430" on="0"/>
        <pt x="268" y="1484" on="0"/>
        <pt x="278" y="1494" on="1"/>
        <pt x="504" y="1483" on="0"/>
        <pt x="549" y="1483" on="1"/>
        <pt x="616" y="1483" on="0"/>
        <pt x="1139" y="1501" on="0"/>
        <pt x="1232" y="1501" on="1"/>
        <pt x="1229" y="1450" on="0"/>
        <pt x="1229" y="1341" on="0"/>
        <pt x="1232" y="1213" on="0"/>
        <pt x="1232" y="1180" on="1"/>
        <pt x="1220" y="1168" on="0"/>
        <pt x="1184" y="1168" on="1"/>
        <pt x="1157" y="1168" on="0"/>
        <pt x="1157" y="1184" on="1"/>
        <pt x="1145" y="1299" on="0"/>
        <pt x="1053" y="1401" on="0"/>
        <pt x="963" y="1401" on="1"/>
        <pt x="786" y="1401" on="1"/>
        <pt x="670" y="1401" on="0"/>
        <pt x="655" y="1376" on="1"/>
        <pt x="649" y="1365" on="0"/>
        <pt x="638" y="1329" on="0"/>
        <pt x="632" y="1300" on="0"/>
        <pt x="620" y="1242" on="0"/>
        <pt x="617" y="1227" on="1"/>
        <pt x="536" y="814" on="1"/>
        <pt x="534" y="804" on="0"/>
        <pt x="587" y="793" on="0"/>
        <pt x="624" y="793" on="1"/>
        <pt x="734" y="793" on="1"/>
        <pt x="763" y="793" on="0"/>
        <pt x="804" y="796" on="0"/>
        <pt x="841" y="799" on="0"/>
        <pt x="869" y="809" on="0"/>
        <pt x="892" y="818" on="0"/>
        <pt x="912" y="841" on="0"/>
        <pt x="928" y="859" on="0"/>
        <pt x="947" y="896" on="0"/>
        <pt x="962" y="926" on="0"/>
        <pt x="974" y="954" on="1"/>
        <pt x="981" y="972" on="0"/>
        <pt x="1006" y="972" on="1"/>
        <pt x="1031" y="972" on="0"/>
        <pt x="1040" y="958" on="1"/>
        <pt x="958" y="529" on="1"/>
        <pt x="949" y="520" on="0"/>
        <pt x="920" y="520" on="1"/>
        <pt x="893" y="520" on="0"/>
        <pt x="893" y="538" on="1"/>
        <pt x="891" y="593" on="0"/>
        <pt x="878" y="657" on="0"/>
        <pt x="865" y="676" on="0"/>
        <pt x="854" y="683" on="1"/>
        <pt x="828" y="698" on="0"/>
        <pt x="667" y="698" on="1"/>
        <pt x="513" y="698" on="0"/>
        <pt x="508" y="673" on="1"/>
        <pt x="436" y="294" on="1"/>
        <pt x="430" y="264" on="0"/>
        <pt x="426" y="242" on="0"/>
        <pt x="418" y="194" on="0"/>
        <pt x="415" y="171" on="0"/>
        <pt x="411" y="137" on="0"/>
        <pt x="412" y="114" on="0"/>
        <pt x="414" y="104" on="1"/>
        <pt x="417" y="86" on="0"/>
        <pt x="530" y="66" on="0"/>
        <pt x="565" y="66" on="1"/>
        <pt x="570" y="55" on="0"/>
        <pt x="559" y="1" on="0"/>
        <pt x="549" y="-9" on="1"/>
        <pt x="386" y="5" on="0"/>
        <pt x="260" y="5" on="1"/>
        <pt x="218" y="5" on="0"/>
        <pt x="125" y="0" on="0"/>
        <pt x="7" y="-8" on="0"/>
      </contour>
    </TTGlyph>
    <TTGlyph name="G" xMin="124" yMin="-18" xMax="1502" yMax="1507">
      <contour>
        <pt x="124" y="610" on="1"/>
        <pt x="124" y="748" on="0"/>
        <pt x="198" y="999" on="0"/>
        <pt x="326" y="1194" on="0"/>
        <pt x="499" y="1352" on="0"/>
        <pt x="700" y="1455" on="0"/>
        <pt x="808" y="1482" on="1"/>
        <pt x="910" y="1507" on="0"/>
        <pt x="1011" y="1507" on="1"/>
        <pt x="1018" y="1507" on="0"/>
        <pt x="1026" y="1507" on="1"/>
        <pt x="1170" y="1505" on="0"/>
        <pt x="1428" y="1444" on="1"/>
        <pt x="1425" y="1368" on="0"/>
        <pt x="1401" y="1116" on="1"/>
        <pt x="1400" y="1109" on="0"/>
        <pt x="1389" y="1097" on="0"/>
        <pt x="1373" y="1092" on="0"/>
        <pt x="1365" y="1092" on="1"/>
        <pt x="1338" y="1092" on="0"/>
        <pt x="1329" y="1105" on="1"/>
        <pt x="1329" y="1109" on="0"/>
        <pt x="1329" y="1113" on="1"/>
        <pt x="1329" y="1151" on="0"/>
        <pt x="1320" y="1190" on="1"/>
        <pt x="1310" y="1233" on="0"/>
        <pt x="1260" y="1316" on="0"/>
        <pt x="1189" y="1380" on="0"/>
        <pt x="1080" y="1419" on="0"/>
        <pt x="1015" y="1419" on="1"/>
        <pt x="918" y="1419" on="0"/>
        <pt x="734" y="1347" on="0"/>
        <pt x="578" y="1207" on="0"/>
        <pt x="461" y="1016" on="0"/>
        <pt x="396" y="763" on="0"/>
        <pt x="396" y="622" on="1"/>
        <pt x="396" y="559" on="0"/>
        <pt x="415" y="436" on="0"/>
        <pt x="454" y="310" on="0"/>
        <pt x="521" y="203" on="0"/>
        <pt x="609" y="120" on="0"/>
        <pt x="735" y="72" on="0"/>
        <pt x="809" y="72" on="1"/>
        <pt x="929" y="72" on="0"/>
        <pt x="1003" y="122" on="1"/>
        <pt x="1019" y="132" on="0"/>
        <pt x="1026" y="158" on="1"/>
        <pt x="1074" y="411" on="0"/>
        <pt x="1076" y="420" on="1"/>
        <pt x="1078" y="429" on="0"/>
        <pt x="1087" y="476" on="0"/>
        <pt x="1089" y="488" on="0"/>
        <pt x="1096" y="530" on="0"/>
        <pt x="1093" y="539" on="0"/>
        <pt x="1094" y="560" on="1"/>
        <pt x="1092" y="575" on="0"/>
        <pt x="1055" y="596" on="0"/>
        <pt x="1003" y="606" on="0"/>
        <pt x="962" y="610" on="0"/>
        <pt x="949" y="610" on="1"/>
        <pt x="942" y="613" on="0"/>
        <pt x="953" y="677" on="0"/>
        <pt x="963" y="685" on="1"/>
        <pt x="991" y="683" on="0"/>
        <pt x="1078" y="678" on="0"/>
        <pt x="1141" y="674" on="0"/>
        <pt x="1221" y="671" on="0"/>
        <pt x="1254" y="671" on="1"/>
        <pt x="1292" y="671" on="0"/>
        <pt x="1373" y="676" on="0"/>
        <pt x="1471" y="683" on="0"/>
        <pt x="1501" y="685" on="1"/>
        <pt x="1502" y="680" on="0"/>
        <pt x="1502" y="674" on="1"/>
        <pt x="1502" y="661" on="0"/>
        <pt x="1498" y="642" on="1"/>
        <pt x="1492" y="614" on="0"/>
        <pt x="1485" y="610" on="1"/>
        <pt x="1463" y="610" on="0"/>
        <pt x="1372" y="590" on="0"/>
        <pt x="1361" y="576" on="1"/>
        <pt x="1336" y="541" on="0"/>
        <pt x="1315" y="443" on="1"/>
        <pt x="1311" y="424" on="0"/>
        <pt x="1279" y="248" on="0"/>
        <pt x="1275" y="228" on="1"/>
        <pt x="1272" y="217" on="0"/>
        <pt x="1272" y="193" on="0"/>
        <pt x="1274" y="177" on="0"/>
        <pt x="1277" y="159" on="0"/>
        <pt x="1277" y="154" on="1"/>
        <pt x="1274" y="124" on="0"/>
        <pt x="1211" y="93" on="1"/>
        <pt x="1160" y="67" on="0"/>
        <pt x="1087" y="36" on="0"/>
        <pt x="970" y="0" on="0"/>
        <pt x="830" y="-18" on="0"/>
        <pt x="746" y="-18" on="1"/>
        <pt x="631" y="-18" on="0"/>
        <pt x="430" y="51" on="0"/>
        <pt x="283" y="172" on="0"/>
        <pt x="177" y="331" on="0"/>
        <pt x="124" y="514" on="0"/>
      </contour>
    </TTGlyph>
    <TTGlyph name="H" xMin="-18" yMin="-9" xMax="1649" yMax="1496">
      <contour>
        <pt x="-16" y="-9" on="1"/>
        <pt x="-18" y="-4" on="0"/>
        <pt x="-18" y="4" on="1"/>
        <pt x="-18" y="14" on="0"/>
        <pt x="-15" y="28" on="1"/>
        <pt x="-9" y="55" on="0"/>
        <pt x="0" y="66" on="1"/>
        <pt x="33" y="66" on="0"/>
        <pt x="138" y="86" on="0"/>
        <pt x="147" y="104" on="1"/>
        <pt x="151" y="111" on="0"/>
        <pt x="159" y="131" on="0"/>
        <pt x="165" y="147" on="0"/>
        <pt x="172" y="175" on="0"/>
        <pt x="176" y="191" on="0"/>
        <pt x="184" y="227" on="0"/>
        <pt x="187" y="243" on="0"/>
        <pt x="195" y="286" on="0"/>
        <pt x="197" y="294" on="1"/>
        <pt x="373" y="1193" on="1"/>
        <pt x="379" y="1223" on="0"/>
        <pt x="383" y="1245" on="0"/>
        <pt x="391" y="1293" on="0"/>
        <pt x="394" y="1316" on="0"/>
        <pt x="398" y="1350" on="0"/>
        <pt x="397" y="1373" on="0"/>
        <pt x="396" y="1383" on="1"/>
        <pt x="393" y="1401" on="0"/>
        <pt x="295" y="1422" on="0"/>
        <pt x="262" y="1422" on="1"/>
        <pt x="257" y="1432" on="0"/>
        <pt x="268" y="1486" on="0"/>
        <pt x="278" y="1496" on="1"/>
        <pt x="445" y="1483" on="0"/>
        <pt x="549" y="1483" on="1"/>
        <pt x="651" y="1483" on="0"/>
        <pt x="823" y="1496" on="1"/>
        <pt x="829" y="1486" on="0"/>
        <pt x="819" y="1432" on="0"/>
        <pt x="809" y="1422" on="1"/>
        <pt x="777" y="1422" on="0"/>
        <pt x="671" y="1401" on="0"/>
        <pt x="662" y="1383" on="1"/>
        <pt x="639" y="1341" on="0"/>
        <pt x="610" y="1193" on="1"/>
        <pt x="540" y="832" on="1"/>
        <pt x="542" y="825" on="1"/>
        <pt x="814" y="818" on="0"/>
        <pt x="834" y="818" on="1"/>
        <pt x="861" y="818" on="0"/>
        <pt x="1119" y="825" on="1"/>
        <pt x="1125" y="829" on="0"/>
        <pt x="1125" y="834" on="1"/>
        <pt x="1193" y="1193" on="1"/>
        <pt x="1199" y="1223" on="0"/>
        <pt x="1203" y="1245" on="0"/>
        <pt x="1212" y="1293" on="0"/>
        <pt x="1215" y="1316" on="0"/>
        <pt x="1218" y="1350" on="0"/>
        <pt x="1218" y="1373" on="0"/>
        <pt x="1216" y="1383" on="1"/>
        <pt x="1213" y="1401" on="0"/>
        <pt x="1117" y="1422" on="0"/>
        <pt x="1085" y="1422" on="1"/>
        <pt x="1079" y="1431" on="0"/>
        <pt x="1089" y="1486" on="0"/>
        <pt x="1098" y="1496" on="1"/>
        <pt x="1266" y="1483" on="0"/>
        <pt x="1372" y="1483" on="1"/>
        <pt x="1474" y="1483" on="0"/>
        <pt x="1645" y="1496" on="1"/>
        <pt x="1649" y="1491" on="0"/>
        <pt x="1649" y="1480" on="1"/>
        <pt x="1649" y="1471" on="0"/>
        <pt x="1646" y="1459" on="1"/>
        <pt x="1640" y="1432" on="0"/>
        <pt x="1629" y="1422" on="1"/>
        <pt x="1597" y="1422" on="0"/>
        <pt x="1491" y="1401" on="0"/>
        <pt x="1483" y="1383" on="1"/>
        <pt x="1478" y="1376" on="0"/>
        <pt x="1471" y="1357" on="0"/>
        <pt x="1465" y="1340" on="0"/>
        <pt x="1457" y="1312" on="0"/>
        <pt x="1453" y="1296" on="0"/>
        <pt x="1446" y="1260" on="0"/>
        <pt x="1443" y="1244" on="0"/>
        <pt x="1434" y="1201" on="0"/>
        <pt x="1433" y="1193" on="1"/>
        <pt x="1259" y="294" on="1"/>
        <pt x="1257" y="283" on="0"/>
        <pt x="1248" y="238" on="0"/>
        <pt x="1244" y="216" on="0"/>
        <pt x="1237" y="180" on="0"/>
        <pt x="1235" y="159" on="0"/>
        <pt x="1232" y="132" on="0"/>
        <pt x="1233" y="112" on="0"/>
        <pt x="1234" y="104" on="1"/>
        <pt x="1237" y="86" on="0"/>
        <pt x="1335" y="66" on="0"/>
        <pt x="1367" y="66" on="1"/>
        <pt x="1372" y="55" on="0"/>
        <pt x="1361" y="1" on="0"/>
        <pt x="1351" y="-9" on="1"/>
        <pt x="1189" y="5" on="0"/>
        <pt x="1080" y="5" on="1"/>
        <pt x="979" y="5" on="0"/>
        <pt x="807" y="-9" on="1"/>
        <pt x="800" y="1" on="0"/>
        <pt x="810" y="55" on="0"/>
        <pt x="820" y="66" on="1"/>
        <pt x="838" y="66" on="0"/>
        <pt x="898" y="73" on="0"/>
        <pt x="963" y="92" on="0"/>
        <pt x="970" y="104" on="1"/>
        <pt x="974" y="111" on="0"/>
        <pt x="982" y="131" on="0"/>
        <pt x="987" y="147" on="0"/>
        <pt x="995" y="175" on="0"/>
        <pt x="999" y="191" on="0"/>
        <pt x="1006" y="227" on="0"/>
        <pt x="1009" y="243" on="0"/>
        <pt x="1018" y="286" on="0"/>
        <pt x="1019" y="294" on="1"/>
        <pt x="1101" y="710" on="1"/>
        <pt x="1098" y="719" on="1"/>
        <pt x="922" y="723" on="0"/>
        <pt x="816" y="723" on="1"/>
        <pt x="538" y="723" on="0"/>
        <pt x="520" y="714" on="1"/>
        <pt x="515" y="707" on="1"/>
        <pt x="436" y="294" on="1"/>
        <pt x="430" y="264" on="0"/>
        <pt x="426" y="242" on="0"/>
        <pt x="418" y="194" on="0"/>
        <pt x="415" y="171" on="0"/>
        <pt x="411" y="137" on="0"/>
        <pt x="412" y="114" on="0"/>
        <pt x="414" y="104" on="1"/>
        <pt x="417" y="86" on="0"/>
        <pt x="513" y="66" on="0"/>
        <pt x="545" y="66" on="1"/>
        <pt x="550" y="56" on="0"/>
        <pt x="541" y="1" on="0"/>
        <pt x="531" y="-9" on="1"/>
        <pt x="368" y="5" on="0"/>
        <pt x="260" y="5" on="1"/>
        <pt x="156" y="5" on="0"/>
      </contour>
    </TTGlyph>
    <TTGlyph name="I" xMin="-18" yMin="-9" xMax="826" yMax="1496">
      <contour>
        <pt x="-16" y="-9" on="1"/>
        <pt x="-18" y="-4" on="0"/>
        <pt x="-18" y="4" on="1"/>
        <pt x="-18" y="14" on="0"/>
        <pt x="-15" y="28" on="1"/>
        <pt x="-9" y="55" on="0"/>
        <pt x="0" y="66" on="1"/>
        <pt x="33" y="66" on="0"/>
        <pt x="138" y="86" on="0"/>
        <pt x="147" y="104" on="1"/>
        <pt x="151" y="111" on="0"/>
        <pt x="159" y="131" on="0"/>
        <pt x="165" y="147" on="0"/>
        <pt x="172" y="175" on="0"/>
        <pt x="176" y="191" on="0"/>
        <pt x="184" y="227" on="0"/>
        <pt x="187" y="243" on="0"/>
        <pt x="195" y="286" on="0"/>
        <pt x="197" y="294" on="1"/>
        <pt x="373" y="1193" on="1"/>
        <pt x="379" y="1223" on="0"/>
        <pt x="383" y="1245" on="0"/>
        <pt x="391" y="1293" on="0"/>
        <pt x="394" y="1316" on="0"/>
        <pt x="398" y="1350" on="0"/>
        <pt x="397" y="1373" on="0"/>
        <pt x="396" y="1383" on="1"/>
        <pt x="393" y="1401" on="0"/>
        <pt x="295" y="1422" on="0"/>
        <pt x="262" y="1422" on="1"/>
        <pt x="257" y="1432" on="0"/>
        <pt x="268" y="1486" on="0"/>
        <pt x="278" y="1496" on="1"/>
        <pt x="445" y="1483" on="0"/>
        <pt x="549" y="1483" on="1"/>
        <pt x="651" y="1483" on="0"/>
        <pt x="823" y="1496" on="1"/>
        <pt x="826" y="1491" on="0"/>
        <pt x="826" y="1480" on="1"/>
        <pt x="826" y="1471" on="0"/>
        <pt x="824" y="1459" on="1"/>
        <pt x="819" y="1432" on="0"/>
        <pt x="809" y="1422" on="1"/>
        <pt x="777" y="1422" on="0"/>
        <pt x="671" y="1401" on="0"/>
        <pt x="662" y="1383" on="1"/>
        <pt x="639" y="1341" on="0"/>
        <pt x="610" y="1193" on="1"/>
        <pt x="436" y="294" on="1"/>
        <pt x="430" y="264" on="0"/>
        <pt x="426" y="242" on="0"/>
        <pt x="418" y="194" on="0"/>
        <pt x="415" y="171" on="0"/>
        <pt x="411" y="137" on="0"/>
        <pt x="412" y="114" on="0"/>
        <pt x="414" y="104" on="1"/>
        <pt x="417" y="86" on="0"/>
        <pt x="513" y="66" on="0"/>
        <pt x="545" y="66" on="1"/>
        <pt x="550" y="56" on="0"/>
        <pt x="541" y="1" on="0"/>
        <pt x="531" y="-9" on="1"/>
        <pt x="368" y="5" on="0"/>
        <pt x="260" y="5" on="1"/>
        <pt x="156" y="5" on="0"/>
      </contour>
    </TTGlyph>
    <TTGlyph name="Iacute" xMin="-21" yMin="-9" xMax="848" yMax="1896">
      <contour>
        <pt x="-16" y="-9" on="1"/>
        <pt x="-21" y="1" on="0"/>
        <pt x="-9" y="55" on="0"/>
        <pt x="0" y="66" on="1"/>
        <pt x="33" y="66" on="0"/>
        <pt x="138" y="86" on="0"/>
        <pt x="147" y="104" on="1"/>
        <pt x="151" y="111" on="0"/>
        <pt x="159" y="131" on="0"/>
        <pt x="165" y="147" on="0"/>
        <pt x="172" y="175" on="0"/>
        <pt x="176" y="191" on="0"/>
        <pt x="184" y="227" on="0"/>
        <pt x="187" y="243" on="0"/>
        <pt x="195" y="286" on="0"/>
        <pt x="197" y="294" on="1"/>
        <pt x="373" y="1193" on="1"/>
        <pt x="379" y="1223" on="0"/>
        <pt x="383" y="1245" on="0"/>
        <pt x="391" y="1293" on="0"/>
        <pt x="394" y="1316" on="0"/>
        <pt x="398" y="1350" on="0"/>
        <pt x="397" y="1373" on="0"/>
        <pt x="396" y="1383" on="1"/>
        <pt x="393" y="1401" on="0"/>
        <pt x="295" y="1422" on="0"/>
        <pt x="262" y="1422" on="1"/>
        <pt x="257" y="1432" on="0"/>
        <pt x="268" y="1486" on="0"/>
        <pt x="278" y="1496" on="1"/>
        <pt x="445" y="1483" on="0"/>
        <pt x="549" y="1483" on="1"/>
        <pt x="651" y="1483" on="0"/>
        <pt x="823" y="1496" on="1"/>
        <pt x="829" y="1486" on="0"/>
        <pt x="819" y="1432" on="0"/>
        <pt x="809" y="1422" on="1"/>
        <pt x="777" y="1422" on="0"/>
        <pt x="671" y="1401" on="0"/>
        <pt x="662" y="1383" on="1"/>
        <pt x="639" y="1341" on="0"/>
        <pt x="610" y="1193" on="1"/>
        <pt x="436" y="294" on="1"/>
        <pt x="430" y="264" on="0"/>
        <pt x="426" y="242" on="0"/>
        <pt x="418" y="194" on="0"/>
        <pt x="415" y="171" on="0"/>
        <pt x="411" y="137" on="0"/>
        <pt x="412" y="114" on="0"/>
        <pt x="414" y="104" on="1"/>
        <pt x="417" y="86" on="0"/>
        <pt x="513" y="66" on="0"/>
        <pt x="545" y="66" on="1"/>
        <pt x="550" y="56" on="0"/>
        <pt x="541" y="1" on="0"/>
        <pt x="531" y="-9" on="1"/>
        <pt x="368" y="5" on="0"/>
        <pt x="260" y="5" on="1"/>
        <pt x="156" y="5" on="0"/>
      </contour>
      <contour>
        <pt x="409" y="1668" on="1"/>
        <pt x="411" y="1677" on="0"/>
        <pt x="497" y="1763" on="0"/>
        <pt x="613" y="1862" on="0"/>
        <pt x="649" y="1883" on="1"/>
        <pt x="658" y="1889" on="0"/>
        <pt x="710" y="1896" on="0"/>
        <pt x="730" y="1896" on="1"/>
        <pt x="778" y="1896" on="0"/>
        <pt x="848" y="1864" on="0"/>
        <pt x="848" y="1835" on="1"/>
        <pt x="848" y="1810" on="0"/>
        <pt x="726" y="1740" on="0"/>
        <pt x="573" y="1683" on="0"/>
        <pt x="442" y="1642" on="0"/>
        <pt x="427" y="1641" on="1"/>
        <pt x="409" y="1659" on="0"/>
      </contour>
    </TTGlyph>
    <TTGlyph name="Icircumflex" xMin="-21" yMin="-9" xMax="861" yMax="1944">
      <contour>
        <pt x="-16" y="-9" on="1"/>
        <pt x="-21" y="1" on="0"/>
        <pt x="-9" y="55" on="0"/>
        <pt x="0" y="66" on="1"/>
        <pt x="33" y="66" on="0"/>
        <pt x="138" y="86" on="0"/>
        <pt x="147" y="104" on="1"/>
        <pt x="151" y="111" on="0"/>
        <pt x="159" y="131" on="0"/>
        <pt x="165" y="147" on="0"/>
        <pt x="172" y="175" on="0"/>
        <pt x="176" y="191" on="0"/>
        <pt x="184" y="227" on="0"/>
        <pt x="187" y="243" on="0"/>
        <pt x="195" y="286" on="0"/>
        <pt x="197" y="294" on="1"/>
        <pt x="373" y="1193" on="1"/>
        <pt x="379" y="1223" on="0"/>
        <pt x="383" y="1245" on="0"/>
        <pt x="391" y="1293" on="0"/>
        <pt x="394" y="1316" on="0"/>
        <pt x="398" y="1350" on="0"/>
        <pt x="397" y="1373" on="0"/>
        <pt x="396" y="1383" on="1"/>
        <pt x="393" y="1401" on="0"/>
        <pt x="295" y="1422" on="0"/>
        <pt x="262" y="1422" on="1"/>
        <pt x="257" y="1432" on="0"/>
        <pt x="268" y="1486" on="0"/>
        <pt x="278" y="1496" on="1"/>
        <pt x="445" y="1483" on="0"/>
        <pt x="549" y="1483" on="1"/>
        <pt x="651" y="1483" on="0"/>
        <pt x="823" y="1496" on="1"/>
        <pt x="829" y="1486" on="0"/>
        <pt x="819" y="1432" on="0"/>
        <pt x="809" y="1422" on="1"/>
        <pt x="777" y="1422" on="0"/>
        <pt x="671" y="1401" on="0"/>
        <pt x="662" y="1383" on="1"/>
        <pt x="639" y="1341" on="0"/>
        <pt x="610" y="1193" on="1"/>
        <pt x="436" y="294" on="1"/>
        <pt x="430" y="264" on="0"/>
        <pt x="426" y="242" on="0"/>
        <pt x="418" y="194" on="0"/>
        <pt x="415" y="171" on="0"/>
        <pt x="411" y="137" on="0"/>
        <pt x="412" y="114" on="0"/>
        <pt x="414" y="104" on="1"/>
        <pt x="417" y="86" on="0"/>
        <pt x="513" y="66" on="0"/>
        <pt x="545" y="66" on="1"/>
        <pt x="550" y="56" on="0"/>
        <pt x="541" y="1" on="0"/>
        <pt x="531" y="-9" on="1"/>
        <pt x="368" y="5" on="0"/>
        <pt x="260" y="5" on="1"/>
        <pt x="156" y="5" on="0"/>
      </contour>
      <contour>
        <pt x="305" y="1672" on="1"/>
        <pt x="512" y="1834" on="0"/>
        <pt x="610" y="1926" on="1"/>
        <pt x="632" y="1944" on="0"/>
        <pt x="642" y="1944" on="1"/>
        <pt x="656" y="1944" on="0"/>
        <pt x="667" y="1926" on="1"/>
        <pt x="733" y="1823" on="0"/>
        <pt x="861" y="1672" on="1"/>
        <pt x="858" y="1650" on="0"/>
        <pt x="832" y="1645" on="1"/>
        <pt x="630" y="1763" on="0"/>
        <pt x="608" y="1779" on="1"/>
        <pt x="591" y="1769" on="0"/>
        <pt x="489" y="1720" on="0"/>
        <pt x="338" y="1651" on="0"/>
        <pt x="325" y="1645" on="1"/>
        <pt x="316" y="1647" on="0"/>
        <pt x="303" y="1663" on="0"/>
      </contour>
    </TTGlyph>
    <TTGlyph name="Idieresis" xMin="-21" yMin="-9" xMax="955" yMax="1910">
      <contour>
        <pt x="-16" y="-9" on="1"/>
        <pt x="-21" y="1" on="0"/>
        <pt x="-9" y="55" on="0"/>
        <pt x="0" y="66" on="1"/>
        <pt x="33" y="66" on="0"/>
        <pt x="138" y="86" on="0"/>
        <pt x="147" y="104" on="1"/>
        <pt x="151" y="111" on="0"/>
        <pt x="159" y="131" on="0"/>
        <pt x="165" y="147" on="0"/>
        <pt x="172" y="175" on="0"/>
        <pt x="176" y="191" on="0"/>
        <pt x="184" y="227" on="0"/>
        <pt x="187" y="243" on="0"/>
        <pt x="195" y="286" on="0"/>
        <pt x="197" y="294" on="1"/>
        <pt x="373" y="1193" on="1"/>
        <pt x="379" y="1223" on="0"/>
        <pt x="383" y="1245" on="0"/>
        <pt x="391" y="1293" on="0"/>
        <pt x="394" y="1316" on="0"/>
        <pt x="398" y="1350" on="0"/>
        <pt x="397" y="1373" on="0"/>
        <pt x="396" y="1383" on="1"/>
        <pt x="393" y="1401" on="0"/>
        <pt x="295" y="1422" on="0"/>
        <pt x="262" y="1422" on="1"/>
        <pt x="257" y="1432" on="0"/>
        <pt x="268" y="1486" on="0"/>
        <pt x="278" y="1496" on="1"/>
        <pt x="445" y="1483" on="0"/>
        <pt x="549" y="1483" on="1"/>
        <pt x="651" y="1483" on="0"/>
        <pt x="823" y="1496" on="1"/>
        <pt x="829" y="1486" on="0"/>
        <pt x="819" y="1432" on="0"/>
        <pt x="809" y="1422" on="1"/>
        <pt x="777" y="1422" on="0"/>
        <pt x="671" y="1401" on="0"/>
        <pt x="662" y="1383" on="1"/>
        <pt x="639" y="1341" on="0"/>
        <pt x="610" y="1193" on="1"/>
        <pt x="436" y="294" on="1"/>
        <pt x="430" y="264" on="0"/>
        <pt x="426" y="242" on="0"/>
        <pt x="418" y="194" on="0"/>
        <pt x="415" y="171" on="0"/>
        <pt x="411" y="137" on="0"/>
        <pt x="412" y="114" on="0"/>
        <pt x="414" y="104" on="1"/>
        <pt x="417" y="86" on="0"/>
        <pt x="513" y="66" on="0"/>
        <pt x="545" y="66" on="1"/>
        <pt x="550" y="56" on="0"/>
        <pt x="541" y="1" on="0"/>
        <pt x="531" y="-9" on="1"/>
        <pt x="368" y="5" on="0"/>
        <pt x="260" y="5" on="1"/>
        <pt x="156" y="5" on="0"/>
      </contour>
      <contour>
        <pt x="264" y="1779" on="1"/>
        <pt x="275" y="1833" on="0"/>
        <pt x="363" y="1910" on="0"/>
        <pt x="465" y="1910" on="0"/>
        <pt x="523" y="1833" on="0"/>
        <pt x="513" y="1779" on="1"/>
        <pt x="506" y="1743" on="0"/>
        <pt x="461" y="1679" on="0"/>
        <pt x="397" y="1641" on="0"/>
        <pt x="364" y="1641" on="1"/>
        <pt x="312" y="1641" on="0"/>
        <pt x="254" y="1724" on="0"/>
      </contour>
      <contour>
        <pt x="696" y="1779" on="1"/>
        <pt x="703" y="1814" on="0"/>
        <pt x="748" y="1875" on="0"/>
        <pt x="812" y="1910" on="0"/>
        <pt x="845" y="1910" on="1"/>
        <pt x="896" y="1910" on="0"/>
        <pt x="955" y="1833" on="0"/>
        <pt x="945" y="1779" on="1"/>
        <pt x="934" y="1724" on="0"/>
        <pt x="846" y="1641" on="0"/>
        <pt x="796" y="1641" on="1"/>
        <pt x="761" y="1641" on="0"/>
        <pt x="710" y="1679" on="0"/>
        <pt x="689" y="1743" on="0"/>
      </contour>
    </TTGlyph>
    <TTGlyph name="Igrave" xMin="-21" yMin="-9" xMax="829" yMax="1896">
      <contour>
        <pt x="-16" y="-9" on="1"/>
        <pt x="-21" y="1" on="0"/>
        <pt x="-9" y="55" on="0"/>
        <pt x="0" y="66" on="1"/>
        <pt x="33" y="66" on="0"/>
        <pt x="138" y="86" on="0"/>
        <pt x="147" y="104" on="1"/>
        <pt x="151" y="111" on="0"/>
        <pt x="159" y="131" on="0"/>
        <pt x="165" y="147" on="0"/>
        <pt x="172" y="175" on="0"/>
        <pt x="176" y="191" on="0"/>
        <pt x="184" y="227" on="0"/>
        <pt x="187" y="243" on="0"/>
        <pt x="195" y="286" on="0"/>
        <pt x="197" y="294" on="1"/>
        <pt x="373" y="1193" on="1"/>
        <pt x="379" y="1223" on="0"/>
        <pt x="383" y="1245" on="0"/>
        <pt x="391" y="1293" on="0"/>
        <pt x="394" y="1316" on="0"/>
        <pt x="398" y="1350" on="0"/>
        <pt x="397" y="1373" on="0"/>
        <pt x="396" y="1383" on="1"/>
        <pt x="393" y="1401" on="0"/>
        <pt x="295" y="1422" on="0"/>
        <pt x="262" y="1422" on="1"/>
        <pt x="257" y="1432" on="0"/>
        <pt x="268" y="1486" on="0"/>
        <pt x="278" y="1496" on="1"/>
        <pt x="445" y="1483" on="0"/>
        <pt x="549" y="1483" on="1"/>
        <pt x="651" y="1483" on="0"/>
        <pt x="823" y="1496" on="1"/>
        <pt x="829" y="1486" on="0"/>
        <pt x="819" y="1432" on="0"/>
        <pt x="809" y="1422" on="1"/>
        <pt x="777" y="1422" on="0"/>
        <pt x="671" y="1401" on="0"/>
        <pt x="662" y="1383" on="1"/>
        <pt x="639" y="1341" on="0"/>
        <pt x="610" y="1193" on="1"/>
        <pt x="436" y="294" on="1"/>
        <pt x="430" y="264" on="0"/>
        <pt x="426" y="242" on="0"/>
        <pt x="418" y="194" on="0"/>
        <pt x="415" y="171" on="0"/>
        <pt x="411" y="137" on="0"/>
        <pt x="412" y="114" on="0"/>
        <pt x="414" y="104" on="1"/>
        <pt x="417" y="86" on="0"/>
        <pt x="513" y="66" on="0"/>
        <pt x="545" y="66" on="1"/>
        <pt x="550" y="56" on="0"/>
        <pt x="541" y="1" on="0"/>
        <pt x="531" y="-9" on="1"/>
        <pt x="368" y="5" on="0"/>
        <pt x="260" y="5" on="1"/>
        <pt x="156" y="5" on="0"/>
      </contour>
      <contour>
        <pt x="332" y="1835" on="1"/>
        <pt x="332" y="1864" on="0"/>
        <pt x="402" y="1896" on="0"/>
        <pt x="450" y="1896" on="1"/>
        <pt x="470" y="1896" on="0"/>
        <pt x="522" y="1889" on="0"/>
        <pt x="531" y="1883" on="1"/>
        <pt x="584" y="1851" on="0"/>
        <pt x="767" y="1683" on="0"/>
        <pt x="771" y="1668" on="1"/>
        <pt x="771" y="1657" on="0"/>
        <pt x="755" y="1641" on="1"/>
        <pt x="746" y="1641" on="0"/>
        <pt x="678" y="1661" on="0"/>
        <pt x="583" y="1691" on="0"/>
        <pt x="479" y="1732" on="0"/>
        <pt x="390" y="1774" on="0"/>
        <pt x="332" y="1818" on="0"/>
      </contour>
    </TTGlyph>
    <TTGlyph name="J" xMin="-246" yMin="-511" xMax="797" yMax="1492">
      <contour>
        <pt x="-246" y="-475" on="1"/>
        <pt x="-244" y="-461" on="1"/>
        <pt x="-153" y="-422" on="0"/>
        <pt x="-17" y="-298" on="0"/>
        <pt x="84" y="-111" on="0"/>
        <pt x="155" y="118" on="0"/>
        <pt x="185" y="276" on="1"/>
        <pt x="353" y="1157" on="1"/>
        <pt x="363" y="1215" on="0"/>
        <pt x="371" y="1266" on="0"/>
        <pt x="374" y="1303" on="1"/>
        <pt x="376" y="1325" on="0"/>
        <pt x="376" y="1345" on="1"/>
        <pt x="376" y="1358" on="0"/>
        <pt x="375" y="1370" on="1"/>
        <pt x="374" y="1392" on="0"/>
        <pt x="274" y="1419" on="0"/>
        <pt x="242" y="1419" on="1"/>
        <pt x="238" y="1426" on="0"/>
        <pt x="251" y="1483" on="0"/>
        <pt x="258" y="1492" on="1"/>
        <pt x="429" y="1478" on="0"/>
        <pt x="529" y="1478" on="1"/>
        <pt x="624" y="1478" on="0"/>
        <pt x="796" y="1492" on="1"/>
        <pt x="797" y="1490" on="0"/>
        <pt x="797" y="1482" on="1"/>
        <pt x="797" y="1474" on="0"/>
        <pt x="796" y="1458" on="1"/>
        <pt x="792" y="1430" on="0"/>
        <pt x="784" y="1419" on="1"/>
        <pt x="759" y="1419" on="0"/>
        <pt x="655" y="1392" on="0"/>
        <pt x="646" y="1374" on="1"/>
        <pt x="611" y="1304" on="0"/>
        <pt x="588" y="1162" on="1"/>
        <pt x="423" y="294" on="1"/>
        <pt x="401" y="179" on="0"/>
        <pt x="322" y="-28" on="0"/>
        <pt x="227" y="-183" on="0"/>
        <pt x="115" y="-316" on="0"/>
        <pt x="4" y="-406" on="0"/>
        <pt x="-105" y="-472" on="0"/>
        <pt x="-195" y="-506" on="0"/>
        <pt x="-231" y="-511" on="1"/>
        <pt x="-237" y="-506" on="0"/>
        <pt x="-246" y="-484" on="0"/>
      </contour>
    </TTGlyph>
    <TTGlyph name="K" xMin="-18" yMin="-9" xMax="1574" yMax="1496">
      <contour>
        <pt x="-16" y="-9" on="1"/>
        <pt x="-18" y="-4" on="0"/>
        <pt x="-18" y="4" on="1"/>
        <pt x="-18" y="14" on="0"/>
        <pt x="-15" y="28" on="1"/>
        <pt x="-9" y="55" on="0"/>
        <pt x="0" y="66" on="1"/>
        <pt x="33" y="66" on="0"/>
        <pt x="138" y="86" on="0"/>
        <pt x="147" y="104" on="1"/>
        <pt x="151" y="111" on="0"/>
        <pt x="159" y="131" on="0"/>
        <pt x="165" y="147" on="0"/>
        <pt x="172" y="175" on="0"/>
        <pt x="176" y="191" on="0"/>
        <pt x="184" y="227" on="0"/>
        <pt x="187" y="243" on="0"/>
        <pt x="195" y="286" on="0"/>
        <pt x="197" y="294" on="1"/>
        <pt x="371" y="1193" on="1"/>
        <pt x="373" y="1204" on="0"/>
        <pt x="380" y="1241" on="0"/>
        <pt x="384" y="1262" on="0"/>
        <pt x="390" y="1294" on="0"/>
        <pt x="393" y="1314" on="0"/>
        <pt x="396" y="1339" on="0"/>
        <pt x="397" y="1357" on="0"/>
        <pt x="397" y="1376" on="0"/>
        <pt x="396" y="1383" on="1"/>
        <pt x="393" y="1401" on="0"/>
        <pt x="295" y="1422" on="0"/>
        <pt x="262" y="1422" on="1"/>
        <pt x="257" y="1432" on="0"/>
        <pt x="268" y="1486" on="0"/>
        <pt x="278" y="1496" on="1"/>
        <pt x="445" y="1483" on="0"/>
        <pt x="549" y="1483" on="1"/>
        <pt x="651" y="1483" on="0"/>
        <pt x="823" y="1496" on="1"/>
        <pt x="829" y="1486" on="0"/>
        <pt x="819" y="1432" on="0"/>
        <pt x="809" y="1422" on="1"/>
        <pt x="776" y="1422" on="0"/>
        <pt x="669" y="1401" on="0"/>
        <pt x="660" y="1383" on="1"/>
        <pt x="656" y="1376" on="0"/>
        <pt x="648" y="1357" on="0"/>
        <pt x="642" y="1340" on="0"/>
        <pt x="635" y="1312" on="0"/>
        <pt x="631" y="1296" on="0"/>
        <pt x="623" y="1260" on="0"/>
        <pt x="620" y="1244" on="0"/>
        <pt x="612" y="1201" on="0"/>
        <pt x="610" y="1193" on="1"/>
        <pt x="527" y="764" on="1"/>
        <pt x="635" y="838" on="0"/>
        <pt x="796" y="981" on="1"/>
        <pt x="822" y="1005" on="0"/>
        <pt x="920" y="1091" on="0"/>
        <pt x="950" y="1117" on="0"/>
        <pt x="1012" y="1174" on="0"/>
        <pt x="1046" y="1209" on="0"/>
        <pt x="1098" y="1262" on="0"/>
        <pt x="1128" y="1295" on="1"/>
        <pt x="1158" y="1325" on="0"/>
        <pt x="1168" y="1367" on="1"/>
        <pt x="1172" y="1385" on="0"/>
        <pt x="1147" y="1410" on="0"/>
        <pt x="1103" y="1419" on="0"/>
        <pt x="1074" y="1422" on="0"/>
        <pt x="1060" y="1422" on="1"/>
        <pt x="1057" y="1433" on="0"/>
        <pt x="1065" y="1481" on="0"/>
        <pt x="1074" y="1496" on="1"/>
        <pt x="1095" y="1495" on="0"/>
        <pt x="1173" y="1489" on="0"/>
        <pt x="1229" y="1486" on="0"/>
        <pt x="1300" y="1483" on="0"/>
        <pt x="1327" y="1483" on="1"/>
        <pt x="1410" y="1483" on="0"/>
        <pt x="1573" y="1496" on="1"/>
        <pt x="1574" y="1493" on="0"/>
        <pt x="1574" y="1488" on="1"/>
        <pt x="1574" y="1476" on="0"/>
        <pt x="1570" y="1456" on="1"/>
        <pt x="1564" y="1428" on="0"/>
        <pt x="1555" y="1424" on="1"/>
        <pt x="1397" y="1406" on="0"/>
        <pt x="1315" y="1331" on="1"/>
        <pt x="1266" y="1283" on="0"/>
        <pt x="1101" y="1134" on="0"/>
        <pt x="831" y="893" on="0"/>
        <pt x="771" y="838" on="1"/>
        <pt x="750" y="821" on="0"/>
        <pt x="762" y="802" on="1"/>
        <pt x="971" y="462" on="0"/>
        <pt x="1132" y="240" on="1"/>
        <pt x="1171" y="184" on="0"/>
        <pt x="1246" y="111" on="0"/>
        <pt x="1315" y="77" on="0"/>
        <pt x="1362" y="65" on="0"/>
        <pt x="1392" y="63" on="1"/>
        <pt x="1398" y="55" on="0"/>
        <pt x="1385" y="5" on="0"/>
        <pt x="1381" y="-5" on="1"/>
        <pt x="1346" y="-6" on="0"/>
        <pt x="1316" y="-6" on="1"/>
        <pt x="1214" y="-6" on="0"/>
        <pt x="1159" y="2" on="1"/>
        <pt x="1065" y="6" on="0"/>
        <pt x="941" y="78" on="0"/>
        <pt x="884" y="163" on="1"/>
        <pt x="772" y="327" on="0"/>
        <pt x="551" y="685" on="1"/>
        <pt x="547" y="692" on="0"/>
        <pt x="520" y="692" on="0"/>
        <pt x="511" y="683" on="1"/>
        <pt x="436" y="294" on="1"/>
        <pt x="430" y="264" on="0"/>
        <pt x="426" y="242" on="0"/>
        <pt x="418" y="194" on="0"/>
        <pt x="415" y="171" on="0"/>
        <pt x="411" y="137" on="0"/>
        <pt x="412" y="114" on="0"/>
        <pt x="414" y="104" on="1"/>
        <pt x="417" y="86" on="0"/>
        <pt x="513" y="66" on="0"/>
        <pt x="545" y="66" on="1"/>
        <pt x="550" y="56" on="0"/>
        <pt x="541" y="1" on="0"/>
        <pt x="531" y="-9" on="1"/>
        <pt x="368" y="5" on="0"/>
        <pt x="260" y="5" on="1"/>
        <pt x="156" y="5" on="0"/>
      </contour>
    </TTGlyph>
    <TTGlyph name="L" xMin="-18" yMin="-7" xMax="1168" yMax="1496">
      <contour>
        <pt x="-16" y="-7" on="1"/>
        <pt x="-18" y="-2" on="0"/>
        <pt x="-18" y="6" on="1"/>
        <pt x="-18" y="16" on="0"/>
        <pt x="-15" y="30" on="1"/>
        <pt x="-9" y="57" on="0"/>
        <pt x="0" y="68" on="1"/>
        <pt x="34" y="68" on="0"/>
        <pt x="138" y="86" on="0"/>
        <pt x="147" y="104" on="1"/>
        <pt x="151" y="111" on="0"/>
        <pt x="159" y="131" on="0"/>
        <pt x="165" y="147" on="0"/>
        <pt x="172" y="175" on="0"/>
        <pt x="176" y="191" on="0"/>
        <pt x="184" y="227" on="0"/>
        <pt x="187" y="243" on="0"/>
        <pt x="195" y="286" on="0"/>
        <pt x="197" y="294" on="1"/>
        <pt x="371" y="1193" on="1"/>
        <pt x="373" y="1204" on="0"/>
        <pt x="380" y="1241" on="0"/>
        <pt x="384" y="1262" on="0"/>
        <pt x="390" y="1294" on="0"/>
        <pt x="393" y="1314" on="0"/>
        <pt x="396" y="1339" on="0"/>
        <pt x="397" y="1357" on="0"/>
        <pt x="397" y="1376" on="0"/>
        <pt x="396" y="1383" on="1"/>
        <pt x="393" y="1401" on="0"/>
        <pt x="295" y="1422" on="0"/>
        <pt x="262" y="1422" on="1"/>
        <pt x="257" y="1431" on="0"/>
        <pt x="266" y="1486" on="0"/>
        <pt x="276" y="1496" on="1"/>
        <pt x="443" y="1483" on="0"/>
        <pt x="549" y="1483" on="1"/>
        <pt x="651" y="1483" on="0"/>
        <pt x="823" y="1496" on="1"/>
        <pt x="829" y="1486" on="0"/>
        <pt x="817" y="1432" on="0"/>
        <pt x="807" y="1422" on="1"/>
        <pt x="774" y="1422" on="0"/>
        <pt x="669" y="1401" on="0"/>
        <pt x="660" y="1383" on="1"/>
        <pt x="656" y="1376" on="0"/>
        <pt x="648" y="1357" on="0"/>
        <pt x="642" y="1340" on="0"/>
        <pt x="635" y="1312" on="0"/>
        <pt x="631" y="1296" on="0"/>
        <pt x="623" y="1260" on="0"/>
        <pt x="620" y="1244" on="0"/>
        <pt x="612" y="1201" on="0"/>
        <pt x="610" y="1193" on="1"/>
        <pt x="434" y="294" on="1"/>
        <pt x="413" y="190" on="0"/>
        <pt x="413" y="146" on="1"/>
        <pt x="413" y="130" on="0"/>
        <pt x="416" y="122" on="1"/>
        <pt x="433" y="88" on="0"/>
        <pt x="551" y="88" on="1"/>
        <pt x="683" y="88" on="1"/>
        <pt x="828" y="88" on="0"/>
        <pt x="915" y="154" on="1"/>
        <pt x="998" y="214" on="0"/>
        <pt x="1080" y="375" on="1"/>
        <pt x="1087" y="389" on="0"/>
        <pt x="1114" y="389" on="1"/>
        <pt x="1130" y="389" on="0"/>
        <pt x="1165" y="380" on="0"/>
        <pt x="1168" y="375" on="1"/>
        <pt x="1155" y="350" on="0"/>
        <pt x="1082" y="212" on="0"/>
        <pt x="1042" y="133" on="0"/>
        <pt x="993" y="28" on="0"/>
        <pt x="981" y="-7" on="1"/>
        <pt x="926" y="-7" on="0"/>
        <pt x="418" y="-2" on="0"/>
        <pt x="260" y="-2" on="1"/>
        <pt x="206" y="-2" on="0"/>
        <pt x="93" y="-5" on="0"/>
        <pt x="6" y="-7" on="0"/>
      </contour>
    </TTGlyph>
    <TTGlyph name="M" xMin="-63" yMin="-9" xMax="1974" yMax="1496">
      <contour>
        <pt x="-61" y="-9" on="1"/>
        <pt x="-63" y="-6" on="0"/>
        <pt x="-63" y="2" on="1"/>
        <pt x="-62" y="10" on="0"/>
        <pt x="-60" y="24" on="1"/>
        <pt x="-56" y="50" on="0"/>
        <pt x="-47" y="63" on="1"/>
        <pt x="-14" y="63" on="0"/>
        <pt x="119" y="97" on="0"/>
        <pt x="138" y="127" on="1"/>
        <pt x="151" y="146" on="0"/>
        <pt x="187" y="249" on="0"/>
        <pt x="194" y="282" on="1"/>
        <pt x="298" y="721" on="0"/>
        <pt x="425" y="1302" on="1"/>
        <pt x="431" y="1333" on="0"/>
        <pt x="431" y="1353" on="1"/>
        <pt x="431" y="1365" on="0"/>
        <pt x="429" y="1374" on="1"/>
        <pt x="425" y="1392" on="0"/>
        <pt x="326" y="1422" on="0"/>
        <pt x="296" y="1422" on="1"/>
        <pt x="292" y="1428" on="0"/>
        <pt x="308" y="1492" on="0"/>
        <pt x="312" y="1496" on="1"/>
        <pt x="346" y="1494" on="0"/>
        <pt x="476" y="1483" on="0"/>
        <pt x="531" y="1483" on="1"/>
        <pt x="563" y="1483" on="0"/>
        <pt x="628" y="1487" on="0"/>
        <pt x="704" y="1495" on="0"/>
        <pt x="728" y="1496" on="1"/>
        <pt x="735" y="1447" on="0"/>
        <pt x="786" y="1197" on="0"/>
        <pt x="845" y="924" on="0"/>
        <pt x="919" y="563" on="0"/>
        <pt x="945" y="434" on="1"/>
        <pt x="945" y="429" on="0"/>
        <pt x="951" y="429" on="1"/>
        <pt x="953" y="429" on="0"/>
        <pt x="957" y="433" on="0"/>
        <pt x="962" y="439" on="0"/>
        <pt x="963" y="441" on="1"/>
        <pt x="1329" y="1094" on="0"/>
        <pt x="1401" y="1229" on="1"/>
        <pt x="1425" y="1274" on="0"/>
        <pt x="1491" y="1405" on="0"/>
        <pt x="1512" y="1448" on="1"/>
        <pt x="1532" y="1492" on="1"/>
        <pt x="1614" y="1483" on="0"/>
        <pt x="1727" y="1483" on="1"/>
        <pt x="1761" y="1483" on="0"/>
        <pt x="1971" y="1496" on="1"/>
        <pt x="1973" y="1492" on="0"/>
        <pt x="1973" y="1481" on="1"/>
        <pt x="1974" y="1472" on="0"/>
        <pt x="1972" y="1458" on="1"/>
        <pt x="1970" y="1426" on="0"/>
        <pt x="1964" y="1419" on="1"/>
        <pt x="1941" y="1419" on="0"/>
        <pt x="1842" y="1400" on="0"/>
        <pt x="1828" y="1388" on="1"/>
        <pt x="1799" y="1358" on="0"/>
        <pt x="1790" y="1297" on="1"/>
        <pt x="1659" y="534" on="0"/>
        <pt x="1627" y="330" on="1"/>
        <pt x="1609" y="209" on="0"/>
        <pt x="1609" y="145" on="1"/>
        <pt x="1609" y="122" on="0"/>
        <pt x="1611" y="106" on="1"/>
        <pt x="1614" y="86" on="0"/>
        <pt x="1712" y="68" on="0"/>
        <pt x="1742" y="68" on="1"/>
        <pt x="1746" y="53" on="0"/>
        <pt x="1740" y="1" on="0"/>
        <pt x="1733" y="-9" on="1"/>
        <pt x="1720" y="-8" on="0"/>
        <pt x="1524" y="7" on="0"/>
        <pt x="1469" y="7" on="1"/>
        <pt x="1412" y="7" on="0"/>
        <pt x="1195" y="-8" on="0"/>
        <pt x="1173" y="-9" on="1"/>
        <pt x="1170" y="-4" on="0"/>
        <pt x="1180" y="54" on="0"/>
        <pt x="1186" y="68" on="1"/>
        <pt x="1216" y="68" on="0"/>
        <pt x="1318" y="85" on="0"/>
        <pt x="1336" y="99" on="1"/>
        <pt x="1342" y="106" on="0"/>
        <pt x="1357" y="138" on="0"/>
        <pt x="1367" y="174" on="0"/>
        <pt x="1370" y="188" on="1"/>
        <pt x="1389" y="303" on="0"/>
        <pt x="1392" y="321" on="1"/>
        <pt x="1539" y="1200" on="1"/>
        <pt x="1542" y="1214" on="0"/>
        <pt x="1542" y="1252" on="0"/>
        <pt x="1532" y="1252" on="1"/>
        <pt x="1528" y="1252" on="0"/>
        <pt x="1519" y="1236" on="1"/>
        <pt x="890" y="99" on="1"/>
        <pt x="883" y="87" on="0"/>
        <pt x="848" y="41" on="0"/>
        <pt x="801" y="-3" on="0"/>
        <pt x="786" y="-5" on="1"/>
        <pt x="782" y="-5" on="0"/>
        <pt x="768" y="0" on="1"/>
        <pt x="520" y="1252" on="1"/>
        <pt x="387" y="636" on="0"/>
        <pt x="296" y="235" on="1"/>
        <pt x="282" y="163" on="0"/>
        <pt x="282" y="122" on="1"/>
        <pt x="284" y="108" on="0"/>
        <pt x="330" y="85" on="0"/>
        <pt x="390" y="74" on="0"/>
        <pt x="436" y="68" on="0"/>
        <pt x="445" y="68" on="1"/>
        <pt x="449" y="57" on="0"/>
        <pt x="441" y="1" on="0"/>
        <pt x="434" y="-9" on="1"/>
        <pt x="410" y="-8" on="0"/>
        <pt x="250" y="7" on="0"/>
        <pt x="197" y="7" on="1"/>
        <pt x="141" y="7" on="0"/>
        <pt x="-27" y="-7" on="0"/>
      </contour>
    </TTGlyph>
    <TTGlyph name="N" xMin="-35" yMin="-11" xMax="1749" yMax="1498">
      <contour>
        <pt x="-34" y="-9" on="1"/>
        <pt x="-35" y="-5" on="0"/>
        <pt x="-35" y="0" on="1"/>
        <pt x="-35" y="10" on="0"/>
        <pt x="-31" y="28" on="1"/>
        <pt x="-25" y="54" on="0"/>
        <pt x="-18" y="66" on="1"/>
        <pt x="13" y="66" on="0"/>
        <pt x="141" y="95" on="0"/>
        <pt x="156" y="118" on="1"/>
        <pt x="191" y="171" on="0"/>
        <pt x="217" y="310" on="1"/>
        <pt x="258" y="534" on="0"/>
        <pt x="391" y="1200" on="1"/>
        <pt x="406" y="1274" on="0"/>
        <pt x="406" y="1353" on="0"/>
        <pt x="396" y="1379" on="1"/>
        <pt x="388" y="1396" on="0"/>
        <pt x="281" y="1424" on="0"/>
        <pt x="253" y="1424" on="1"/>
        <pt x="247" y="1434" on="0"/>
        <pt x="256" y="1490" on="0"/>
        <pt x="264" y="1498" on="1"/>
        <pt x="286" y="1497" on="0"/>
        <pt x="382" y="1490" on="0"/>
        <pt x="453" y="1487" on="0"/>
        <pt x="490" y="1487" on="1"/>
        <pt x="588" y="1487" on="0"/>
        <pt x="687" y="1496" on="1"/>
        <pt x="713" y="1418" on="0"/>
        <pt x="903" y="1068" on="0"/>
        <pt x="1168" y="600" on="0"/>
        <pt x="1236" y="468" on="1"/>
        <pt x="1238" y="472" on="0"/>
        <pt x="1244" y="501" on="0"/>
        <pt x="1250" y="534" on="0"/>
        <pt x="1252" y="540" on="1"/>
        <pt x="1372" y="1153" on="1"/>
        <pt x="1398" y="1287" on="0"/>
        <pt x="1398" y="1344" on="1"/>
        <pt x="1398" y="1365" on="0"/>
        <pt x="1394" y="1376" on="1"/>
        <pt x="1389" y="1397" on="0"/>
        <pt x="1273" y="1424" on="0"/>
        <pt x="1238" y="1424" on="1"/>
        <pt x="1235" y="1431" on="0"/>
        <pt x="1243" y="1485" on="0"/>
        <pt x="1250" y="1498" on="1"/>
        <pt x="1279" y="1497" on="0"/>
        <pt x="1442" y="1483" on="0"/>
        <pt x="1551" y="1483" on="0"/>
        <pt x="1719" y="1497" on="0"/>
        <pt x="1747" y="1498" on="1"/>
        <pt x="1749" y="1493" on="0"/>
        <pt x="1749" y="1486" on="1"/>
        <pt x="1749" y="1477" on="0"/>
        <pt x="1746" y="1463" on="1"/>
        <pt x="1741" y="1439" on="0"/>
        <pt x="1729" y="1424" on="1"/>
        <pt x="1713" y="1424" on="0"/>
        <pt x="1644" y="1415" on="0"/>
        <pt x="1561" y="1390" on="0"/>
        <pt x="1550" y="1374" on="1"/>
        <pt x="1536" y="1352" on="0"/>
        <pt x="1500" y="1224" on="0"/>
        <pt x="1487" y="1157" on="1"/>
        <pt x="1324" y="314" on="1"/>
        <pt x="1295" y="159" on="0"/>
        <pt x="1270" y="-2" on="1"/>
        <pt x="1261" y="-11" on="0"/>
        <pt x="1223" y="-11" on="1"/>
        <pt x="1214" y="-11" on="0"/>
        <pt x="1193" y="1" on="0"/>
        <pt x="1174" y="25" on="0"/>
        <pt x="1166" y="41" on="1"/>
        <pt x="511" y="1229" on="1"/>
        <pt x="332" y="307" on="1"/>
        <pt x="312" y="208" on="0"/>
        <pt x="312" y="156" on="1"/>
        <pt x="312" y="134" on="0"/>
        <pt x="316" y="120" on="1"/>
        <pt x="321" y="105" on="0"/>
        <pt x="391" y="80" on="0"/>
        <pt x="459" y="68" on="0"/>
        <pt x="475" y="68" on="1"/>
        <pt x="480" y="51" on="0"/>
        <pt x="470" y="5" on="0"/>
        <pt x="463" y="-9" on="1"/>
        <pt x="444" y="-8" on="0"/>
        <pt x="267" y="7" on="0"/>
        <pt x="212" y="7" on="1"/>
        <pt x="170" y="7" on="0"/>
        <pt x="92" y="1" on="0"/>
        <pt x="4" y="-7" on="0"/>
      </contour>
    </TTGlyph>
    <TTGlyph name="Ntilde" xMin="-37" yMin="-11" xMax="1751" yMax="1835">
      <contour>
        <pt x="-34" y="-9" on="1"/>
        <pt x="-37" y="2" on="0"/>
        <pt x="-25" y="55" on="0"/>
        <pt x="-18" y="66" on="1"/>
        <pt x="13" y="66" on="0"/>
        <pt x="141" y="95" on="0"/>
        <pt x="156" y="118" on="1"/>
        <pt x="191" y="171" on="0"/>
        <pt x="217" y="310" on="1"/>
        <pt x="258" y="534" on="0"/>
        <pt x="391" y="1200" on="1"/>
        <pt x="406" y="1274" on="0"/>
        <pt x="406" y="1353" on="0"/>
        <pt x="396" y="1379" on="1"/>
        <pt x="388" y="1396" on="0"/>
        <pt x="281" y="1424" on="0"/>
        <pt x="253" y="1424" on="1"/>
        <pt x="247" y="1434" on="0"/>
        <pt x="256" y="1490" on="0"/>
        <pt x="264" y="1498" on="1"/>
        <pt x="286" y="1497" on="0"/>
        <pt x="382" y="1490" on="0"/>
        <pt x="453" y="1487" on="0"/>
        <pt x="490" y="1487" on="1"/>
        <pt x="588" y="1487" on="0"/>
        <pt x="687" y="1496" on="1"/>
        <pt x="713" y="1418" on="0"/>
        <pt x="903" y="1068" on="0"/>
        <pt x="1168" y="600" on="0"/>
        <pt x="1236" y="468" on="1"/>
        <pt x="1238" y="472" on="0"/>
        <pt x="1244" y="501" on="0"/>
        <pt x="1250" y="534" on="0"/>
        <pt x="1252" y="540" on="1"/>
        <pt x="1372" y="1153" on="1"/>
        <pt x="1407" y="1337" on="0"/>
        <pt x="1394" y="1376" on="1"/>
        <pt x="1389" y="1397" on="0"/>
        <pt x="1273" y="1424" on="0"/>
        <pt x="1238" y="1424" on="1"/>
        <pt x="1235" y="1431" on="0"/>
        <pt x="1243" y="1485" on="0"/>
        <pt x="1250" y="1498" on="1"/>
        <pt x="1279" y="1497" on="0"/>
        <pt x="1442" y="1483" on="0"/>
        <pt x="1551" y="1483" on="0"/>
        <pt x="1719" y="1497" on="0"/>
        <pt x="1747" y="1498" on="1"/>
        <pt x="1751" y="1487" on="0"/>
        <pt x="1741" y="1439" on="0"/>
        <pt x="1729" y="1424" on="1"/>
        <pt x="1713" y="1424" on="0"/>
        <pt x="1644" y="1415" on="0"/>
        <pt x="1561" y="1390" on="0"/>
        <pt x="1550" y="1374" on="1"/>
        <pt x="1536" y="1352" on="0"/>
        <pt x="1500" y="1224" on="0"/>
        <pt x="1487" y="1157" on="1"/>
        <pt x="1324" y="314" on="1"/>
        <pt x="1295" y="159" on="0"/>
        <pt x="1270" y="-2" on="1"/>
        <pt x="1261" y="-11" on="0"/>
        <pt x="1223" y="-11" on="1"/>
        <pt x="1214" y="-11" on="0"/>
        <pt x="1193" y="1" on="0"/>
        <pt x="1174" y="25" on="0"/>
        <pt x="1166" y="41" on="1"/>
        <pt x="511" y="1229" on="1"/>
        <pt x="332" y="307" on="1"/>
        <pt x="304" y="165" on="0"/>
        <pt x="316" y="120" on="1"/>
        <pt x="321" y="105" on="0"/>
        <pt x="391" y="80" on="0"/>
        <pt x="459" y="68" on="0"/>
        <pt x="475" y="68" on="1"/>
        <pt x="480" y="51" on="0"/>
        <pt x="470" y="5" on="0"/>
        <pt x="463" y="-9" on="1"/>
        <pt x="444" y="-8" on="0"/>
        <pt x="267" y="7" on="0"/>
        <pt x="212" y="7" on="1"/>
        <pt x="170" y="7" on="0"/>
        <pt x="92" y="1" on="0"/>
        <pt x="4" y="-7" on="0"/>
      </contour>
      <contour>
        <pt x="658" y="1668" on="1"/>
        <pt x="658" y="1711" on="0"/>
        <pt x="701" y="1758" on="1"/>
        <pt x="743" y="1801" on="0"/>
        <pt x="826" y="1835" on="0"/>
        <pt x="879" y="1835" on="1"/>
        <pt x="923" y="1835" on="0"/>
        <pt x="984" y="1823" on="0"/>
        <pt x="1019" y="1803" on="1"/>
        <pt x="1024" y="1801" on="0"/>
        <pt x="1062" y="1780" on="0"/>
        <pt x="1077" y="1772" on="0"/>
        <pt x="1111" y="1757" on="0"/>
        <pt x="1135" y="1750" on="0"/>
        <pt x="1169" y="1745" on="0"/>
        <pt x="1186" y="1745" on="1"/>
        <pt x="1213" y="1745" on="0"/>
        <pt x="1266" y="1767" on="0"/>
        <pt x="1306" y="1801" on="0"/>
        <pt x="1328" y="1824" on="0"/>
        <pt x="1336" y="1835" on="1"/>
        <pt x="1354" y="1829" on="0"/>
        <pt x="1354" y="1808" on="1"/>
        <pt x="1354" y="1770" on="0"/>
        <pt x="1311" y="1722" on="1"/>
        <pt x="1289" y="1700" on="0"/>
        <pt x="1247" y="1669" on="0"/>
        <pt x="1203" y="1650" on="0"/>
        <pt x="1158" y="1641" on="0"/>
        <pt x="1132" y="1641" on="1"/>
        <pt x="1091" y="1641" on="0"/>
        <pt x="1029" y="1657" on="0"/>
        <pt x="992" y="1677" on="1"/>
        <pt x="989" y="1678" on="0"/>
        <pt x="984" y="1681" on="1"/>
        <pt x="953" y="1698" on="0"/>
        <pt x="918" y="1715" on="0"/>
        <pt x="857" y="1731" on="0"/>
        <pt x="825" y="1731" on="1"/>
        <pt x="798" y="1731" on="0"/>
        <pt x="746" y="1709" on="0"/>
        <pt x="706" y="1675" on="0"/>
        <pt x="684" y="1652" on="0"/>
        <pt x="676" y="1641" on="1"/>
        <pt x="658" y="1647" on="0"/>
      </contour>
    </TTGlyph>
    <TTGlyph name="O" xMin="124" yMin="-23" xMax="1526" yMax="1505">
      <contour>
        <pt x="124" y="608" on="1"/>
        <pt x="124" y="721" on="0"/>
        <pt x="174" y="935" on="0"/>
        <pt x="264" y="1112" on="0"/>
        <pt x="386" y="1265" on="0"/>
        <pt x="533" y="1381" on="0"/>
        <pt x="694" y="1463" on="0"/>
        <pt x="865" y="1505" on="0"/>
        <pt x="949" y="1505" on="1"/>
        <pt x="1055" y="1505" on="0"/>
        <pt x="1241" y="1436" on="0"/>
        <pt x="1378" y="1316" on="0"/>
        <pt x="1476" y="1156" on="0"/>
        <pt x="1526" y="970" on="0"/>
        <pt x="1526" y="872" on="1"/>
        <pt x="1526" y="737" on="0"/>
        <pt x="1458" y="491" on="0"/>
        <pt x="1341" y="297" on="0"/>
        <pt x="1182" y="138" on="0"/>
        <pt x="997" y="34" on="0"/>
        <pt x="795" y="-23" on="0"/>
        <pt x="694" y="-23" on="1"/>
        <pt x="569" y="-23" on="0"/>
        <pt x="354" y="78" on="0"/>
        <pt x="207" y="249" on="0"/>
        <pt x="124" y="480" on="0"/>
      </contour>
      <contour>
        <pt x="393" y="579" on="1"/>
        <pt x="393" y="497" on="0"/>
        <pt x="414" y="354" on="0"/>
        <pt x="465" y="220" on="0"/>
        <pt x="542" y="125" on="0"/>
        <pt x="663" y="68" on="0"/>
        <pt x="739" y="68" on="1"/>
        <pt x="807" y="68" on="0"/>
        <pt x="933" y="120" on="0"/>
        <pt x="1035" y="213" on="0"/>
        <pt x="1123" y="339" on="0"/>
        <pt x="1188" y="489" on="0"/>
        <pt x="1234" y="654" on="0"/>
        <pt x="1257" y="825" on="0"/>
        <pt x="1257" y="909" on="1"/>
        <pt x="1257" y="984" on="0"/>
        <pt x="1236" y="1123" on="0"/>
        <pt x="1186" y="1257" on="0"/>
        <pt x="1109" y="1355" on="0"/>
        <pt x="989" y="1415" on="0"/>
        <pt x="913" y="1415" on="1"/>
        <pt x="804" y="1415" on="0"/>
        <pt x="609" y="1273" on="0"/>
        <pt x="473" y="1040" on="0"/>
        <pt x="393" y="737" on="0"/>
      </contour>
    </TTGlyph>
    <TTGlyph name="OE" xMin="120" yMin="-23" xMax="2197" yMax="1510">
      <contour>
        <pt x="120" y="588" on="1"/>
        <pt x="120" y="716" on="0"/>
        <pt x="186" y="959" on="0"/>
        <pt x="302" y="1161" on="0"/>
        <pt x="466" y="1329" on="0"/>
        <pt x="656" y="1445" on="0"/>
        <pt x="874" y="1510" on="0"/>
        <pt x="985" y="1510" on="1"/>
        <pt x="1088" y="1510" on="0"/>
        <pt x="1418" y="1483" on="0"/>
        <pt x="1487" y="1483" on="1"/>
        <pt x="1553" y="1483" on="0"/>
        <pt x="2104" y="1501" on="0"/>
        <pt x="2197" y="1501" on="1"/>
        <pt x="2194" y="1464" on="0"/>
        <pt x="2194" y="1397" on="1"/>
        <pt x="2194" y="1359" on="0"/>
        <pt x="2197" y="1214" on="0"/>
        <pt x="2197" y="1180" on="1"/>
        <pt x="2185" y="1168" on="0"/>
        <pt x="2152" y="1168" on="1"/>
        <pt x="2124" y="1168" on="0"/>
        <pt x="2124" y="1184" on="1"/>
        <pt x="2111" y="1301" on="0"/>
        <pt x="2012" y="1401" on="0"/>
        <pt x="1907" y="1401" on="1"/>
        <pt x="1761" y="1401" on="1"/>
        <pt x="1729" y="1401" on="0"/>
        <pt x="1697" y="1400" on="0"/>
        <pt x="1652" y="1396" on="0"/>
        <pt x="1628" y="1384" on="0"/>
        <pt x="1623" y="1374" on="1"/>
        <pt x="1604" y="1327" on="0"/>
        <pt x="1582" y="1225" on="1"/>
        <pt x="1505" y="818" on="1"/>
        <pt x="1504" y="808" on="0"/>
        <pt x="1552" y="798" on="0"/>
        <pt x="1589" y="798" on="1"/>
        <pt x="1695" y="798" on="1"/>
        <pt x="1739" y="798" on="0"/>
        <pt x="1792" y="801" on="0"/>
        <pt x="1842" y="815" on="0"/>
        <pt x="1869" y="832" on="0"/>
        <pt x="1901" y="873" on="0"/>
        <pt x="1924" y="918" on="0"/>
        <pt x="1941" y="958" on="1"/>
        <pt x="1949" y="976" on="0"/>
        <pt x="1971" y="976" on="1"/>
        <pt x="1981" y="976" on="0"/>
        <pt x="2003" y="968" on="0"/>
        <pt x="2007" y="963" on="1"/>
        <pt x="1923" y="533" on="1"/>
        <pt x="1914" y="524" on="0"/>
        <pt x="1889" y="524" on="1"/>
        <pt x="1858" y="524" on="0"/>
        <pt x="1858" y="542" on="1"/>
        <pt x="1855" y="623" on="0"/>
        <pt x="1838" y="677" on="0"/>
        <pt x="1822" y="687" on="1"/>
        <pt x="1795" y="703" on="0"/>
        <pt x="1632" y="703" on="1"/>
        <pt x="1481" y="703" on="0"/>
        <pt x="1476" y="678" on="1"/>
        <pt x="1408" y="330" on="1"/>
        <pt x="1378" y="182" on="0"/>
        <pt x="1383" y="131" on="1"/>
        <pt x="1389" y="88" on="0"/>
        <pt x="1519" y="88" on="1"/>
        <pt x="1641" y="88" on="1"/>
        <pt x="1681" y="88" on="0"/>
        <pt x="1766" y="103" on="0"/>
        <pt x="1850" y="133" on="0"/>
        <pt x="1880" y="154" on="1"/>
        <pt x="1961" y="213" on="0"/>
        <pt x="2048" y="375" on="1"/>
        <pt x="2054" y="389" on="0"/>
        <pt x="2079" y="389" on="1"/>
        <pt x="2095" y="389" on="0"/>
        <pt x="2130" y="380" on="0"/>
        <pt x="2133" y="375" on="1"/>
        <pt x="2123" y="355" on="0"/>
        <pt x="2066" y="246" on="0"/>
        <pt x="2033" y="183" on="0"/>
        <pt x="1989" y="93" on="0"/>
        <pt x="1958" y="22" on="0"/>
        <pt x="1948" y="-7" on="1"/>
        <pt x="1890" y="-7" on="0"/>
        <pt x="1378" y="0" on="0"/>
        <pt x="1248" y="0" on="1"/>
        <pt x="1063" y="0" on="0"/>
        <pt x="988" y="-5" on="1"/>
        <pt x="958" y="-6" on="0"/>
        <pt x="812" y="-17" on="0"/>
        <pt x="710" y="-23" on="0"/>
        <pt x="667" y="-23" on="1"/>
        <pt x="549" y="-23" on="0"/>
        <pt x="344" y="74" on="0"/>
        <pt x="201" y="239" on="0"/>
        <pt x="120" y="463" on="0"/>
      </contour>
      <contour>
        <pt x="391" y="576" on="1"/>
        <pt x="391" y="492" on="0"/>
        <pt x="415" y="344" on="0"/>
        <pt x="467" y="216" on="0"/>
        <pt x="544" y="124" on="0"/>
        <pt x="655" y="72" on="0"/>
        <pt x="723" y="72" on="1"/>
        <pt x="878" y="72" on="0"/>
        <pt x="1058" y="160" on="0"/>
        <pt x="1119" y="258" on="1"/>
        <pt x="1130" y="268" on="0"/>
        <pt x="1159" y="344" on="0"/>
        <pt x="1192" y="474" on="0"/>
        <pt x="1220" y="595" on="0"/>
        <pt x="1256" y="774" on="0"/>
        <pt x="1275" y="874" on="0"/>
        <pt x="1290" y="954" on="1"/>
        <pt x="1303" y="1021" on="0"/>
        <pt x="1312" y="1143" on="0"/>
        <pt x="1294" y="1270" on="0"/>
        <pt x="1268" y="1306" on="1"/>
        <pt x="1245" y="1339" on="0"/>
        <pt x="1164" y="1386" on="0"/>
        <pt x="1067" y="1409" on="0"/>
        <pt x="980" y="1419" on="0"/>
        <pt x="938" y="1419" on="1"/>
        <pt x="858" y="1419" on="0"/>
        <pt x="708" y="1347" on="0"/>
        <pt x="590" y="1223" on="0"/>
        <pt x="492" y="1057" on="0"/>
        <pt x="427" y="870" on="0"/>
        <pt x="391" y="671" on="0"/>
      </contour>
    </TTGlyph>
    <TTGlyph name="Oacute" xMin="124" yMin="-23" xMax="1526" yMax="1896">
      <contour>
        <pt x="124" y="608" on="1"/>
        <pt x="124" y="721" on="0"/>
        <pt x="174" y="935" on="0"/>
        <pt x="264" y="1112" on="0"/>
        <pt x="386" y="1265" on="0"/>
        <pt x="533" y="1381" on="0"/>
        <pt x="694" y="1463" on="0"/>
        <pt x="865" y="1505" on="0"/>
        <pt x="949" y="1505" on="1"/>
        <pt x="1055" y="1505" on="0"/>
        <pt x="1241" y="1436" on="0"/>
        <pt x="1378" y="1316" on="0"/>
        <pt x="1476" y="1156" on="0"/>
        <pt x="1526" y="970" on="0"/>
        <pt x="1526" y="872" on="1"/>
        <pt x="1526" y="737" on="0"/>
        <pt x="1458" y="491" on="0"/>
        <pt x="1341" y="297" on="0"/>
        <pt x="1182" y="138" on="0"/>
        <pt x="997" y="34" on="0"/>
        <pt x="795" y="-23" on="0"/>
        <pt x="694" y="-23" on="1"/>
        <pt x="569" y="-23" on="0"/>
        <pt x="354" y="78" on="0"/>
        <pt x="207" y="249" on="0"/>
        <pt x="124" y="480" on="0"/>
      </contour>
      <contour>
        <pt x="393" y="579" on="1"/>
        <pt x="393" y="497" on="0"/>
        <pt x="414" y="354" on="0"/>
        <pt x="465" y="220" on="0"/>
        <pt x="542" y="125" on="0"/>
        <pt x="663" y="68" on="0"/>
        <pt x="739" y="68" on="1"/>
        <pt x="807" y="68" on="0"/>
        <pt x="933" y="120" on="0"/>
        <pt x="1035" y="213" on="0"/>
        <pt x="1123" y="339" on="0"/>
        <pt x="1188" y="489" on="0"/>
        <pt x="1234" y="654" on="0"/>
        <pt x="1257" y="825" on="0"/>
        <pt x="1257" y="909" on="1"/>
        <pt x="1257" y="984" on="0"/>
        <pt x="1236" y="1123" on="0"/>
        <pt x="1186" y="1257" on="0"/>
        <pt x="1109" y="1355" on="0"/>
        <pt x="989" y="1415" on="0"/>
        <pt x="913" y="1415" on="1"/>
        <pt x="804" y="1415" on="0"/>
        <pt x="609" y="1273" on="0"/>
        <pt x="473" y="1040" on="0"/>
        <pt x="393" y="737" on="0"/>
      </contour>
      <contour>
        <pt x="888" y="1668" on="1"/>
        <pt x="892" y="1683" on="0"/>
        <pt x="1074" y="1851" on="0"/>
        <pt x="1128" y="1883" on="1"/>
        <pt x="1137" y="1889" on="0"/>
        <pt x="1189" y="1896" on="0"/>
        <pt x="1209" y="1896" on="1"/>
        <pt x="1240" y="1896" on="0"/>
        <pt x="1292" y="1883" on="0"/>
        <pt x="1327" y="1855" on="0"/>
        <pt x="1327" y="1835" on="1"/>
        <pt x="1327" y="1810" on="0"/>
        <pt x="1205" y="1740" on="0"/>
        <pt x="1052" y="1683" on="0"/>
        <pt x="921" y="1642" on="0"/>
        <pt x="906" y="1641" on="1"/>
        <pt x="888" y="1659" on="0"/>
      </contour>
    </TTGlyph>
    <TTGlyph name="Ocircumflex" xMin="124" yMin="-23" xMax="1526" yMax="1944">
      <contour>
        <pt x="124" y="608" on="1"/>
        <pt x="124" y="721" on="0"/>
        <pt x="174" y="935" on="0"/>
        <pt x="264" y="1112" on="0"/>
        <pt x="386" y="1265" on="0"/>
        <pt x="533" y="1381" on="0"/>
        <pt x="694" y="1463" on="0"/>
        <pt x="865" y="1505" on="0"/>
        <pt x="949" y="1505" on="1"/>
        <pt x="1055" y="1505" on="0"/>
        <pt x="1241" y="1436" on="0"/>
        <pt x="1378" y="1316" on="0"/>
        <pt x="1476" y="1156" on="0"/>
        <pt x="1526" y="970" on="0"/>
        <pt x="1526" y="872" on="1"/>
        <pt x="1526" y="737" on="0"/>
        <pt x="1458" y="491" on="0"/>
        <pt x="1341" y="297" on="0"/>
        <pt x="1182" y="138" on="0"/>
        <pt x="997" y="34" on="0"/>
        <pt x="795" y="-23" on="0"/>
        <pt x="694" y="-23" on="1"/>
        <pt x="569" y="-23" on="0"/>
        <pt x="354" y="78" on="0"/>
        <pt x="207" y="249" on="0"/>
        <pt x="124" y="480" on="0"/>
      </contour>
      <contour>
        <pt x="393" y="579" on="1"/>
        <pt x="393" y="497" on="0"/>
        <pt x="414" y="354" on="0"/>
        <pt x="465" y="220" on="0"/>
        <pt x="542" y="125" on="0"/>
        <pt x="663" y="68" on="0"/>
        <pt x="739" y="68" on="1"/>
        <pt x="807" y="68" on="0"/>
        <pt x="933" y="120" on="0"/>
        <pt x="1035" y="213" on="0"/>
        <pt x="1123" y="339" on="0"/>
        <pt x="1188" y="489" on="0"/>
        <pt x="1234" y="654" on="0"/>
        <pt x="1257" y="825" on="0"/>
        <pt x="1257" y="909" on="1"/>
        <pt x="1257" y="984" on="0"/>
        <pt x="1236" y="1123" on="0"/>
        <pt x="1186" y="1257" on="0"/>
        <pt x="1109" y="1355" on="0"/>
        <pt x="989" y="1415" on="0"/>
        <pt x="913" y="1415" on="1"/>
        <pt x="804" y="1415" on="0"/>
        <pt x="609" y="1273" on="0"/>
        <pt x="473" y="1040" on="0"/>
        <pt x="393" y="737" on="0"/>
      </contour>
      <contour>
        <pt x="687" y="1672" on="1"/>
        <pt x="894" y="1834" on="0"/>
        <pt x="992" y="1926" on="1"/>
        <pt x="1014" y="1944" on="0"/>
        <pt x="1024" y="1944" on="1"/>
        <pt x="1038" y="1944" on="0"/>
        <pt x="1049" y="1926" on="1"/>
        <pt x="1115" y="1823" on="0"/>
        <pt x="1243" y="1672" on="1"/>
        <pt x="1240" y="1650" on="0"/>
        <pt x="1214" y="1645" on="1"/>
        <pt x="1011" y="1763" on="0"/>
        <pt x="990" y="1779" on="1"/>
        <pt x="973" y="1769" on="0"/>
        <pt x="871" y="1720" on="0"/>
        <pt x="720" y="1651" on="0"/>
        <pt x="707" y="1645" on="1"/>
        <pt x="698" y="1647" on="0"/>
        <pt x="685" y="1663" on="0"/>
      </contour>
    </TTGlyph>
    <TTGlyph name="Odieresis" xMin="124" yMin="-23" xMax="1526" yMax="1910">
      <contour>
        <pt x="124" y="608" on="1"/>
        <pt x="124" y="721" on="0"/>
        <pt x="174" y="935" on="0"/>
        <pt x="264" y="1112" on="0"/>
        <pt x="386" y="1265" on="0"/>
        <pt x="533" y="1381" on="0"/>
        <pt x="694" y="1463" on="0"/>
        <pt x="865" y="1505" on="0"/>
        <pt x="949" y="1505" on="1"/>
        <pt x="1055" y="1505" on="0"/>
        <pt x="1241" y="1436" on="0"/>
        <pt x="1378" y="1316" on="0"/>
        <pt x="1476" y="1156" on="0"/>
        <pt x="1526" y="970" on="0"/>
        <pt x="1526" y="872" on="1"/>
        <pt x="1526" y="737" on="0"/>
        <pt x="1458" y="491" on="0"/>
        <pt x="1341" y="297" on="0"/>
        <pt x="1182" y="138" on="0"/>
        <pt x="997" y="34" on="0"/>
        <pt x="795" y="-23" on="0"/>
        <pt x="694" y="-23" on="1"/>
        <pt x="569" y="-23" on="0"/>
        <pt x="354" y="78" on="0"/>
        <pt x="207" y="249" on="0"/>
        <pt x="124" y="480" on="0"/>
      </contour>
      <contour>
        <pt x="393" y="579" on="1"/>
        <pt x="393" y="497" on="0"/>
        <pt x="414" y="354" on="0"/>
        <pt x="465" y="220" on="0"/>
        <pt x="542" y="125" on="0"/>
        <pt x="663" y="68" on="0"/>
        <pt x="739" y="68" on="1"/>
        <pt x="807" y="68" on="0"/>
        <pt x="933" y="120" on="0"/>
        <pt x="1035" y="213" on="0"/>
        <pt x="1123" y="339" on="0"/>
        <pt x="1188" y="489" on="0"/>
        <pt x="1234" y="654" on="0"/>
        <pt x="1257" y="825" on="0"/>
        <pt x="1257" y="909" on="1"/>
        <pt x="1257" y="984" on="0"/>
        <pt x="1236" y="1123" on="0"/>
        <pt x="1186" y="1257" on="0"/>
        <pt x="1109" y="1355" on="0"/>
        <pt x="989" y="1415" on="0"/>
        <pt x="913" y="1415" on="1"/>
        <pt x="804" y="1415" on="0"/>
        <pt x="609" y="1273" on="0"/>
        <pt x="473" y="1040" on="0"/>
        <pt x="393" y="737" on="0"/>
      </contour>
      <contour>
        <pt x="660" y="1779" on="1"/>
        <pt x="670" y="1833" on="0"/>
        <pt x="758" y="1910" on="0"/>
        <pt x="860" y="1910" on="0"/>
        <pt x="919" y="1833" on="0"/>
        <pt x="909" y="1779" on="1"/>
        <pt x="898" y="1724" on="0"/>
        <pt x="810" y="1641" on="0"/>
        <pt x="759" y="1641" on="1"/>
        <pt x="708" y="1641" on="0"/>
        <pt x="650" y="1724" on="0"/>
      </contour>
      <contour>
        <pt x="1092" y="1779" on="1"/>
        <pt x="1102" y="1833" on="0"/>
        <pt x="1190" y="1910" on="0"/>
        <pt x="1292" y="1910" on="0"/>
        <pt x="1350" y="1833" on="0"/>
        <pt x="1340" y="1779" on="1"/>
        <pt x="1330" y="1724" on="0"/>
        <pt x="1241" y="1641" on="0"/>
        <pt x="1191" y="1641" on="1"/>
        <pt x="1157" y="1641" on="0"/>
        <pt x="1106" y="1679" on="0"/>
        <pt x="1085" y="1743" on="0"/>
      </contour>
    </TTGlyph>
    <TTGlyph name="Ograve" xMin="124" yMin="-23" xMax="1526" yMax="1896">
      <contour>
        <pt x="124" y="608" on="1"/>
        <pt x="124" y="721" on="0"/>
        <pt x="174" y="935" on="0"/>
        <pt x="264" y="1112" on="0"/>
        <pt x="386" y="1265" on="0"/>
        <pt x="533" y="1381" on="0"/>
        <pt x="694" y="1463" on="0"/>
        <pt x="865" y="1505" on="0"/>
        <pt x="949" y="1505" on="1"/>
        <pt x="1055" y="1505" on="0"/>
        <pt x="1241" y="1436" on="0"/>
        <pt x="1378" y="1316" on="0"/>
        <pt x="1476" y="1156" on="0"/>
        <pt x="1526" y="970" on="0"/>
        <pt x="1526" y="872" on="1"/>
        <pt x="1526" y="737" on="0"/>
        <pt x="1458" y="491" on="0"/>
        <pt x="1341" y="297" on="0"/>
        <pt x="1182" y="138" on="0"/>
        <pt x="997" y="34" on="0"/>
        <pt x="795" y="-23" on="0"/>
        <pt x="694" y="-23" on="1"/>
        <pt x="569" y="-23" on="0"/>
        <pt x="354" y="78" on="0"/>
        <pt x="207" y="249" on="0"/>
        <pt x="124" y="480" on="0"/>
      </contour>
      <contour>
        <pt x="393" y="579" on="1"/>
        <pt x="393" y="497" on="0"/>
        <pt x="414" y="354" on="0"/>
        <pt x="465" y="220" on="0"/>
        <pt x="542" y="125" on="0"/>
        <pt x="663" y="68" on="0"/>
        <pt x="739" y="68" on="1"/>
        <pt x="807" y="68" on="0"/>
        <pt x="933" y="120" on="0"/>
        <pt x="1035" y="213" on="0"/>
        <pt x="1123" y="339" on="0"/>
        <pt x="1188" y="489" on="0"/>
        <pt x="1234" y="654" on="0"/>
        <pt x="1257" y="825" on="0"/>
        <pt x="1257" y="909" on="1"/>
        <pt x="1257" y="984" on="0"/>
        <pt x="1236" y="1123" on="0"/>
        <pt x="1186" y="1257" on="0"/>
        <pt x="1109" y="1355" on="0"/>
        <pt x="989" y="1415" on="0"/>
        <pt x="913" y="1415" on="1"/>
        <pt x="804" y="1415" on="0"/>
        <pt x="609" y="1273" on="0"/>
        <pt x="473" y="1040" on="0"/>
        <pt x="393" y="737" on="0"/>
      </contour>
      <contour>
        <pt x="640" y="1835" on="1"/>
        <pt x="640" y="1864" on="0"/>
        <pt x="709" y="1896" on="0"/>
        <pt x="757" y="1896" on="1"/>
        <pt x="777" y="1896" on="0"/>
        <pt x="829" y="1889" on="0"/>
        <pt x="838" y="1883" on="1"/>
        <pt x="874" y="1862" on="0"/>
        <pt x="990" y="1763" on="0"/>
        <pt x="1076" y="1677" on="0"/>
        <pt x="1078" y="1668" on="1"/>
        <pt x="1078" y="1657" on="0"/>
        <pt x="1062" y="1641" on="1"/>
        <pt x="1047" y="1642" on="0"/>
        <pt x="916" y="1683" on="0"/>
        <pt x="761" y="1740" on="0"/>
        <pt x="640" y="1810" on="0"/>
      </contour>
    </TTGlyph>
    <TTGlyph name="Oslash" xMin="124" yMin="-29" xMax="1526" yMax="1510">
      <contour>
        <pt x="124" y="608" on="1"/>
        <pt x="124" y="721" on="0"/>
        <pt x="174" y="935" on="0"/>
        <pt x="264" y="1112" on="0"/>
        <pt x="386" y="1265" on="0"/>
        <pt x="533" y="1381" on="0"/>
        <pt x="694" y="1463" on="0"/>
        <pt x="865" y="1505" on="0"/>
        <pt x="949" y="1505" on="1"/>
        <pt x="1055" y="1505" on="0"/>
        <pt x="1241" y="1436" on="0"/>
        <pt x="1378" y="1316" on="0"/>
        <pt x="1476" y="1156" on="0"/>
        <pt x="1526" y="970" on="0"/>
        <pt x="1526" y="872" on="1"/>
        <pt x="1526" y="737" on="0"/>
        <pt x="1458" y="491" on="0"/>
        <pt x="1341" y="297" on="0"/>
        <pt x="1182" y="138" on="0"/>
        <pt x="997" y="34" on="0"/>
        <pt x="795" y="-23" on="0"/>
        <pt x="694" y="-23" on="1"/>
        <pt x="569" y="-23" on="0"/>
        <pt x="354" y="78" on="0"/>
        <pt x="207" y="249" on="0"/>
        <pt x="124" y="480" on="0"/>
      </contour>
      <contour>
        <pt x="188" y="25" on="1"/>
        <pt x="1354" y="1510" on="1"/>
        <pt x="1363" y="1507" on="0"/>
        <pt x="1393" y="1488" on="0"/>
        <pt x="1413" y="1464" on="0"/>
        <pt x="1408" y="1458" on="1"/>
        <pt x="240" y="-29" on="1"/>
        <pt x="223" y="-23" on="0"/>
        <pt x="180" y="16" on="0"/>
      </contour>
      <contour>
        <pt x="393" y="579" on="1"/>
        <pt x="393" y="497" on="0"/>
        <pt x="414" y="354" on="0"/>
        <pt x="465" y="220" on="0"/>
        <pt x="542" y="125" on="0"/>
        <pt x="663" y="68" on="0"/>
        <pt x="739" y="68" on="1"/>
        <pt x="807" y="68" on="0"/>
        <pt x="933" y="120" on="0"/>
        <pt x="1035" y="213" on="0"/>
        <pt x="1123" y="339" on="0"/>
        <pt x="1188" y="489" on="0"/>
        <pt x="1234" y="654" on="0"/>
        <pt x="1257" y="825" on="0"/>
        <pt x="1257" y="909" on="1"/>
        <pt x="1257" y="984" on="0"/>
        <pt x="1236" y="1123" on="0"/>
        <pt x="1186" y="1257" on="0"/>
        <pt x="1109" y="1355" on="0"/>
        <pt x="989" y="1415" on="0"/>
        <pt x="913" y="1415" on="1"/>
        <pt x="804" y="1415" on="0"/>
        <pt x="609" y="1273" on="0"/>
        <pt x="473" y="1040" on="0"/>
        <pt x="393" y="737" on="0"/>
      </contour>
    </TTGlyph>
    <TTGlyph name="Otilde" xMin="124" yMin="-23" xMax="1526" yMax="1835">
      <contour>
        <pt x="124" y="608" on="1"/>
        <pt x="124" y="721" on="0"/>
        <pt x="174" y="935" on="0"/>
        <pt x="264" y="1112" on="0"/>
        <pt x="386" y="1265" on="0"/>
        <pt x="533" y="1381" on="0"/>
        <pt x="694" y="1463" on="0"/>
        <pt x="865" y="1505" on="0"/>
        <pt x="949" y="1505" on="1"/>
        <pt x="1055" y="1505" on="0"/>
        <pt x="1241" y="1436" on="0"/>
        <pt x="1378" y="1316" on="0"/>
        <pt x="1476" y="1156" on="0"/>
        <pt x="1526" y="970" on="0"/>
        <pt x="1526" y="872" on="1"/>
        <pt x="1526" y="737" on="0"/>
        <pt x="1458" y="491" on="0"/>
        <pt x="1341" y="297" on="0"/>
        <pt x="1182" y="138" on="0"/>
        <pt x="997" y="34" on="0"/>
        <pt x="795" y="-23" on="0"/>
        <pt x="694" y="-23" on="1"/>
        <pt x="569" y="-23" on="0"/>
        <pt x="354" y="78" on="0"/>
        <pt x="207" y="249" on="0"/>
        <pt x="124" y="480" on="0"/>
      </contour>
      <contour>
        <pt x="393" y="579" on="1"/>
        <pt x="393" y="497" on="0"/>
        <pt x="414" y="354" on="0"/>
        <pt x="465" y="220" on="0"/>
        <pt x="542" y="125" on="0"/>
        <pt x="663" y="68" on="0"/>
        <pt x="739" y="68" on="1"/>
        <pt x="807" y="68" on="0"/>
        <pt x="933" y="120" on="0"/>
        <pt x="1035" y="213" on="0"/>
        <pt x="1123" y="339" on="0"/>
        <pt x="1188" y="489" on="0"/>
        <pt x="1234" y="654" on="0"/>
        <pt x="1257" y="825" on="0"/>
        <pt x="1257" y="909" on="1"/>
        <pt x="1257" y="984" on="0"/>
        <pt x="1236" y="1123" on="0"/>
        <pt x="1186" y="1257" on="0"/>
        <pt x="1109" y="1355" on="0"/>
        <pt x="989" y="1415" on="0"/>
        <pt x="913" y="1415" on="1"/>
        <pt x="804" y="1415" on="0"/>
        <pt x="609" y="1273" on="0"/>
        <pt x="473" y="1040" on="0"/>
        <pt x="393" y="737" on="0"/>
      </contour>
      <contour>
        <pt x="651" y="1668" on="1"/>
        <pt x="651" y="1711" on="0"/>
        <pt x="694" y="1758" on="1"/>
        <pt x="736" y="1801" on="0"/>
        <pt x="819" y="1835" on="0"/>
        <pt x="872" y="1835" on="1"/>
        <pt x="917" y="1835" on="0"/>
        <pt x="977" y="1823" on="0"/>
        <pt x="1012" y="1803" on="1"/>
        <pt x="1018" y="1801" on="0"/>
        <pt x="1055" y="1780" on="0"/>
        <pt x="1070" y="1772" on="0"/>
        <pt x="1104" y="1757" on="0"/>
        <pt x="1128" y="1750" on="0"/>
        <pt x="1162" y="1745" on="0"/>
        <pt x="1180" y="1745" on="1"/>
        <pt x="1206" y="1745" on="0"/>
        <pt x="1259" y="1767" on="0"/>
        <pt x="1299" y="1801" on="0"/>
        <pt x="1321" y="1824" on="0"/>
        <pt x="1329" y="1835" on="1"/>
        <pt x="1347" y="1829" on="0"/>
        <pt x="1347" y="1808" on="1"/>
        <pt x="1347" y="1770" on="0"/>
        <pt x="1304" y="1722" on="1"/>
        <pt x="1260" y="1678" on="0"/>
        <pt x="1177" y="1641" on="0"/>
        <pt x="1125" y="1641" on="1"/>
        <pt x="1085" y="1641" on="0"/>
        <pt x="1022" y="1657" on="0"/>
        <pt x="985" y="1677" on="1"/>
        <pt x="949" y="1697" on="0"/>
        <pt x="918" y="1712" on="0"/>
        <pt x="852" y="1731" on="0"/>
        <pt x="818" y="1731" on="1"/>
        <pt x="791" y="1731" on="0"/>
        <pt x="739" y="1709" on="0"/>
        <pt x="699" y="1675" on="0"/>
        <pt x="677" y="1652" on="0"/>
        <pt x="669" y="1641" on="1"/>
        <pt x="651" y="1647" on="0"/>
      </contour>
    </TTGlyph>
    <TTGlyph name="P" xMin="-18" yMin="-9" xMax="1243" yMax="1494">
      <contour>
        <pt x="-16" y="-9" on="1"/>
        <pt x="-18" y="-4" on="0"/>
        <pt x="-18" y="4" on="1"/>
        <pt x="-18" y="14" on="0"/>
        <pt x="-15" y="28" on="1"/>
        <pt x="-9" y="55" on="0"/>
        <pt x="0" y="66" on="1"/>
        <pt x="33" y="66" on="0"/>
        <pt x="138" y="86" on="0"/>
        <pt x="147" y="104" on="1"/>
        <pt x="151" y="111" on="0"/>
        <pt x="159" y="131" on="0"/>
        <pt x="165" y="147" on="0"/>
        <pt x="172" y="175" on="0"/>
        <pt x="176" y="191" on="0"/>
        <pt x="184" y="227" on="0"/>
        <pt x="187" y="243" on="0"/>
        <pt x="195" y="286" on="0"/>
        <pt x="197" y="294" on="1"/>
        <pt x="373" y="1193" on="1"/>
        <pt x="379" y="1223" on="0"/>
        <pt x="383" y="1245" on="0"/>
        <pt x="391" y="1293" on="0"/>
        <pt x="394" y="1316" on="0"/>
        <pt x="398" y="1350" on="0"/>
        <pt x="397" y="1373" on="0"/>
        <pt x="396" y="1383" on="1"/>
        <pt x="393" y="1401" on="0"/>
        <pt x="296" y="1419" on="0"/>
        <pt x="262" y="1419" on="1"/>
        <pt x="257" y="1430" on="0"/>
        <pt x="268" y="1484" on="0"/>
        <pt x="278" y="1494" on="1"/>
        <pt x="459" y="1485" on="0"/>
        <pt x="551" y="1485" on="1"/>
        <pt x="588" y="1485" on="0"/>
        <pt x="798" y="1492" on="0"/>
        <pt x="866" y="1492" on="1"/>
        <pt x="949" y="1492" on="0"/>
        <pt x="1096" y="1431" on="0"/>
        <pt x="1197" y="1328" on="0"/>
        <pt x="1223" y="1256" on="1"/>
        <pt x="1243" y="1201" on="0"/>
        <pt x="1243" y="1143" on="1"/>
        <pt x="1243" y="1125" on="0"/>
        <pt x="1241" y="1107" on="1"/>
        <pt x="1233" y="1023" on="0"/>
        <pt x="1164" y="872" on="0"/>
        <pt x="1058" y="761" on="0"/>
        <pt x="925" y="679" on="0"/>
        <pt x="778" y="637" on="0"/>
        <pt x="705" y="637" on="1"/>
        <pt x="677" y="637" on="0"/>
        <pt x="629" y="648" on="0"/>
        <pt x="603" y="661" on="0"/>
        <pt x="597" y="669" on="1"/>
        <pt x="591" y="674" on="0"/>
        <pt x="581" y="701" on="0"/>
        <pt x="581" y="710" on="1"/>
        <pt x="581" y="716" on="0"/>
        <pt x="589" y="728" on="0"/>
        <pt x="592" y="728" on="1"/>
        <pt x="622" y="719" on="0"/>
        <pt x="664" y="719" on="1"/>
        <pt x="715" y="719" on="0"/>
        <pt x="823" y="775" on="0"/>
        <pt x="912" y="867" on="0"/>
        <pt x="974" y="998" on="0"/>
        <pt x="979" y="1067" on="1"/>
        <pt x="981" y="1104" on="0"/>
        <pt x="981" y="1140" on="1"/>
        <pt x="981" y="1152" on="0"/>
        <pt x="981" y="1164" on="1"/>
        <pt x="980" y="1212" on="0"/>
        <pt x="950" y="1300" on="0"/>
        <pt x="902" y="1366" on="0"/>
        <pt x="820" y="1406" on="0"/>
        <pt x="766" y="1406" on="1"/>
        <pt x="673" y="1406" on="0"/>
        <pt x="658" y="1381" on="1"/>
        <pt x="643" y="1355" on="0"/>
        <pt x="617" y="1227" on="1"/>
        <pt x="436" y="294" on="1"/>
        <pt x="430" y="264" on="0"/>
        <pt x="426" y="242" on="0"/>
        <pt x="418" y="194" on="0"/>
        <pt x="415" y="171" on="0"/>
        <pt x="411" y="137" on="0"/>
        <pt x="412" y="114" on="0"/>
        <pt x="414" y="104" on="1"/>
        <pt x="417" y="86" on="0"/>
        <pt x="513" y="66" on="0"/>
        <pt x="545" y="66" on="1"/>
        <pt x="550" y="56" on="0"/>
        <pt x="541" y="1" on="0"/>
        <pt x="531" y="-9" on="1"/>
        <pt x="368" y="5" on="0"/>
        <pt x="260" y="5" on="1"/>
        <pt x="156" y="5" on="0"/>
      </contour>
    </TTGlyph>
    <TTGlyph name="Q" xMin="117" yMin="-312" xMax="1522" yMax="1507">
      <contour>
        <pt x="122" y="664" on="1"/>
        <pt x="132" y="785" on="0"/>
        <pt x="213" y="1011" on="0"/>
        <pt x="337" y="1194" on="0"/>
        <pt x="498" y="1347" on="0"/>
        <pt x="677" y="1450" on="0"/>
        <pt x="868" y="1507" on="0"/>
        <pt x="960" y="1507" on="1"/>
        <pt x="1069" y="1507" on="0"/>
        <pt x="1260" y="1435" on="0"/>
        <pt x="1399" y="1304" on="0"/>
        <pt x="1494" y="1132" on="0"/>
        <pt x="1512" y="1028" on="1"/>
        <pt x="1522" y="970" on="0"/>
        <pt x="1522" y="909" on="1"/>
        <pt x="1522" y="862" on="0"/>
        <pt x="1516" y="814" on="1"/>
        <pt x="1507" y="692" on="0"/>
        <pt x="1427" y="469" on="0"/>
        <pt x="1307" y="293" on="0"/>
        <pt x="1152" y="147" on="0"/>
        <pt x="983" y="46" on="0"/>
        <pt x="893" y="16" on="1"/>
        <pt x="935" y="-8" on="0"/>
        <pt x="1040" y="-78" on="0"/>
        <pt x="1102" y="-116" on="0"/>
        <pt x="1188" y="-156" on="0"/>
        <pt x="1287" y="-174" on="0"/>
        <pt x="1349" y="-174" on="1"/>
        <pt x="1427" y="-174" on="0"/>
        <pt x="1483" y="-158" on="1"/>
        <pt x="1495" y="-158" on="0"/>
        <pt x="1518" y="-171" on="0"/>
        <pt x="1521" y="-181" on="1"/>
        <pt x="1298" y="-312" on="0"/>
        <pt x="1157" y="-312" on="1"/>
        <pt x="1092" y="-312" on="0"/>
        <pt x="964" y="-268" on="0"/>
        <pt x="847" y="-195" on="0"/>
        <pt x="733" y="-117" on="0"/>
        <pt x="586" y="-34" on="0"/>
        <pt x="515" y="-9" on="1"/>
        <pt x="311" y="63" on="0"/>
        <pt x="203" y="244" on="1"/>
        <pt x="117" y="388" on="0"/>
        <pt x="117" y="570" on="1"/>
        <pt x="117" y="616" on="0"/>
      </contour>
      <contour>
        <pt x="387" y="520" on="1"/>
        <pt x="391" y="446" on="0"/>
        <pt x="417" y="312" on="0"/>
        <pt x="473" y="198" on="0"/>
        <pt x="549" y="115" on="0"/>
        <pt x="659" y="68" on="0"/>
        <pt x="725" y="68" on="1"/>
        <pt x="801" y="68" on="0"/>
        <pt x="939" y="131" on="0"/>
        <pt x="1047" y="241" on="0"/>
        <pt x="1137" y="386" on="0"/>
        <pt x="1200" y="554" on="0"/>
        <pt x="1240" y="727" on="0"/>
        <pt x="1248" y="814" on="1"/>
        <pt x="1255" y="865" on="0"/>
        <pt x="1255" y="915" on="1"/>
        <pt x="1255" y="940" on="0"/>
        <pt x="1253" y="964" on="1"/>
        <pt x="1248" y="1039" on="0"/>
        <pt x="1221" y="1173" on="0"/>
        <pt x="1163" y="1287" on="0"/>
        <pt x="1086" y="1370" on="0"/>
        <pt x="978" y="1417" on="0"/>
        <pt x="913" y="1417" on="1"/>
        <pt x="837" y="1417" on="0"/>
        <pt x="699" y="1354" on="0"/>
        <pt x="591" y="1244" on="0"/>
        <pt x="502" y="1099" on="0"/>
        <pt x="440" y="931" on="0"/>
        <pt x="401" y="758" on="0"/>
        <pt x="393" y="671" on="1"/>
        <pt x="386" y="617" on="0"/>
        <pt x="386" y="563" on="1"/>
        <pt x="386" y="542" on="0"/>
      </contour>
    </TTGlyph>
    <TTGlyph name="R" xMin="-18" yMin="-10" xMax="1354" yMax="1494">
      <contour>
        <pt x="-16" y="-9" on="1"/>
        <pt x="-18" y="-4" on="0"/>
        <pt x="-18" y="4" on="1"/>
        <pt x="-18" y="14" on="0"/>
        <pt x="-15" y="28" on="1"/>
        <pt x="-9" y="55" on="0"/>
        <pt x="0" y="66" on="1"/>
        <pt x="33" y="66" on="0"/>
        <pt x="138" y="86" on="0"/>
        <pt x="147" y="104" on="1"/>
        <pt x="151" y="111" on="0"/>
        <pt x="159" y="131" on="0"/>
        <pt x="165" y="147" on="0"/>
        <pt x="172" y="175" on="0"/>
        <pt x="176" y="191" on="0"/>
        <pt x="184" y="227" on="0"/>
        <pt x="187" y="243" on="0"/>
        <pt x="195" y="286" on="0"/>
        <pt x="197" y="294" on="1"/>
        <pt x="373" y="1193" on="1"/>
        <pt x="379" y="1223" on="0"/>
        <pt x="383" y="1245" on="0"/>
        <pt x="391" y="1293" on="0"/>
        <pt x="394" y="1316" on="0"/>
        <pt x="398" y="1350" on="0"/>
        <pt x="397" y="1373" on="0"/>
        <pt x="396" y="1383" on="1"/>
        <pt x="393" y="1401" on="0"/>
        <pt x="296" y="1419" on="0"/>
        <pt x="262" y="1419" on="1"/>
        <pt x="257" y="1430" on="0"/>
        <pt x="268" y="1484" on="0"/>
        <pt x="278" y="1494" on="1"/>
        <pt x="459" y="1485" on="0"/>
        <pt x="554" y="1485" on="1"/>
        <pt x="590" y="1485" on="0"/>
        <pt x="798" y="1492" on="0"/>
        <pt x="866" y="1492" on="1"/>
        <pt x="951" y="1492" on="0"/>
        <pt x="1097" y="1433" on="0"/>
        <pt x="1200" y="1328" on="0"/>
        <pt x="1221" y="1246" on="1"/>
        <pt x="1232" y="1203" on="0"/>
        <pt x="1232" y="1156" on="1"/>
        <pt x="1232" y="1113" on="0"/>
        <pt x="1223" y="1067" on="1"/>
        <pt x="1212" y="1015" on="0"/>
        <pt x="1152" y="916" on="0"/>
        <pt x="1074" y="841" on="0"/>
        <pt x="981" y="777" on="0"/>
        <pt x="895" y="735" on="0"/>
        <pt x="857" y="723" on="1"/>
        <pt x="909" y="601" on="0"/>
        <pt x="964" y="479" on="0"/>
        <pt x="1039" y="330" on="0"/>
        <pt x="1087" y="244" on="1"/>
        <pt x="1112" y="204" on="0"/>
        <pt x="1169" y="140" on="0"/>
        <pt x="1223" y="101" on="0"/>
        <pt x="1281" y="74" on="0"/>
        <pt x="1328" y="62" on="0"/>
        <pt x="1351" y="61" on="1"/>
        <pt x="1354" y="56" on="0"/>
        <pt x="1354" y="38" on="0"/>
        <pt x="1352" y="26" on="1"/>
        <pt x="1346" y="0" on="0"/>
        <pt x="1342" y="-9" on="1"/>
        <pt x="1318" y="-10" on="0"/>
        <pt x="1295" y="-10" on="1"/>
        <pt x="1205" y="-10" on="0"/>
        <pt x="1139" y="0" on="1"/>
        <pt x="1094" y="1" on="0"/>
        <pt x="1017" y="17" on="0"/>
        <pt x="960" y="44" on="0"/>
        <pt x="915" y="76" on="0"/>
        <pt x="880" y="117" on="0"/>
        <pt x="858" y="151" on="0"/>
        <pt x="848" y="172" on="1"/>
        <pt x="825" y="216" on="0"/>
        <pt x="655" y="578" on="0"/>
        <pt x="626" y="649" on="1"/>
        <pt x="621" y="658" on="0"/>
        <pt x="596" y="678" on="0"/>
        <pt x="581" y="678" on="1"/>
        <pt x="511" y="678" on="1"/>
        <pt x="436" y="294" on="1"/>
        <pt x="430" y="264" on="0"/>
        <pt x="426" y="242" on="0"/>
        <pt x="418" y="194" on="0"/>
        <pt x="415" y="171" on="0"/>
        <pt x="411" y="137" on="0"/>
        <pt x="412" y="114" on="0"/>
        <pt x="414" y="104" on="1"/>
        <pt x="417" y="86" on="0"/>
        <pt x="513" y="66" on="0"/>
        <pt x="545" y="66" on="1"/>
        <pt x="550" y="56" on="0"/>
        <pt x="541" y="1" on="0"/>
        <pt x="531" y="-9" on="1"/>
        <pt x="368" y="5" on="0"/>
        <pt x="260" y="5" on="1"/>
        <pt x="156" y="5" on="0"/>
      </contour>
      <contour>
        <pt x="527" y="757" on="1"/>
        <pt x="631" y="757" on="1"/>
        <pt x="746" y="757" on="0"/>
        <pt x="933" y="903" on="0"/>
        <pt x="963" y="1028" on="1"/>
        <pt x="975" y="1086" on="0"/>
        <pt x="978" y="1138" on="1"/>
        <pt x="979" y="1150" on="0"/>
        <pt x="979" y="1161" on="1"/>
        <pt x="978" y="1202" on="0"/>
        <pt x="970" y="1240" on="1"/>
        <pt x="960" y="1290" on="0"/>
        <pt x="913" y="1362" on="0"/>
        <pt x="827" y="1406" on="0"/>
        <pt x="768" y="1406" on="1"/>
        <pt x="673" y="1406" on="0"/>
        <pt x="658" y="1381" on="1"/>
        <pt x="643" y="1355" on="0"/>
        <pt x="617" y="1227" on="1"/>
      </contour>
    </TTGlyph>
    <TTGlyph name="S" xMin="66" yMin="-23" xMax="1058" yMax="1510">
      <contour>
        <pt x="66" y="262" on="1"/>
        <pt x="68" y="374" on="0"/>
        <pt x="75" y="418" on="1"/>
        <pt x="81" y="426" on="0"/>
        <pt x="124" y="441" on="0"/>
        <pt x="136" y="441" on="1"/>
        <pt x="157" y="441" on="0"/>
        <pt x="160" y="425" on="1"/>
        <pt x="160" y="390" on="0"/>
        <pt x="179" y="301" on="0"/>
        <pt x="225" y="202" on="0"/>
        <pt x="290" y="121" on="0"/>
        <pt x="392" y="68" on="0"/>
        <pt x="452" y="68" on="1"/>
        <pt x="498" y="68" on="0"/>
        <pt x="584" y="97" on="0"/>
        <pt x="658" y="155" on="0"/>
        <pt x="708" y="251" on="0"/>
        <pt x="714" y="312" on="1"/>
        <pt x="717" y="343" on="0"/>
        <pt x="707" y="403" on="0"/>
        <pt x="690" y="450" on="0"/>
        <pt x="654" y="503" on="0"/>
        <pt x="625" y="538" on="0"/>
        <pt x="573" y="586" on="0"/>
        <pt x="543" y="611" on="0"/>
        <pt x="514" y="634" on="1"/>
        <pt x="497" y="648" on="0"/>
        <pt x="488" y="655" on="1"/>
        <pt x="473" y="668" on="0"/>
        <pt x="444" y="691" on="1"/>
        <pt x="396" y="730" on="0"/>
        <pt x="347" y="772" on="0"/>
        <pt x="274" y="853" on="0"/>
        <pt x="258" y="888" on="1"/>
        <pt x="240" y="924" on="0"/>
        <pt x="230" y="976" on="1"/>
        <pt x="223" y="1009" on="0"/>
        <pt x="224" y="1046" on="1"/>
        <pt x="224" y="1067" on="0"/>
        <pt x="226" y="1089" on="1"/>
        <pt x="231" y="1141" on="0"/>
        <pt x="268" y="1239" on="0"/>
        <pt x="327" y="1322" on="0"/>
        <pt x="403" y="1394" on="0"/>
        <pt x="491" y="1449" on="0"/>
        <pt x="584" y="1489" on="0"/>
        <pt x="680" y="1510" on="0"/>
        <pt x="725" y="1510" on="1"/>
        <pt x="770" y="1510" on="0"/>
        <pt x="864" y="1498" on="0"/>
        <pt x="921" y="1485" on="0"/>
        <pt x="1032" y="1457" on="0"/>
        <pt x="1058" y="1451" on="1"/>
        <pt x="1029" y="1243" on="0"/>
        <pt x="1003" y="1101" on="1"/>
        <pt x="994" y="1085" on="0"/>
        <pt x="976" y="1085" on="1"/>
        <pt x="929" y="1085" on="0"/>
        <pt x="924" y="1103" on="1"/>
        <pt x="925" y="1121" on="0"/>
        <pt x="925" y="1139" on="1"/>
        <pt x="926" y="1160" on="0"/>
        <pt x="924" y="1180" on="1"/>
        <pt x="920" y="1218" on="0"/>
        <pt x="902" y="1291" on="0"/>
        <pt x="867" y="1351" on="0"/>
        <pt x="818" y="1398" on="0"/>
        <pt x="748" y="1424" on="0"/>
        <pt x="705" y="1424" on="1"/>
        <pt x="606" y="1424" on="0"/>
        <pt x="474" y="1299" on="0"/>
        <pt x="463" y="1198" on="1"/>
        <pt x="461" y="1171" on="0"/>
        <pt x="467" y="1121" on="0"/>
        <pt x="486" y="1074" on="0"/>
        <pt x="505" y="1035" on="0"/>
        <pt x="543" y="990" on="0"/>
        <pt x="569" y="961" on="0"/>
        <pt x="619" y="917" on="0"/>
        <pt x="645" y="895" on="0"/>
        <pt x="701" y="850" on="0"/>
        <pt x="712" y="841" on="1"/>
        <pt x="726" y="829" on="0"/>
        <pt x="755" y="807" on="1"/>
        <pt x="800" y="772" on="0"/>
        <pt x="846" y="733" on="0"/>
        <pt x="917" y="655" on="0"/>
        <pt x="950" y="584" on="0"/>
        <pt x="960" y="530" on="1"/>
        <pt x="966" y="499" on="0"/>
        <pt x="966" y="465" on="1"/>
        <pt x="966" y="441" on="0"/>
        <pt x="963" y="416" on="1"/>
        <pt x="956" y="339" on="0"/>
        <pt x="887" y="199" on="0"/>
        <pt x="780" y="95" on="0"/>
        <pt x="648" y="17" on="0"/>
        <pt x="505" y="-23" on="0"/>
        <pt x="436" y="-23" on="1"/>
        <pt x="374" y="-23" on="0"/>
        <pt x="231" y="5" on="0"/>
        <pt x="145" y="32" on="0"/>
        <pt x="75" y="56" on="1"/>
        <pt x="66" y="136" on="0"/>
        <pt x="66" y="228" on="1"/>
        <pt x="66" y="245" on="0"/>
      </contour>
    </TTGlyph>
    <TTGlyph name="T" xMin="127" yMin="-9" xMax="1428" yMax="1531">
      <contour>
        <pt x="127" y="1125" on="1"/>
        <pt x="142" y="1167" on="0"/>
        <pt x="243" y="1472" on="0"/>
        <pt x="260" y="1528" on="1"/>
        <pt x="268" y="1531" on="0"/>
        <pt x="286" y="1531" on="0"/>
        <pt x="296" y="1528" on="1"/>
        <pt x="305" y="1526" on="0"/>
        <pt x="352" y="1504" on="0"/>
        <pt x="415" y="1487" on="0"/>
        <pt x="457" y="1487" on="1"/>
        <pt x="827" y="1487" on="1"/>
        <pt x="1216" y="1487" on="1"/>
        <pt x="1257" y="1487" on="0"/>
        <pt x="1330" y="1504" on="0"/>
        <pt x="1389" y="1526" on="0"/>
        <pt x="1397" y="1528" on="1"/>
        <pt x="1407" y="1530" on="0"/>
        <pt x="1423" y="1530" on="0"/>
        <pt x="1428" y="1528" on="1"/>
        <pt x="1406" y="1189" on="0"/>
        <pt x="1406" y="1125" on="1"/>
        <pt x="1400" y="1120" on="0"/>
        <pt x="1364" y="1107" on="0"/>
        <pt x="1351" y="1107" on="1"/>
        <pt x="1329" y="1107" on="0"/>
        <pt x="1329" y="1121" on="1"/>
        <pt x="1329" y="1131" on="0"/>
        <pt x="1329" y="1140" on="1"/>
        <pt x="1329" y="1187" on="0"/>
        <pt x="1321" y="1229" on="1"/>
        <pt x="1311" y="1279" on="0"/>
        <pt x="1271" y="1354" on="0"/>
        <pt x="1209" y="1397" on="0"/>
        <pt x="1171" y="1397" on="1"/>
        <pt x="940" y="1397" on="1"/>
        <pt x="725" y="294" on="1"/>
        <pt x="723" y="283" on="0"/>
        <pt x="714" y="238" on="0"/>
        <pt x="710" y="216" on="0"/>
        <pt x="704" y="180" on="0"/>
        <pt x="701" y="159" on="0"/>
        <pt x="699" y="132" on="0"/>
        <pt x="699" y="112" on="0"/>
        <pt x="701" y="104" on="1"/>
        <pt x="704" y="86" on="0"/>
        <pt x="802" y="66" on="0"/>
        <pt x="834" y="66" on="1"/>
        <pt x="839" y="56" on="0"/>
        <pt x="830" y="1" on="0"/>
        <pt x="820" y="-9" on="1"/>
        <pt x="658" y="5" on="0"/>
        <pt x="551" y="5" on="1"/>
        <pt x="447" y="5" on="0"/>
        <pt x="276" y="-9" on="1"/>
        <pt x="269" y="1" on="0"/>
        <pt x="279" y="55" on="0"/>
        <pt x="289" y="66" on="1"/>
        <pt x="322" y="66" on="0"/>
        <pt x="427" y="86" on="0"/>
        <pt x="436" y="104" on="1"/>
        <pt x="459" y="146" on="0"/>
        <pt x="488" y="294" on="1"/>
        <pt x="701" y="1397" on="1"/>
        <pt x="468" y="1397" on="1"/>
        <pt x="392" y="1397" on="0"/>
        <pt x="243" y="1239" on="0"/>
        <pt x="201" y="1121" on="1"/>
        <pt x="194" y="1107" on="0"/>
        <pt x="174" y="1107" on="1"/>
        <pt x="161" y="1107" on="0"/>
        <pt x="130" y="1120" on="0"/>
      </contour>
    </TTGlyph>
    <TTGlyph name="Thorn" xMin="-21" yMin="-9" xMax="1182" yMax="1498">
      <contour>
        <pt x="-16" y="-9" on="1"/>
        <pt x="-21" y="1" on="0"/>
        <pt x="-9" y="55" on="0"/>
        <pt x="0" y="66" on="1"/>
        <pt x="33" y="66" on="0"/>
        <pt x="138" y="86" on="0"/>
        <pt x="147" y="104" on="1"/>
        <pt x="151" y="111" on="0"/>
        <pt x="159" y="131" on="0"/>
        <pt x="165" y="147" on="0"/>
        <pt x="172" y="175" on="0"/>
        <pt x="176" y="191" on="0"/>
        <pt x="184" y="227" on="0"/>
        <pt x="187" y="243" on="0"/>
        <pt x="195" y="286" on="0"/>
        <pt x="197" y="294" on="1"/>
        <pt x="373" y="1193" on="1"/>
        <pt x="379" y="1223" on="0"/>
        <pt x="383" y="1245" on="0"/>
        <pt x="391" y="1293" on="0"/>
        <pt x="394" y="1316" on="0"/>
        <pt x="398" y="1350" on="0"/>
        <pt x="397" y="1373" on="0"/>
        <pt x="396" y="1383" on="1"/>
        <pt x="393" y="1401" on="0"/>
        <pt x="296" y="1419" on="0"/>
        <pt x="262" y="1419" on="1"/>
        <pt x="257" y="1430" on="0"/>
        <pt x="268" y="1484" on="0"/>
        <pt x="278" y="1494" on="1"/>
        <pt x="459" y="1485" on="0"/>
        <pt x="549" y="1485" on="1"/>
        <pt x="651" y="1485" on="0"/>
        <pt x="823" y="1498" on="1"/>
        <pt x="829" y="1488" on="0"/>
        <pt x="819" y="1434" on="0"/>
        <pt x="809" y="1424" on="1"/>
        <pt x="792" y="1424" on="0"/>
        <pt x="732" y="1417" on="0"/>
        <pt x="668" y="1398" on="0"/>
        <pt x="662" y="1385" on="1"/>
        <pt x="633" y="1320" on="0"/>
        <pt x="608" y="1175" on="1"/>
        <pt x="606" y="1166" on="0"/>
        <pt x="606" y="1139" on="1"/>
        <pt x="606" y="1135" on="0"/>
        <pt x="612" y="1135" on="1"/>
        <pt x="684" y="1157" on="0"/>
        <pt x="793" y="1157" on="1"/>
        <pt x="876" y="1157" on="0"/>
        <pt x="1027" y="1089" on="0"/>
        <pt x="1134" y="973" on="0"/>
        <pt x="1182" y="804" on="0"/>
        <pt x="1164" y="710" on="1"/>
        <pt x="1148" y="628" on="0"/>
        <pt x="1052" y="479" on="0"/>
        <pt x="915" y="369" on="0"/>
        <pt x="737" y="303" on="0"/>
        <pt x="644" y="303" on="1"/>
        <pt x="602" y="303" on="0"/>
        <pt x="533" y="333" on="0"/>
        <pt x="518" y="353" on="1"/>
        <pt x="511" y="363" on="0"/>
        <pt x="511" y="398" on="1"/>
        <pt x="511" y="414" on="0"/>
        <pt x="518" y="414" on="1"/>
        <pt x="551" y="396" on="0"/>
        <pt x="674" y="396" on="0"/>
        <pt x="794" y="462" on="0"/>
        <pt x="888" y="593" on="0"/>
        <pt x="904" y="678" on="1"/>
        <pt x="920" y="753" on="0"/>
        <pt x="908" y="892" on="0"/>
        <pt x="865" y="999" on="0"/>
        <pt x="779" y="1062" on="0"/>
        <pt x="721" y="1062" on="1"/>
        <pt x="641" y="1062" on="0"/>
        <pt x="606" y="1033" on="1"/>
        <pt x="575" y="1008" on="0"/>
        <pt x="558" y="922" on="1"/>
        <pt x="436" y="294" on="1"/>
        <pt x="430" y="264" on="0"/>
        <pt x="426" y="242" on="0"/>
        <pt x="418" y="194" on="0"/>
        <pt x="415" y="171" on="0"/>
        <pt x="411" y="137" on="0"/>
        <pt x="412" y="114" on="0"/>
        <pt x="414" y="104" on="1"/>
        <pt x="417" y="86" on="0"/>
        <pt x="513" y="66" on="0"/>
        <pt x="545" y="66" on="1"/>
        <pt x="550" y="56" on="0"/>
        <pt x="541" y="1" on="0"/>
        <pt x="531" y="-9" on="1"/>
        <pt x="368" y="5" on="0"/>
        <pt x="260" y="5" on="1"/>
        <pt x="156" y="5" on="0"/>
      </contour>
    </TTGlyph>
    <TTGlyph name="U" xMin="202" yMin="-14" xMax="1692" yMax="1496">
      <contour>
        <pt x="224" y="624" on="1"/>
        <pt x="334" y="1193" on="1"/>
        <pt x="340" y="1223" on="0"/>
        <pt x="344" y="1245" on="0"/>
        <pt x="353" y="1293" on="0"/>
        <pt x="356" y="1316" on="0"/>
        <pt x="359" y="1350" on="0"/>
        <pt x="359" y="1373" on="0"/>
        <pt x="357" y="1383" on="1"/>
        <pt x="354" y="1401" on="0"/>
        <pt x="258" y="1422" on="0"/>
        <pt x="226" y="1422" on="1"/>
        <pt x="223" y="1427" on="0"/>
        <pt x="223" y="1437" on="1"/>
        <pt x="224" y="1446" on="0"/>
        <pt x="226" y="1458" on="1"/>
        <pt x="230" y="1486" on="0"/>
        <pt x="240" y="1496" on="1"/>
        <pt x="402" y="1483" on="0"/>
        <pt x="511" y="1483" on="1"/>
        <pt x="612" y="1483" on="0"/>
        <pt x="784" y="1496" on="1"/>
        <pt x="791" y="1486" on="0"/>
        <pt x="781" y="1432" on="0"/>
        <pt x="771" y="1422" on="1"/>
        <pt x="738" y="1422" on="0"/>
        <pt x="633" y="1401" on="0"/>
        <pt x="624" y="1383" on="1"/>
        <pt x="601" y="1341" on="0"/>
        <pt x="572" y="1193" on="1"/>
        <pt x="479" y="707" on="1"/>
        <pt x="462" y="620" on="0"/>
        <pt x="456" y="555" on="1"/>
        <pt x="452" y="513" on="0"/>
        <pt x="452" y="472" on="1"/>
        <pt x="452" y="450" on="0"/>
        <pt x="452" y="428" on="1"/>
        <pt x="456" y="366" on="0"/>
        <pt x="472" y="316" on="1"/>
        <pt x="525" y="133" on="0"/>
        <pt x="748" y="133" on="1"/>
        <pt x="808" y="133" on="0"/>
        <pt x="920" y="167" on="0"/>
        <pt x="1032" y="245" on="0"/>
        <pt x="1125" y="364" on="0"/>
        <pt x="1202" y="545" on="0"/>
        <pt x="1225" y="660" on="1"/>
        <pt x="1322" y="1157" on="1"/>
        <pt x="1343" y="1263" on="0"/>
        <pt x="1343" y="1324" on="1"/>
        <pt x="1343" y="1355" on="0"/>
        <pt x="1338" y="1374" on="1"/>
        <pt x="1332" y="1395" on="0"/>
        <pt x="1226" y="1424" on="0"/>
        <pt x="1193" y="1424" on="1"/>
        <pt x="1190" y="1433" on="0"/>
        <pt x="1193" y="1461" on="0"/>
        <pt x="1202" y="1489" on="0"/>
        <pt x="1207" y="1496" on="1"/>
        <pt x="1226" y="1495" on="0"/>
        <pt x="1288" y="1490" on="0"/>
        <pt x="1324" y="1487" on="0"/>
        <pt x="1374" y="1484" on="0"/>
        <pt x="1424" y="1483" on="0"/>
        <pt x="1451" y="1483" on="1"/>
        <pt x="1493" y="1483" on="0"/>
        <pt x="1569" y="1487" on="0"/>
        <pt x="1656" y="1494" on="0"/>
        <pt x="1690" y="1496" on="1"/>
        <pt x="1692" y="1490" on="0"/>
        <pt x="1692" y="1481" on="1"/>
        <pt x="1692" y="1474" on="0"/>
        <pt x="1690" y="1462" on="1"/>
        <pt x="1686" y="1438" on="0"/>
        <pt x="1677" y="1424" on="1"/>
        <pt x="1642" y="1424" on="0"/>
        <pt x="1520" y="1398" on="0"/>
        <pt x="1505" y="1374" on="1"/>
        <pt x="1468" y="1314" on="0"/>
        <pt x="1437" y="1159" on="1"/>
        <pt x="1336" y="635" on="1"/>
        <pt x="1309" y="501" on="0"/>
        <pt x="1210" y="284" on="0"/>
        <pt x="1079" y="134" on="0"/>
        <pt x="917" y="33" on="0"/>
        <pt x="741" y="-14" on="0"/>
        <pt x="644" y="-14" on="1"/>
        <pt x="517" y="-14" on="0"/>
        <pt x="320" y="79" on="0"/>
        <pt x="264" y="167" on="1"/>
        <pt x="202" y="266" on="0"/>
        <pt x="202" y="420" on="1"/>
        <pt x="202" y="512" on="0"/>
      </contour>
    </TTGlyph>
    <TTGlyph name="Uacute" xMin="164" yMin="-14" xMax="1694" yMax="1896">
      <contour>
        <pt x="224" y="624" on="1"/>
        <pt x="334" y="1193" on="1"/>
        <pt x="340" y="1223" on="0"/>
        <pt x="344" y="1245" on="0"/>
        <pt x="353" y="1293" on="0"/>
        <pt x="356" y="1316" on="0"/>
        <pt x="359" y="1350" on="0"/>
        <pt x="359" y="1373" on="0"/>
        <pt x="357" y="1383" on="1"/>
        <pt x="354" y="1401" on="0"/>
        <pt x="258" y="1422" on="0"/>
        <pt x="226" y="1422" on="1"/>
        <pt x="221" y="1431" on="0"/>
        <pt x="230" y="1486" on="0"/>
        <pt x="240" y="1496" on="1"/>
        <pt x="402" y="1483" on="0"/>
        <pt x="511" y="1483" on="1"/>
        <pt x="612" y="1483" on="0"/>
        <pt x="784" y="1496" on="1"/>
        <pt x="791" y="1486" on="0"/>
        <pt x="781" y="1432" on="0"/>
        <pt x="771" y="1422" on="1"/>
        <pt x="738" y="1422" on="0"/>
        <pt x="633" y="1401" on="0"/>
        <pt x="624" y="1383" on="1"/>
        <pt x="601" y="1341" on="0"/>
        <pt x="572" y="1193" on="1"/>
        <pt x="479" y="707" on="1"/>
        <pt x="462" y="620" on="0"/>
        <pt x="449" y="490" on="0"/>
        <pt x="456" y="367" on="0"/>
        <pt x="472" y="316" on="1"/>
        <pt x="525" y="133" on="0"/>
        <pt x="748" y="133" on="1"/>
        <pt x="808" y="133" on="0"/>
        <pt x="920" y="167" on="0"/>
        <pt x="1032" y="245" on="0"/>
        <pt x="1125" y="364" on="0"/>
        <pt x="1202" y="545" on="0"/>
        <pt x="1225" y="660" on="1"/>
        <pt x="1322" y="1157" on="1"/>
        <pt x="1354" y="1316" on="0"/>
        <pt x="1338" y="1374" on="1"/>
        <pt x="1332" y="1395" on="0"/>
        <pt x="1226" y="1424" on="0"/>
        <pt x="1193" y="1424" on="1"/>
        <pt x="1190" y="1433" on="0"/>
        <pt x="1193" y="1461" on="0"/>
        <pt x="1202" y="1489" on="0"/>
        <pt x="1207" y="1496" on="1"/>
        <pt x="1226" y="1495" on="0"/>
        <pt x="1288" y="1490" on="0"/>
        <pt x="1324" y="1487" on="0"/>
        <pt x="1374" y="1484" on="0"/>
        <pt x="1424" y="1483" on="0"/>
        <pt x="1451" y="1483" on="1"/>
        <pt x="1493" y="1483" on="0"/>
        <pt x="1569" y="1487" on="0"/>
        <pt x="1656" y="1494" on="0"/>
        <pt x="1690" y="1496" on="1"/>
        <pt x="1694" y="1485" on="0"/>
        <pt x="1687" y="1438" on="0"/>
        <pt x="1677" y="1424" on="1"/>
        <pt x="1642" y="1424" on="0"/>
        <pt x="1520" y="1398" on="0"/>
        <pt x="1505" y="1374" on="1"/>
        <pt x="1468" y="1314" on="0"/>
        <pt x="1437" y="1159" on="1"/>
        <pt x="1336" y="635" on="1"/>
        <pt x="1309" y="501" on="0"/>
        <pt x="1210" y="284" on="0"/>
        <pt x="1079" y="134" on="0"/>
        <pt x="917" y="33" on="0"/>
        <pt x="741" y="-14" on="0"/>
        <pt x="644" y="-14" on="1"/>
        <pt x="517" y="-14" on="0"/>
        <pt x="320" y="79" on="0"/>
        <pt x="264" y="167" on="1"/>
        <pt x="164" y="326" on="0"/>
      </contour>
      <contour>
        <pt x="938" y="1668" on="1"/>
        <pt x="942" y="1683" on="0"/>
        <pt x="1124" y="1851" on="0"/>
        <pt x="1177" y="1883" on="1"/>
        <pt x="1187" y="1889" on="0"/>
        <pt x="1238" y="1896" on="0"/>
        <pt x="1259" y="1896" on="1"/>
        <pt x="1307" y="1896" on="0"/>
        <pt x="1376" y="1864" on="0"/>
        <pt x="1376" y="1835" on="1"/>
        <pt x="1376" y="1810" on="0"/>
        <pt x="1255" y="1740" on="0"/>
        <pt x="1102" y="1683" on="0"/>
        <pt x="971" y="1642" on="0"/>
        <pt x="956" y="1641" on="1"/>
        <pt x="938" y="1659" on="0"/>
      </contour>
    </TTGlyph>
    <TTGlyph name="Ucircumflex" xMin="164" yMin="-14" xMax="1694" yMax="1944">
      <contour>
        <pt x="224" y="624" on="1"/>
        <pt x="334" y="1193" on="1"/>
        <pt x="340" y="1223" on="0"/>
        <pt x="344" y="1245" on="0"/>
        <pt x="353" y="1293" on="0"/>
        <pt x="356" y="1316" on="0"/>
        <pt x="359" y="1350" on="0"/>
        <pt x="359" y="1373" on="0"/>
        <pt x="357" y="1383" on="1"/>
        <pt x="354" y="1401" on="0"/>
        <pt x="258" y="1422" on="0"/>
        <pt x="226" y="1422" on="1"/>
        <pt x="221" y="1431" on="0"/>
        <pt x="230" y="1486" on="0"/>
        <pt x="240" y="1496" on="1"/>
        <pt x="402" y="1483" on="0"/>
        <pt x="511" y="1483" on="1"/>
        <pt x="612" y="1483" on="0"/>
        <pt x="784" y="1496" on="1"/>
        <pt x="791" y="1486" on="0"/>
        <pt x="781" y="1432" on="0"/>
        <pt x="771" y="1422" on="1"/>
        <pt x="738" y="1422" on="0"/>
        <pt x="633" y="1401" on="0"/>
        <pt x="624" y="1383" on="1"/>
        <pt x="601" y="1341" on="0"/>
        <pt x="572" y="1193" on="1"/>
        <pt x="479" y="707" on="1"/>
        <pt x="462" y="620" on="0"/>
        <pt x="449" y="490" on="0"/>
        <pt x="456" y="367" on="0"/>
        <pt x="472" y="316" on="1"/>
        <pt x="525" y="133" on="0"/>
        <pt x="748" y="133" on="1"/>
        <pt x="808" y="133" on="0"/>
        <pt x="920" y="167" on="0"/>
        <pt x="1032" y="245" on="0"/>
        <pt x="1125" y="364" on="0"/>
        <pt x="1202" y="545" on="0"/>
        <pt x="1225" y="660" on="1"/>
        <pt x="1322" y="1157" on="1"/>
        <pt x="1354" y="1316" on="0"/>
        <pt x="1338" y="1374" on="1"/>
        <pt x="1332" y="1395" on="0"/>
        <pt x="1226" y="1424" on="0"/>
        <pt x="1193" y="1424" on="1"/>
        <pt x="1190" y="1433" on="0"/>
        <pt x="1193" y="1461" on="0"/>
        <pt x="1202" y="1489" on="0"/>
        <pt x="1207" y="1496" on="1"/>
        <pt x="1226" y="1495" on="0"/>
        <pt x="1288" y="1490" on="0"/>
        <pt x="1324" y="1487" on="0"/>
        <pt x="1374" y="1484" on="0"/>
        <pt x="1424" y="1483" on="0"/>
        <pt x="1451" y="1483" on="1"/>
        <pt x="1493" y="1483" on="0"/>
        <pt x="1569" y="1487" on="0"/>
        <pt x="1656" y="1494" on="0"/>
        <pt x="1690" y="1496" on="1"/>
        <pt x="1694" y="1485" on="0"/>
        <pt x="1687" y="1438" on="0"/>
        <pt x="1677" y="1424" on="1"/>
        <pt x="1642" y="1424" on="0"/>
        <pt x="1520" y="1398" on="0"/>
        <pt x="1505" y="1374" on="1"/>
        <pt x="1468" y="1314" on="0"/>
        <pt x="1437" y="1159" on="1"/>
        <pt x="1336" y="635" on="1"/>
        <pt x="1309" y="501" on="0"/>
        <pt x="1210" y="284" on="0"/>
        <pt x="1079" y="134" on="0"/>
        <pt x="917" y="33" on="0"/>
        <pt x="741" y="-14" on="0"/>
        <pt x="644" y="-14" on="1"/>
        <pt x="517" y="-14" on="0"/>
        <pt x="320" y="79" on="0"/>
        <pt x="264" y="167" on="1"/>
        <pt x="164" y="326" on="0"/>
      </contour>
      <contour>
        <pt x="721" y="1672" on="1"/>
        <pt x="928" y="1834" on="0"/>
        <pt x="1026" y="1926" on="1"/>
        <pt x="1048" y="1944" on="0"/>
        <pt x="1058" y="1944" on="1"/>
        <pt x="1072" y="1944" on="0"/>
        <pt x="1083" y="1926" on="1"/>
        <pt x="1149" y="1823" on="0"/>
        <pt x="1277" y="1672" on="1"/>
        <pt x="1274" y="1650" on="0"/>
        <pt x="1248" y="1645" on="1"/>
        <pt x="1045" y="1763" on="0"/>
        <pt x="1024" y="1779" on="1"/>
        <pt x="1007" y="1769" on="0"/>
        <pt x="904" y="1720" on="0"/>
        <pt x="754" y="1651" on="0"/>
        <pt x="741" y="1645" on="1"/>
        <pt x="732" y="1647" on="0"/>
        <pt x="719" y="1663" on="0"/>
      </contour>
    </TTGlyph>
    <TTGlyph name="Udieresis" xMin="164" yMin="-14" xMax="1694" yMax="1910">
      <contour>
        <pt x="224" y="624" on="1"/>
        <pt x="334" y="1193" on="1"/>
        <pt x="340" y="1223" on="0"/>
        <pt x="344" y="1245" on="0"/>
        <pt x="353" y="1293" on="0"/>
        <pt x="356" y="1316" on="0"/>
        <pt x="359" y="1350" on="0"/>
        <pt x="359" y="1373" on="0"/>
        <pt x="357" y="1383" on="1"/>
        <pt x="354" y="1401" on="0"/>
        <pt x="258" y="1422" on="0"/>
        <pt x="226" y="1422" on="1"/>
        <pt x="221" y="1431" on="0"/>
        <pt x="230" y="1486" on="0"/>
        <pt x="240" y="1496" on="1"/>
        <pt x="402" y="1483" on="0"/>
        <pt x="511" y="1483" on="1"/>
        <pt x="612" y="1483" on="0"/>
        <pt x="784" y="1496" on="1"/>
        <pt x="791" y="1486" on="0"/>
        <pt x="781" y="1432" on="0"/>
        <pt x="771" y="1422" on="1"/>
        <pt x="738" y="1422" on="0"/>
        <pt x="633" y="1401" on="0"/>
        <pt x="624" y="1383" on="1"/>
        <pt x="601" y="1341" on="0"/>
        <pt x="572" y="1193" on="1"/>
        <pt x="479" y="707" on="1"/>
        <pt x="462" y="620" on="0"/>
        <pt x="449" y="490" on="0"/>
        <pt x="456" y="367" on="0"/>
        <pt x="472" y="316" on="1"/>
        <pt x="525" y="133" on="0"/>
        <pt x="748" y="133" on="1"/>
        <pt x="808" y="133" on="0"/>
        <pt x="920" y="167" on="0"/>
        <pt x="1032" y="245" on="0"/>
        <pt x="1125" y="364" on="0"/>
        <pt x="1202" y="545" on="0"/>
        <pt x="1225" y="660" on="1"/>
        <pt x="1322" y="1157" on="1"/>
        <pt x="1354" y="1316" on="0"/>
        <pt x="1338" y="1374" on="1"/>
        <pt x="1332" y="1395" on="0"/>
        <pt x="1226" y="1424" on="0"/>
        <pt x="1193" y="1424" on="1"/>
        <pt x="1190" y="1433" on="0"/>
        <pt x="1193" y="1461" on="0"/>
        <pt x="1202" y="1489" on="0"/>
        <pt x="1207" y="1496" on="1"/>
        <pt x="1226" y="1495" on="0"/>
        <pt x="1288" y="1490" on="0"/>
        <pt x="1324" y="1487" on="0"/>
        <pt x="1374" y="1484" on="0"/>
        <pt x="1424" y="1483" on="0"/>
        <pt x="1451" y="1483" on="1"/>
        <pt x="1493" y="1483" on="0"/>
        <pt x="1569" y="1487" on="0"/>
        <pt x="1656" y="1494" on="0"/>
        <pt x="1690" y="1496" on="1"/>
        <pt x="1694" y="1485" on="0"/>
        <pt x="1687" y="1438" on="0"/>
        <pt x="1677" y="1424" on="1"/>
        <pt x="1642" y="1424" on="0"/>
        <pt x="1520" y="1398" on="0"/>
        <pt x="1505" y="1374" on="1"/>
        <pt x="1468" y="1314" on="0"/>
        <pt x="1437" y="1159" on="1"/>
        <pt x="1336" y="635" on="1"/>
        <pt x="1309" y="501" on="0"/>
        <pt x="1210" y="284" on="0"/>
        <pt x="1079" y="134" on="0"/>
        <pt x="917" y="33" on="0"/>
        <pt x="741" y="-14" on="0"/>
        <pt x="644" y="-14" on="1"/>
        <pt x="517" y="-14" on="0"/>
        <pt x="320" y="79" on="0"/>
        <pt x="264" y="167" on="1"/>
        <pt x="164" y="326" on="0"/>
      </contour>
      <contour>
        <pt x="692" y="1779" on="1"/>
        <pt x="702" y="1833" on="0"/>
        <pt x="790" y="1910" on="0"/>
        <pt x="892" y="1910" on="0"/>
        <pt x="950" y="1833" on="0"/>
        <pt x="940" y="1779" on="1"/>
        <pt x="936" y="1757" on="0"/>
        <pt x="916" y="1716" on="0"/>
        <pt x="887" y="1682" on="0"/>
        <pt x="851" y="1655" on="0"/>
        <pt x="811" y="1641" on="0"/>
        <pt x="791" y="1641" on="1"/>
        <pt x="739" y="1641" on="0"/>
        <pt x="681" y="1724" on="0"/>
      </contour>
      <contour>
        <pt x="1123" y="1779" on="1"/>
        <pt x="1133" y="1833" on="0"/>
        <pt x="1221" y="1910" on="0"/>
        <pt x="1323" y="1910" on="0"/>
        <pt x="1382" y="1833" on="0"/>
        <pt x="1372" y="1779" on="1"/>
        <pt x="1362" y="1724" on="0"/>
        <pt x="1273" y="1641" on="0"/>
        <pt x="1223" y="1641" on="1"/>
        <pt x="1171" y="1641" on="0"/>
        <pt x="1113" y="1724" on="0"/>
      </contour>
    </TTGlyph>
</ttFont>
